# ufbx:bad_normals
# Blender v2.93.1 OBJ File: ''
# www.blender.org
g Plane
v -0.285714 -0.098136 0.413226
v 0.937829 0.000000 0.928330
v -0.460317 -0.158108 -0.469873
v 0.871949 -0.085869 -0.417109
v 0.248437 -0.088936 1.566148
v 1.594936 -0.085869 1.459709
v 0.921956 -0.654242 0.930379
v -0.035714 -0.355744 -0.651303
v 0.863020 -0.582684 -0.415957
v 0.552776 -0.539749 1.585911
v 1.594936 -0.601085 1.459710
v -0.535714 -0.098136 0.192785
v 0.505357 0.000000 1.211489
v 0.838690 0.000000 0.250902
v 0.000000 -0.085869 -0.655912
v -0.285714 -0.098136 0.913226
v 1.029461 -0.085869 1.808282
v 1.360116 0.000000 1.274214
v 1.487795 -0.085869 0.487474
v 0.469642 -0.613352 1.216098
v 0.802976 -0.613352 0.255511
v -0.035714 -0.527482 -0.651303
v 1.029461 -0.601085 1.808282
v 1.360116 -0.686954 1.274214
v 1.487795 -0.601085 0.487474
v -0.535714 -0.355744 -0.651303
v 0.883035 -0.343477 -0.639780
v 0.222321 -0.355744 1.510018
v 1.673209 -0.343477 1.521541
v 0.000000 0.000000 0.376352
v 1.021426 0.000000 1.587841
v 1.354760 0.000000 0.627254
v 1.021426 -0.686954 1.587841
v 1.354760 -0.686954 0.627254
v 0.000000 -0.343477 -1.000000
v -0.142857 -0.392545 0.394789
v 1.532140 -0.343477 0.440881
v 1.032140 -0.343477 1.881762
vt 0.548251 0.350671
vt 0.652271 0.246651
vt 0.717143 0.389820
vt 0.554400 0.448542
vt 0.756292 0.142630
vt 0.860312 0.246651
vt 0.964333 0.350671
vt 0.817434 0.464011
vt 0.757280 0.544790
vt 0.682839 0.529258
vt 0.560550 0.546413
vt 0.765227 0.624696
vt 0.697373 0.622089
vt 0.775277 0.761140
vt 0.667914 0.653777
vt 0.869805 0.555906
vt 0.831967 0.556841
vt 0.327956 0.466981
vt 0.271977 0.447027
vt 0.313610 0.400910
vt 0.356348 0.428637
vt 0.262851 0.391765
vt 0.307700 0.365946
vt 0.379745 0.395769
vt 0.396222 0.596544
vt 0.342146 0.533918
vt 0.383779 0.487801
vt 0.415056 0.493411
vt 0.532234 0.686502
vt 0.382822 0.754318
vt 0.362253 0.711502
vt 0.442877 0.630382
vt 0.233410 0.822134
vt 0.272149 0.695058
vt 0.312973 0.679497
vt 0.319629 0.648915
vt 0.128878 0.675865
vt 0.232895 0.546788
vt 0.024346 0.529595
vt 0.086040 0.413802
vt 0.147735 0.298008
vt 0.224598 0.386338
vt 0.459765 0.257445
vt 0.496000 0.471974
vt 0.453689 0.485958
vt 0.404454 0.357347
vt 0.303750 0.277726
vt 0.304938 0.323666
vn 0.3105 -0.9445 -0.1077
vn 0.1681 -0.9815 0.0919
vn -0.0067 -0.9949 0.1004
vn 0.0000 -1.0000 0.0000
vn 0.1621 -0.9809 -0.1072
vn -0.2024 -0.9395 -0.2764
vn 0.1176 -0.9632 -0.2419
vn -0.1888 -0.9677 0.1669
vn -0.4259 -0.9043 0.0296
vn 0.0799 0.9961 0.0375
vn 0.2878 0.9124 -0.2910
vn -0.2024 0.9395 -0.2764
vn -0.0610 0.9899 0.1277
vn 0.0908 0.9956 0.0223
vn -0.4259 0.9043 0.0296
vn -0.2230 -0.7235 0.6533
vn 0.3714 -0.7275 0.5769
vn 0.3241 0.9437 0.0664
vn -0.1675 0.8005 0.5754
vn 0.8323 0.5302 -0.1618
vn 0.8521 0.4320 -0.2957
vn 0.7373 0.5520 -0.3894
vn 0.5592 0.7971 -0.2281
vn 0.2043 0.9763 0.0709
vn 0.1501 0.9876 -0.0453
vn -0.9669 -0.2267 0.1169
vn -0.7905 -0.3483 0.5037
vn -0.7786 0.3748 0.5033
vn -0.9669 0.2267 0.1169
vn 0.3600 -0.0469 -0.9318
vn -0.4843 -0.2926 -0.8245
vn -0.4843 0.2926 -0.8245
vn 0.4094 0.2992 -0.8619
s off
f 1/1/1 12/2/1 30/3/1 16/4/1
f 3/5/2 15/6/2 30/3/2 12/2/2
f 4/7/3 14/8/3 30/3/3 15/6/3
f 2/9/4 13/10/4 30/3/4 14/8/4
f 5/11/5 16/4/5 30/3/5 13/10/5
f 2/9/4 18/12/4 31/13/4 13/10/4
f 6/14/6 17/15/6 31/13/6 18/12/6
f 5/11/7 13/10/7 31/13/7 17/15/7
f 4/7/8 19/16/8 32/17/8 14/8/8
f 6/14/9 18/12/9 32/17/9 19/16/9
f 2/9/4 14/8/4 32/17/4 18/12/4
f 7/18/10 20/19/10 33/20/10 24/21/10
f 10/22/11 23/23/11 33/20/11 20/19/11
f 11/24/12 24/21/12 33/20/12 23/23/12
f 9/25/13 21/26/13 34/27/13 25/28/13
f 7/18/14 24/21/14 34/27/14 21/26/14
f 11/24/15 25/28/15 34/27/15 24/21/15
f 4/29/16 15/30/16 35/31/16 27/32/16
f 15/30/17 3/33/17 26/34/17 35/31/17
f 35/31/18 26/34/18 8/35/18 22/36/18
f 27/32/19 35/31/19 22/36/19 9/25/19
f 3/33/20 12/37/20 36/38/20 26/34/20
f 1/39/21 16/40/21 36/38/21 12/37/21
f 5/41/22 28/42/22 36/38/22 16/40/22
f 10/22/23 20/19/23 36/38/23 28/42/23
f 7/18/24 21/26/24 36/38/24 20/19/24
f 9/25/25 22/36/25 36/38/25 21/26/25
f 8/35/18 26/34/18 36/38/18 22/36/18
f 6/43/26 19/44/26 37/45/26 29/46/26
f 19/44/27 4/29/27 27/32/27 37/45/27
f 37/45/28 27/32/28 9/25/28 25/28/28
f 29/46/29 37/45/29 25/28/29 11/24/29
f 5/41/30 17/47/30 38/48/30 28/42/30
f 17/47/31 6/43/31 29/46/31 38/48/31
f 38/48/32 29/46/32 11/24/32 23/23/32
f 28/42/33 38/48/33 23/23/33 10/22/33
