# ufbx:bad_normals
# Blender v3.1.2 OBJ File: 'vertex_crease.blend'
# www.blender.org
g Cube_Cube.001
v -0.950000 -1.000000 0.950000
v -0.877778 0.877778 0.877778
v -0.856250 -1.000000 -0.856250
v -0.675926 0.675926 -0.675926
v 1.000000 -1.000000 1.000000
v 1.000000 1.000000 1.000000
v 0.762500 -1.000000 -0.762500
v 0.583333 0.583333 -0.583333
v -0.987500 -1.000000 -0.487500
v -0.996875 -1.000000 0.003125
v -1.000000 -1.000000 0.500000
v -0.781250 -0.500000 0.781250
v -0.730469 -0.007812 0.730469
v -0.765625 0.468750 0.765625
v -0.765625 0.765625 0.468750
v -0.722396 0.722396 0.004167
v -0.748958 0.748958 -0.452083
v -0.748958 0.452083 -0.748958
v -0.723958 -0.011979 -0.723958
v -0.771875 -0.500000 -0.771875
v 0.425000 -1.000000 -0.925000
v -0.015625 -1.000000 -0.978125
v -0.487500 -1.000000 -0.987500
v -0.452083 0.748958 -0.748958
v -0.020833 0.697396 -0.697396
v 0.368750 0.665625 -0.665625
v 0.665625 0.368750 -0.665625
v 0.691406 -0.032812 -0.691406
v 0.725000 -0.500000 -0.725000
v 1.000000 -1.000000 0.500000
v 0.981250 -1.000000 0.018750
v 0.925000 -1.000000 -0.425000
v 0.665625 0.665625 -0.368750
v 0.701563 0.701563 0.025000
v 0.765625 0.765625 0.468750
v 0.765625 0.468750 0.765625
v 0.730469 -0.007812 0.730469
v 0.781250 -0.500000 0.781250
v -0.500000 -1.000000 1.000000
v 0.000000 -1.000000 1.000000
v 0.500000 -1.000000 1.000000
v 0.468750 0.765625 0.765625
v 0.000000 0.726562 0.726562
v -0.468750 0.765625 0.765625
v -0.937500 -0.500000 0.437500
v -0.890625 -0.015625 0.406250
v -0.875000 0.437500 0.437500
v -0.967187 -0.500000 0.001562
v -0.928602 -0.024132 0.001085
v -0.872222 0.403472 0.002778
v -0.931250 -0.500000 -0.431250
v -0.886285 -0.018403 -0.401910
v -0.863889 0.426389 -0.426389
v -0.431250 -0.500000 -0.931250
v -0.401910 -0.018403 -0.886285
v -0.426389 0.426389 -0.863889
v -0.007813 -0.500000 -0.957813
v -0.005425 -0.028299 -0.922092
v -0.013889 0.386806 -0.855556
v 0.400000 -0.500000 -0.900000
v 0.380208 -0.032292 -0.864583
v 0.370833 0.370833 -0.808333
v 0.900000 -0.500000 -0.400000
v 0.864583 -0.032292 -0.380208
v 0.808333 0.370833 -0.370833
v 0.959375 -0.500000 0.009375
v 0.923177 -0.027604 0.006510
v 0.858333 0.389583 0.016667
v 0.937500 -0.500000 0.437500
v 0.890625 -0.015625 0.406250
v 0.875000 0.437500 0.437500
v 0.437500 -0.500000 0.937500
v 0.406250 -0.015625 0.890625
v 0.437500 0.437500 0.875000
v 0.000000 -0.500000 0.968750
v 0.000000 -0.023438 0.929688
v 0.000000 0.406250 0.875000
v -0.437500 -0.500000 0.937500
v -0.406250 -0.015625 0.890625
v -0.437500 0.437500 0.875000
v -0.493750 -1.000000 -0.493750
v -0.007812 -1.000000 -0.489063
v 0.462500 -1.000000 -0.462500
v -0.498437 -1.000000 0.001562
v -0.001953 -1.000000 0.002734
v 0.490625 -1.000000 0.009375
v -0.500000 -1.000000 0.500000
v 0.000000 -1.000000 0.500000
v 0.500000 -1.000000 0.500000
v 0.370833 0.808333 -0.370833
v -0.013889 0.855556 -0.386806
v -0.426389 0.863889 -0.426389
v 0.389583 0.858333 0.016667
v -0.003472 0.901389 0.004861
v -0.403472 0.872222 0.002778
v 0.437500 0.875000 0.437500
v 0.000000 0.875000 0.406250
v -0.437500 0.875000 0.437500
vt 0.437500 0.062500
vt 0.500000 0.062500
vt 0.500000 0.125000
vt 0.437500 0.125000
vt 0.562500 0.062500
vt 0.562500 0.125000
vt 0.500000 0.187500
vt 0.437500 0.187500
vt 0.562500 0.187500
vt 0.381250 0.006250
vt 0.437500 0.000000
vt 0.375000 0.062500
vt 0.500000 0.000000
vt 0.562500 0.000000
vt 0.618750 0.006250
vt 0.625000 0.062500
vt 0.625000 0.125000
vt 0.625000 0.187500
vt 0.625000 0.250000
vt 0.562500 0.250000
vt 0.500000 0.250000
vt 0.437500 0.250000
vt 0.375000 0.187500
vt 0.375000 0.250000
vt 0.375000 0.125000
vt 0.437500 0.312500
vt 0.500000 0.312500
vt 0.500293 0.374707
vt 0.437500 0.375000
vt 0.562500 0.312500
vt 0.563672 0.373828
vt 0.501172 0.436328
vt 0.437500 0.437500
vt 0.567187 0.432813
vt 0.375000 0.312500
vt 0.625000 0.312500
vt 0.627344 0.372656
vt 0.634375 0.428125
vt 0.654688 0.470313
vt 0.569531 0.492969
vt 0.501758 0.498242
vt 0.437500 0.500000
vt 0.375000 0.437500
vt 0.375000 0.500000
vt 0.375000 0.375000
vt 0.437500 0.562500
vt 0.501172 0.561328
vt 0.500293 0.624707
vt 0.437500 0.625000
vt 0.567187 0.557812
vt 0.563672 0.623828
vt 0.500000 0.687500
vt 0.437500 0.687500
vt 0.562500 0.687500
vt 0.375000 0.562500
vt 0.632031 0.555469
vt 0.626758 0.623242
vt 0.625000 0.687500
vt 0.625000 0.750000
vt 0.562500 0.750000
vt 0.500000 0.750000
vt 0.437500 0.750000
vt 0.375000 0.687500
vt 0.375000 0.750000
vt 0.375000 0.625000
vt 0.437500 0.812500
vt 0.500000 0.812500
vt 0.500000 0.875000
vt 0.437500 0.875000
vt 0.562500 0.812500
vt 0.562500 0.875000
vt 0.500000 0.937500
vt 0.437500 0.937500
vt 0.562500 0.937500
vt 0.375000 0.812500
vt 0.625000 0.812500
vt 0.625000 0.875000
vt 0.625000 0.937500
vt 0.618750 0.993750
vt 0.562500 1.000000
vt 0.500000 1.000000
vt 0.437500 1.000000
vt 0.375000 0.937500
vt 0.381250 0.993750
vt 0.375000 0.875000
vt 0.188281 0.563281
vt 0.250195 0.562695
vt 0.250049 0.625049
vt 0.187695 0.625195
vt 0.312500 0.562500
vt 0.312500 0.625000
vt 0.250000 0.687500
vt 0.187500 0.687500
vt 0.312500 0.687500
vt 0.142969 0.517969
vt 0.189062 0.501562
vt 0.126562 0.564063
vt 0.250391 0.500391
vt 0.312500 0.500000
vt 0.312500 0.750000
vt 0.250000 0.750000
vt 0.187500 0.750000
vt 0.125000 0.687500
vt 0.131250 0.743750
vt 0.125391 0.625391
vt 0.692187 0.557813
vt 0.750977 0.561523
vt 0.750244 0.624756
vt 0.688672 0.623828
vt 0.811719 0.563281
vt 0.812305 0.625195
vt 0.750000 0.687500
vt 0.687500 0.687500
vt 0.812500 0.687500
vt 0.696875 0.490625
vt 0.751953 0.498047
vt 0.810937 0.501562
vt 0.857031 0.517969
vt 0.873437 0.564063
vt 0.874609 0.625391
vt 0.875000 0.687500
vt 0.868750 0.743750
vt 0.812500 0.750000
vt 0.750000 0.750000
vt 0.687500 0.750000
vn -0.9700 0.1459 0.1945
vn -0.9711 0.0658 0.2294
vn -0.9961 0.0874 -0.0083
vn -0.9958 0.0907 -0.0085
vn -0.9889 0.1131 0.0967
vn -0.9735 0.2282 -0.0143
vn -0.9672 0.0713 -0.2437
vn -0.9637 0.1207 -0.2380
vn -0.9621 0.1965 -0.1890
vn -0.6313 -0.4505 0.6313
vn -0.6890 0.2250 0.6890
vn -0.7719 -0.6252 0.1150
vn -0.7065 0.0414 0.7065
vn -0.7068 -0.0279 0.7068
vn -0.5774 0.5774 0.5774
vn -0.7064 0.7064 -0.0458
vn -0.7069 0.7069 -0.0217
vn -0.6978 0.6978 -0.1616
vn -0.5774 0.5774 -0.5774
vn -0.6969 0.1696 -0.6969
vn -0.7062 0.0509 -0.7062
vn -0.6978 0.1621 -0.6978
vn -0.7637 -0.6208 -0.1769
vn -0.5940 -0.5425 -0.5940
vn -0.7397 -0.6729 -0.0075
vn -0.2261 0.1174 -0.9670
vn -0.2316 0.0744 -0.9700
vn 0.0453 0.1044 -0.9935
vn 0.0453 0.0724 -0.9963
vn -0.1633 0.2072 -0.9646
vn 0.0823 0.2732 -0.9584
vn 0.3075 0.1086 -0.9453
vn 0.3048 0.0759 -0.9494
vn 0.2878 0.2835 -0.9148
vn -0.1666 -0.6185 -0.7679
vn -0.1278 0.7013 -0.7013
vn 0.1198 0.7020 -0.7020
vn 0.2762 0.6796 -0.6796
vn 0.5774 0.5774 -0.5774
vn 0.6806 0.2714 -0.6806
vn 0.7032 0.1052 -0.7032
vn 0.7041 0.0918 -0.7041
vn 0.2282 -0.6475 -0.7271
vn 0.5631 -0.6048 -0.5631
vn 0.0403 -0.6736 -0.7380
vn 0.9488 0.0764 -0.3066
vn 0.9448 0.1082 -0.3094
vn 0.9933 0.1020 -0.0536
vn 0.9957 0.0750 -0.0537
vn 0.9141 0.2818 -0.2916
vn 0.9590 0.2663 -0.0964
vn 0.9733 0.0684 0.2191
vn 0.9739 0.1529 0.1677
vn 0.9938 0.0988 0.0515
vn 0.7263 -0.6479 -0.2297
vn 0.6785 0.6785 -0.2818
vn 0.7001 0.7001 -0.1408
vn 0.6981 0.6981 -0.1593
vn 0.5774 0.5774 0.5774
vn 0.7029 -0.1092 0.7029
vn 0.7065 0.0414 0.7065
vn 0.6837 0.2551 0.6837
vn 0.7740 -0.6286 0.0764
vn 0.6459 -0.4069 0.6459
vn 0.7377 -0.6735 -0.0478
vn 0.1799 0.1563 0.9712
vn 0.2313 0.0653 0.9707
vn 0.0000 0.0849 0.9964
vn 0.0000 0.0936 0.9956
vn 0.0783 0.0890 0.9929
vn 0.0000 0.2212 0.9752
vn -0.2313 0.0653 0.9707
vn -0.1965 0.1464 0.9695
vn -0.1009 0.1115 0.9886
vn 0.0870 -0.6312 0.7707
vn -0.1221 0.7018 0.7018
vn 0.0000 0.7071 0.7071
vn 0.0401 0.7065 0.7065
vn -0.1167 -0.6256 0.7714
vn 0.0000 -0.6728 0.7399
vn -0.0000 -1.0000 0.0000
vn 0.2764 0.9187 -0.2820
vn 0.0792 0.9630 -0.2578
vn 0.0293 0.9988 -0.0396
vn 0.2488 0.9640 -0.0936
vn -0.1579 0.9681 -0.1944
vn -0.1996 0.9797 -0.0193
vn 0.0048 0.9817 0.1904
vn 0.0832 0.9955 0.0465
vn -0.0960 0.9913 0.0902
s 1
f 45/1/1 46/2/2 49/3/3 48/4/4
f 46/2/2 47/5/5 50/6/6 49/3/3
f 48/4/4 49/3/3 52/7/7 51/8/8
f 49/3/3 50/6/6 53/9/9 52/7/7
f 1/10/10 12/11/11 45/1/1 11/12/12
f 12/11/11 13/13/13 46/2/2 45/1/1
f 13/13/13 14/14/14 47/5/5 46/2/2
f 14/14/14 2/15/15 15/16/16 47/5/5
f 47/5/5 15/16/16 16/17/17 50/6/6
f 50/6/6 16/17/17 17/18/18 53/9/9
f 53/9/9 17/18/18 4/19/19 18/20/20
f 52/7/7 53/9/9 18/20/20 19/21/21
f 51/8/8 52/7/7 19/21/21 20/22/22
f 9/23/23 51/8/8 20/22/22 3/24/24
f 10/25/25 48/4/4 51/8/8 9/23/23
f 11/12/12 45/1/1 48/4/4 10/25/25
f 54/26/26 55/27/27 58/28/28 57/29/29
f 55/27/27 56/30/30 59/31/31 58/28/28
f 57/29/29 58/28/28 61/32/32 60/33/33
f 58/28/28 59/31/31 62/34/34 61/32/32
f 3/24/24 20/22/22 54/26/26 23/35/35
f 20/22/22 19/21/21 55/27/27 54/26/26
f 19/21/21 18/20/20 56/30/30 55/27/27
f 18/20/20 4/19/19 24/36/36 56/30/30
f 56/30/30 24/36/36 25/37/37 59/31/31
f 59/31/31 25/37/37 26/38/38 62/34/34
f 62/34/34 26/38/38 8/39/39 27/40/40
f 61/32/32 62/34/34 27/40/40 28/41/41
f 60/33/33 61/32/32 28/41/41 29/42/42
f 21/43/43 60/33/33 29/42/42 7/44/44
f 22/45/45 57/29/29 60/33/33 21/43/43
f 23/35/35 54/26/26 57/29/29 22/45/45
f 63/46/46 64/47/47 67/48/48 66/49/49
f 64/47/47 65/50/50 68/51/51 67/48/48
f 66/49/49 67/48/48 70/52/52 69/53/53
f 67/48/48 68/51/51 71/54/54 70/52/52
f 7/44/44 29/42/42 63/46/46 32/55/55
f 29/42/42 28/41/41 64/47/47 63/46/46
f 28/41/41 27/40/40 65/50/50 64/47/47
f 27/40/40 8/39/39 33/56/56 65/50/50
f 65/50/50 33/56/56 34/57/57 68/51/51
f 68/51/51 34/57/57 35/58/58 71/54/54
f 71/54/54 35/58/58 6/59/59 36/60/60
f 70/52/52 71/54/54 36/60/60 37/61/61
f 69/53/53 70/52/52 37/61/61 38/62/62
f 30/63/63 69/53/53 38/62/62 5/64/64
f 31/65/65 66/49/49 69/53/53 30/63/63
f 32/55/55 63/46/46 66/49/49 31/65/65
f 72/66/66 73/67/67 76/68/68 75/69/69
f 73/67/67 74/70/70 77/71/71 76/68/68
f 75/69/69 76/68/68 79/72/72 78/73/73
f 76/68/68 77/71/71 80/74/74 79/72/72
f 5/64/64 38/62/62 72/66/66 41/75/75
f 38/62/62 37/61/61 73/67/67 72/66/66
f 37/61/61 36/60/60 74/70/70 73/67/67
f 36/60/60 6/59/59 42/76/76 74/70/70
f 74/70/70 42/76/76 43/77/77 77/71/71
f 77/71/71 43/77/77 44/78/78 80/74/74
f 80/74/74 44/78/78 2/79/15 14/80/14
f 79/72/72 80/74/74 14/80/14 13/81/13
f 78/73/73 79/72/72 13/81/13 12/82/11
f 39/83/79 78/73/73 12/82/11 1/84/10
f 40/85/80 75/69/69 78/73/73 39/83/79
f 41/75/75 72/66/66 75/69/69 40/85/80
f 81/86/81 82/87/81 85/88/81 84/89/81
f 82/87/81 83/90/81 86/91/81 85/88/81
f 84/89/81 85/88/81 88/92/81 87/93/81
f 85/88/81 86/91/81 89/94/81 88/92/81
f 3/95/24 23/96/35 81/86/81 9/97/23
f 23/96/35 22/98/45 82/87/81 81/86/81
f 22/98/45 21/99/43 83/90/81 82/87/81
f 21/99/43 7/44/44 32/55/55 83/90/81
f 83/90/81 32/55/55 31/65/65 86/91/81
f 86/91/81 31/65/65 30/63/63 89/94/81
f 89/94/81 30/63/63 5/64/64 41/100/75
f 88/92/81 89/94/81 41/100/75 40/101/80
f 87/93/81 88/92/81 40/101/80 39/102/79
f 11/103/12 87/93/81 39/102/79 1/104/10
f 10/105/25 84/89/81 87/93/81 11/103/12
f 9/97/23 81/86/81 84/89/81 10/105/25
f 90/106/82 91/107/83 94/108/84 93/109/85
f 91/107/83 92/110/86 95/111/87 94/108/84
f 93/109/85 94/108/84 97/112/88 96/113/89
f 94/108/84 95/111/87 98/114/90 97/112/88
f 8/39/39 26/115/38 90/106/82 33/56/56
f 26/115/38 25/116/37 91/107/83 90/106/82
f 25/116/37 24/117/36 92/110/86 91/107/83
f 24/117/36 4/118/19 17/119/18 92/110/86
f 92/110/86 17/119/18 16/120/17 95/111/87
f 95/111/87 16/120/17 15/121/16 98/114/90
f 98/114/90 15/121/16 2/122/15 44/123/78
f 97/112/88 98/114/90 44/123/78 43/124/77
f 96/113/89 97/112/88 43/124/77 42/125/76
f 35/58/58 96/113/89 42/125/76 6/59/59
f 34/57/57 93/109/85 96/113/89 35/58/58
f 33/56/56 90/106/82 93/109/85 34/57/57
