# This file uses centimeters as units for non-parametric coordinates.

g default
v -100.000000 -99.999984 100.000016
v -100.000000 100.000016 99.999984
v -100.000000 -100.000016 -99.999984
v -100.000000 99.999984 -100.000016
v 100.000000 -99.999984 100.000016
v 100.000000 100.000016 99.999984
v 100.000000 -100.000016 -99.999984
v 100.000000 99.999984 -100.000016
vn -1.000000 0.000000 -0.000000
vn -1.000000 0.000000 -0.000000
vn -1.000000 0.000000 -0.000000
vn -1.000000 0.000000 -0.000000
vn 0.000000 -0.000000 -1.000000
vn 0.000000 -0.000000 -1.000000
vn 0.000000 -0.000000 -1.000000
vn 0.000000 -0.000000 -1.000000
vn 1.000000 0.000000 0.000000
vn 1.000000 0.000000 0.000000
vn 1.000000 0.000000 0.000000
vn 1.000000 0.000000 0.000000
vn 0.000000 0.000000 1.000000
vn 0.000000 0.000000 1.000000
vn 0.000000 0.000000 1.000000
vn 0.000000 0.000000 1.000000
vn 0.000000 -1.000000 0.000000
vn 0.000000 -1.000000 0.000000
vn 0.000000 -1.000000 0.000000
vn 0.000000 -1.000000 0.000000
vn 0.000000 1.000000 -0.000000
vn 0.000000 1.000000 -0.000000
vn 0.000000 1.000000 -0.000000
vn 0.000000 1.000000 -0.000000
s off
g CubeFBXASC046001
f 1//1 2//2 4//3 3//4
f 3//5 4//6 8//7 7//8
f 7//9 8//10 6//11 5//12
f 5//13 6//14 2//15 1//16
f 3//17 7//18 5//19 1//20
f 8//21 4//22 2//23 6//24
g default
v 197.583224 193.951703 -76.118610
v -182.971705 290.435579 -234.286480
v 145.165263 230.906611 9.318881
v 78.463071 194.765819 84.535448
v 130.881032 157.810913 -0.902039
vn 0.319483 0.925323 -0.204226
vn 0.319483 0.925323 -0.204226
vn 0.319483 0.925323 -0.204226
vn -0.098113 0.928177 0.358973
vn -0.098113 0.928177 0.358973
vn -0.098113 0.928177 0.358973
vn -0.452538 -0.885498 0.105368
vn -0.452538 -0.885498 0.105368
vn -0.452538 -0.885498 0.105368
vn -0.034942 -0.888352 -0.457831
vn -0.034942 -0.888352 -0.457831
vn -0.034942 -0.888352 -0.457831
vn 0.780485 -0.233606 0.579890
vn 0.780485 -0.233606 0.579890
vn 0.780485 -0.233606 0.579890
vn 0.780485 -0.233606 0.579890
s off
g CubeFBXASC046001 SpaceFBXASC032Cone
f 9//25 10//26 11//27
f 11//28 10//29 12//30
f 12//31 10//32 13//33
f 13//34 10//35 9//36
f 9//37 11//38 12//39 13//40
g default
v -101.179661 151.211242 190.961505
v 104.427292 179.828822 273.855201
v -163.773779 235.928872 159.201358
v -315.586777 230.941757 45.919290
v -141.204840 171.758585 90.564298
v 118.375546 140.169738 231.435522
v 17.092532 277.246586 180.044197
v -242.487854 308.835433 39.172973
v -228.539600 269.176349 -3.246706
v 39.661471 213.076299 111.407137
v 191.474469 218.063414 224.689205
v -22.932647 297.793929 79.646990
vn -0.380843 0.064412 0.922394
vn -0.380843 0.064412 0.922394
vn -0.380843 0.064412 0.922394
vn -0.156730 -0.746634 0.646509
vn -0.156730 -0.746634 0.646509
vn -0.156730 -0.746634 0.646509
vn -0.589500 -0.137123 0.796045
vn -0.589500 -0.137123 0.796045
vn -0.589500 -0.137123 0.796045
vn -0.303621 -0.949963 -0.073376
vn -0.303621 -0.949963 -0.073376
vn -0.303621 -0.949963 -0.073376
vn -0.013296 -0.980634 -0.195396
vn -0.013296 -0.980634 -0.195396
vn -0.013296 -0.980634 -0.195396
vn 0.581856 -0.489808 0.649255
vn 0.581856 -0.489808 0.649255
vn 0.581856 -0.489808 0.649255
vn -0.220899 0.566484 0.793914
vn -0.220899 0.566484 0.793914
vn -0.220899 0.566484 0.793914
vn -0.514501 0.540487 0.665705
vn -0.514501 0.540487 0.665705
vn -0.514501 0.540487 0.665705
vn -0.069866 -0.723742 -0.686525
vn -0.069866 -0.723742 -0.686525
vn -0.069866 -0.723742 -0.686525
vn 0.242305 -0.750546 -0.614792
vn 0.242305 -0.750546 -0.614792
vn 0.242305 -0.750546 -0.614792
vn 0.069866 0.723742 0.686525
vn 0.069866 0.723742 0.686525
vn 0.069866 0.723742 0.686525
vn -0.242305 0.750546 0.614792
vn -0.242305 0.750546 0.614792
vn -0.242305 0.750546 0.614792
vn -0.581856 0.489808 -0.649255
vn -0.581856 0.489808 -0.649255
vn -0.581856 0.489808 -0.649255
vn 0.220899 -0.566484 -0.793914
vn 0.220899 -0.566484 -0.793914
vn 0.220899 -0.566484 -0.793914
vn 0.514501 -0.540487 -0.665705
vn 0.514501 -0.540487 -0.665705
vn 0.514501 -0.540487 -0.665705
vn 0.303621 0.949963 0.073376
vn 0.303621 0.949963 0.073376
vn 0.303621 0.949963 0.073376
vn 0.013296 0.980634 0.195396
vn 0.013296 0.980634 0.195396
vn 0.013296 0.980634 0.195396
vn 0.156730 0.746634 -0.646509
vn 0.156730 0.746634 -0.646509
vn 0.156730 0.746634 -0.646509
vn 0.380843 -0.064412 -0.922394
vn 0.380843 -0.064412 -0.922394
vn 0.380843 -0.064412 -0.922394
vn 0.589500 0.137123 -0.796045
vn 0.589500 0.137123 -0.796045
vn 0.589500 0.137123 -0.796045
s off
g CubeFBXASC046001 IcoFBXASC046FBXASC032FBXASC046Sphere
f 14//41 15//42 16//43
f 15//44 14//45 19//46
f 14//47 16//48 17//49
f 14//50 17//51 18//52
f 14//53 18//54 19//55
f 15//56 19//57 24//58
f 16//59 15//60 20//61
f 17//62 16//63 21//64
f 18//65 17//66 22//67
f 19//68 18//69 23//70
f 15//71 24//72 20//73
f 16//74 20//75 21//76
f 17//77 21//78 22//79
f 18//80 22//81 23//82
f 19//83 23//84 24//85
f 20//86 24//87 25//88
f 21//89 20//90 25//91
f 22//92 21//93 25//94
f 23//95 22//96 25//97
f 24//98 23//99 25//100
g default
v -152.919693 371.478976 111.425983
v 27.280693 286.450085 89.921433
v -27.280650 454.809441 -89.921519
v 152.919736 369.780550 -111.426068
vn 0.408272 0.724935 0.554782
vn 0.408272 0.724935 0.554782
vn 0.408272 0.724935 0.554782
vn 0.408272 0.724935 0.554782
s off
g CubeFBXASC046001 SpaceFBXASC032Cone DeepFBXASC032Plane
f 26//101 27//102 29//103 28//104
