# ufbx:bad_uvs
# ufbx:bad_normals
# This file uses centimeters as units for non-parametric coordinates.

g default
v -18.383537 44.205054 100.574266
v -18.345909 46.018149 100.617825
v -17.179485 44.205054 101.968101
v -37.126690 44.205054 106.883570
v -37.130900 46.018149 106.941212
v -37.261435 44.205054 108.728069
v -54.753921 44.205054 97.917313
v -54.797480 46.018149 97.954941
v -56.147755 44.205054 99.121365
v -61.469594 44.205054 78.703741
v -61.171663 46.018149 79.111148
v -62.907724 44.205054 79.039415
v -52.096968 44.205054 61.546929
v -52.134596 46.018149 61.503370
v -53.301019 44.205054 60.153096
v -33.353816 44.205054 55.237624
v -33.349605 46.018149 55.179982
v -33.219071 44.205054 53.393126
v -15.726584 44.205054 64.203882
v -15.683025 46.018149 64.166254
v -14.332750 44.205054 62.999831
v -9.417280 44.205054 82.947034
v -9.359638 46.018149 82.951245
v -7.572782 44.205054 83.081780
v -13.040560 29.872945 106.759403
v -11.159231 16.576894 108.937267
v -37.724622 29.872945 115.068531
v -37.935162 16.576894 117.950560
v -60.939059 29.872945 103.260292
v -63.116923 16.576894 105.141621
v -69.248185 29.872945 78.576227
v -72.130213 16.576894 78.365688
v -57.439946 29.872945 55.361792
v -59.321275 16.576894 53.183928
v -32.755882 29.872945 47.052665
v -32.545342 16.576894 44.170636
v -9.541446 29.872945 58.860904
v -7.363582 16.576894 56.979575
v -1.232320 29.872945 83.544968
v 1.649709 16.576894 83.755508
v -14.169360 7.079715 105.452682
v -17.179485 2.762816 101.968101
v -37.598299 7.079715 113.339314
v -37.261435 2.762816 108.728069
v -59.632338 7.079715 102.131492
v -56.147755 2.762816 99.121365
v -67.518970 7.079715 78.702552
v -62.907724 2.762816 79.039415
v -56.311146 7.079715 56.668513
v -53.301019 2.762816 60.153096
v -32.882206 7.079715 48.781882
v -33.219071 2.762816 53.393126
v -10.848167 7.079715 59.989704
v -14.332750 2.762816 62.999831
v -2.961536 7.079715 83.418643
v -7.572782 2.762816 83.081780
v -19.775721 0.863380 98.962646
v -35.240253 0.000000 81.060598
v -36.970890 0.863380 104.750869
v -53.142301 0.863380 96.525129
v -58.930524 0.863380 79.329960
v -50.704784 0.863380 63.158549
v -33.509615 0.863380 57.370326
v -17.338204 0.863380 65.596066
v -11.549981 0.863380 82.791235
v -54.505070 37.298015 58.759262
v -64.287985 36.779984 47.434366
v -67.749634 33.153787 43.427092
v -57.039170 39.370126 62.165294
v -68.703416 38.593085 48.662532
v -72.691835 33.153787 44.045458
v -53.301019 41.442237 60.153096
v -66.846595 40.406177 44.472467
v -71.361785 33.153787 39.245594
v -50.766919 39.370126 56.747064
v -62.431165 38.593085 43.244301
v -66.419584 33.153787 38.627228
v -65.793049 24.865342 45.692073
v -59.321275 16.576894 53.183928
v -70.095601 23.095413 47.050910
v -61.855375 13.814079 56.589960
v -68.125901 21.325483 42.991518
v -58.117223 11.051263 54.577762
v -63.823351 23.095413 41.632679
v -55.583124 13.814079 51.171730
v -14.771381 26.246749 104.755769
v -6.493532 33.153787 114.338373
v -2.730871 44.205054 118.694103
v -21.670859 18.649008 110.715821
v -9.443913 29.872945 120.537946
v -1.732154 44.205054 125.133201
v -14.771381 11.051263 104.755769
v -2.881379 26.592103 118.519873
v 4.493434 44.205054 127.057103
v -7.871905 18.649008 98.795716
v 0.069000 29.872945 112.320297
v 3.494721 44.205054 120.618009
v -1.225807 45.241108 120.436396
v -1.526822 44.205054 120.087935
v 0.314407 45.435369 126.445749
v -0.686779 44.205054 124.230163
v 6.036123 45.629630 128.842950
v 3.289383 44.205054 125.663269
v 4.495912 45.435369 122.833600
v 2.449346 44.205054 121.521047
v -35.240253 58.019131 81.060598
v -31.327086 54.910966 85.590557
v -32.832150 49.730684 83.848265
v -35.678709 54.910966 87.062523
v -35.509744 49.730684 84.749594
v -39.770212 54.910966 84.973764
v -38.027920 49.730684 83.468700
v -41.242178 54.910966 80.622141
v -38.929249 49.730684 80.791107
v -39.153419 54.910966 76.530638
v -37.648355 49.730684 78.272930
v -34.801796 54.910966 75.058672
v -34.970762 49.730684 77.371601
v -30.710293 54.910966 77.147431
v -32.452586 49.730684 78.652495
v -29.238327 54.910966 81.499054
v -31.551256 49.730684 81.330089
v -25.306830 46.967867 92.559725
v -19.587589 44.205054 99.180432
v -36.351903 46.967867 96.277707
v -36.991944 44.205054 105.039072
v -46.739379 46.967867 90.994019
v -53.360087 44.205054 96.713261
v -50.457362 46.967867 79.948948
v -59.218727 44.205054 79.308906
v -45.173675 46.967867 69.561471
v -50.892917 44.205054 62.940763
v -34.128602 46.967867 65.843489
v -33.488561 44.205054 57.082123
v -23.741126 46.967867 71.127176
v -17.120418 44.205054 65.407934
v -20.023143 46.967867 82.172248
v -11.261778 44.205054 82.812289
vn -0.653380 0.031731 -0.756365
vn 0.072822 0.031861 -0.996836
vn -0.013078 0.983757 0.179026
vn 0.115714 0.984209 0.133953
vn -0.065556 0.436373 0.897375
vn 0.588570 0.435156 0.681340
vn 0.756717 0.001363 -0.653741
vn -0.132468 0.984542 0.114585
vn -0.681422 0.434932 0.588641
vn 0.988808 -0.079408 0.126305
vn -0.146797 0.987178 -0.062692
vn -0.897752 0.435662 -0.065116
vn 0.645771 -0.043298 0.762302
vn -0.129131 0.981828 -0.139063
vn -0.588712 0.434537 -0.681613
vn -0.072822 0.031861 0.996836
vn 0.013078 0.983757 -0.179026
vn 0.065556 0.436373 -0.897375
vn -0.756365 0.031731 0.653380
vn 0.133952 0.984209 -0.115714
vn 0.681340 0.435156 -0.588570
vn -0.996836 0.031861 -0.072821
vn 0.179025 0.983757 0.013079
vn 0.897375 0.436373 0.065556
vn -0.069432 0.303043 0.950444
vn 0.623158 0.302132 0.721381
vn -0.072721 -0.061409 0.995460
vn 0.652473 -0.061454 0.755316
vn -0.721381 0.302132 0.623158
vn -0.755316 -0.061454 0.652473
vn -0.950444 0.303043 -0.069433
vn -0.995460 -0.061409 -0.072721
vn -0.623158 0.302132 -0.721381
vn -0.652473 -0.061454 -0.755316
vn 0.069432 0.303043 -0.950444
vn 0.072721 -0.061409 -0.995460
vn 0.721381 0.302132 -0.623158
vn 0.755316 -0.061454 -0.652473
vn 0.950444 0.303043 0.069433
vn 0.995460 -0.061409 0.072721
vn -0.061969 -0.525914 0.848277
vn 0.556417 -0.524891 0.644119
vn -0.044980 -0.786677 0.615723
vn 0.404229 -0.785893 0.467944
vn -0.644119 -0.524892 0.556417
vn -0.467944 -0.785893 0.404229
vn -0.848277 -0.525914 -0.061969
vn -0.615724 -0.786677 -0.044980
vn -0.556417 -0.524892 -0.644119
vn -0.404229 -0.785893 -0.467944
vn 0.061969 -0.525914 -0.848277
vn 0.044980 -0.786677 -0.615723
vn 0.644119 -0.524892 -0.556417
vn 0.467944 -0.785893 -0.404229
vn 0.848277 -0.525914 0.061969
vn 0.615723 -0.786677 0.044980
vn -0.014356 -0.980395 0.196520
vn 0.128485 -0.980494 0.148736
vn -0.000000 -1.000000 0.000000
vn -0.148736 -0.980494 0.128485
vn -0.196520 -0.980395 -0.014356
vn -0.128485 -0.980494 -0.148736
vn 0.014356 -0.980395 -0.196520
vn 0.148736 -0.980494 -0.128485
vn 0.196520 -0.980395 0.014356
vn 0.025784 -0.999222 0.029849
vn -0.705179 0.413496 0.575972
vn -0.731725 0.421193 0.535887
vn 0.124361 -0.981738 0.143962
vn -0.945902 0.087761 0.312359
vn 0.638773 -0.212540 0.739456
vn -0.030700 0.998897 -0.035539
vn -0.207779 0.948142 -0.240529
vn -0.651993 0.072400 -0.754760
vn 0.672340 0.413496 -0.613987
vn 0.636539 0.421193 -0.646076
vn 0.446510 0.087761 -0.890464
vn -0.862217 -0.200375 0.465221
vn 0.511016 0.623632 0.591562
vn -0.814574 -0.514934 0.267045
vn 0.402273 0.788238 0.465679
vn -0.484533 -0.671278 -0.560905
vn -0.375062 -0.819034 -0.434180
vn 0.585588 -0.200375 -0.785453
vn 0.382592 -0.514934 -0.767116
vn -0.321173 0.870985 -0.371796
vn -0.388273 -0.336473 0.857922
vn -0.563081 -0.099100 0.820438
vn -0.413717 0.774252 -0.478927
vn -0.507730 -0.078623 0.857921
vn -0.530181 0.584998 -0.613748
vn 0.428753 -0.754867 0.496333
vn 0.484184 -0.671867 0.560500
vn 0.558786 -0.518968 0.646862
vn 0.905241 -0.336473 -0.259469
vn 0.893560 -0.099100 -0.437869
vn 0.922601 -0.078623 -0.377658
vn -0.311662 0.857831 0.408649
vn -0.121209 0.982660 -0.140314
vn 0.864062 0.198908 -0.462420
vn 0.546221 -0.549378 0.632318
vn 0.360539 0.834155 0.417368
vn -0.211330 0.946304 -0.244641
vn 0.449605 0.857830 -0.248964
vn -0.583084 0.198906 0.787686
vn -0.072237 0.130358 0.988832
vn 0.647989 0.131992 0.750125
vn 0.000000 1.000000 -0.000000
vn -0.031848 0.899406 0.435953
vn 0.287057 0.898428 0.332303
vn -0.750125 0.131992 0.647990
vn -0.332303 0.898428 0.287057
vn -0.988832 0.130358 -0.072237
vn -0.435953 0.899406 -0.031848
vn -0.647989 0.131992 -0.750125
vn -0.287057 0.898428 -0.332303
vn 0.072237 0.130358 -0.988832
vn 0.031848 0.899406 -0.435953
vn 0.750125 0.131992 -0.647990
vn 0.332303 0.898428 -0.287057
vn 0.988832 0.130358 0.072237
vn 0.435953 0.899406 0.031848
vn -0.020518 0.959528 0.280865
vn 0.184672 0.959268 0.213780
vn -0.021859 0.953935 0.299218
vn 0.196852 0.953583 0.227880
vn -0.213780 0.959268 0.184672
vn -0.227880 0.953583 0.196852
vn -0.280865 0.959528 -0.020518
vn -0.299217 0.953935 -0.021859
vn -0.184672 0.959268 -0.213780
vn -0.196852 0.953583 -0.227880
vn 0.020518 0.959528 -0.280865
vn 0.021859 0.953935 -0.299217
vn 0.213780 0.959268 -0.184672
vn 0.227880 0.953583 -0.196852
vn 0.280865 0.959528 0.020518
vn 0.299217 0.953935 0.021859
s 1
g Teapot01
f 1//1 4//2 5//3 2//4
f 2//4 5//3 6//5 3//6
f 4//2 7//7 8//8 5//3
f 5//3 8//8 9//9 6//5
f 7//7 10//10 11//11 8//8
f 8//8 11//11 12//12 9//9
f 10//10 13//13 14//14 11//11
f 11//11 14//14 15//15 12//12
f 13//13 16//16 17//17 14//14
f 14//14 17//17 18//18 15//15
f 16//16 19//19 20//20 17//17
f 17//17 20//20 21//21 18//18
f 19//19 22//22 23//23 20//20
f 20//20 23//23 24//24 21//21
f 22//22 1//1 2//4 23//23
f 23//23 2//4 3//6 24//24
f 3//6 6//5 27//25 25//26
f 25//26 27//25 28//27 26//28
f 6//5 9//9 29//29 27//25
f 27//25 29//29 30//30 28//27
f 9//9 12//12 31//31 29//29
f 29//29 31//31 32//32 30//30
f 12//12 15//15 33//33 31//31
f 31//31 33//33 34//34 32//32
f 15//15 18//18 35//35 33//33
f 33//33 35//35 36//36 34//34
f 18//18 21//21 37//37 35//35
f 35//35 37//37 38//38 36//36
f 21//21 24//24 39//39 37//37
f 37//37 39//39 40//40 38//38
f 24//24 3//6 25//26 39//39
f 39//39 25//26 26//28 40//40
f 26//28 28//27 43//41 41//42
f 41//42 43//41 44//43 42//44
f 28//27 30//30 45//45 43//41
f 43//41 45//45 46//46 44//43
f 30//30 32//32 47//47 45//45
f 45//45 47//47 48//48 46//46
f 32//32 34//34 49//49 47//47
f 47//47 49//49 50//50 48//48
f 34//34 36//36 51//51 49//49
f 49//49 51//51 52//52 50//50
f 36//36 38//38 53//53 51//51
f 51//51 53//53 54//54 52//52
f 38//38 40//40 55//55 53//53
f 53//53 55//55 56//56 54//54
f 40//40 26//28 41//42 55//55
f 55//55 41//42 42//44 56//56
f 42//44 44//43 59//57 57//58
f 57//58 59//57 58//59
f 44//43 46//46 60//60 59//57
f 59//57 60//60 58//59
f 46//46 48//48 61//61 60//60
f 60//60 61//61 58//59
f 48//48 50//50 62//62 61//61
f 61//61 62//62 58//59
f 50//50 52//52 63//63 62//62
f 62//62 63//63 58//59
f 52//52 54//54 64//64 63//63
f 63//63 64//64 58//59
f 54//54 56//56 65//65 64//64
f 64//64 65//65 58//59
f 56//56 42//44 57//58 65//65
f 65//65 57//58 58//59
s 2
f 66//66 69//67 70//68 67//69
f 67//69 70//68 71//70 68//71
f 69//67 72//72 73//73 70//68
f 70//68 73//73 74//74 71//70
f 72//72 75//75 76//76 73//73
f 73//73 76//76 77//77 74//74
f 75//75 66//66 67//69 76//76
f 76//76 67//69 68//71 77//77
f 68//71 71//70 80//78 78//79
f 78//79 80//78 81//80 79//81
f 71//70 74//74 82//82 80//78
f 80//78 82//82 83//83 81//80
f 74//74 77//77 84//84 82//82
f 82//82 84//84 85//85 83//83
f 77//77 68//71 78//79 84//84
f 84//84 78//79 79//81 85//85
s 3
f 86//86 89//87 90//88 87//89
f 87//89 90//88 91//90 88//91
f 89//87 92//92 93//93 90//88
f 90//88 93//93 94//94 91//90
f 92//92 95//95 96//96 93//93
f 93//93 96//96 97//97 94//94
f 95//95 86//86 87//89 96//96
f 96//96 87//89 88//91 97//97
f 88//91 91//90 100//98 98//99
f 98//99 100//98 101//100 99//101
f 91//90 94//94 102//102 100//98
f 100//98 102//102 103//103 101//100
f 94//94 97//97 104//104 102//102
f 102//102 104//104 105//105 103//103
f 97//97 88//91 98//99 104//104
f 104//104 98//99 99//101 105//105
s 4
f 109//106 107//107 106//108
f 107//107 109//106 110//109 108//110
f 111//111 109//106 106//108
f 109//106 111//111 112//112 110//109
f 113//113 111//111 106//108
f 111//111 113//113 114//114 112//112
f 115//115 113//113 106//108
f 113//113 115//115 116//116 114//114
f 117//117 115//115 106//108
f 115//115 117//117 118//118 116//116
f 119//119 117//117 106//108
f 117//117 119//119 120//120 118//118
f 121//121 119//119 106//108
f 119//119 121//121 122//122 120//120
f 107//107 121//121 106//108
f 121//121 107//107 108//110 122//122
f 108//110 110//109 125//123 123//124
f 123//124 125//123 126//125 124//126
f 110//109 112//112 127//127 125//123
f 125//123 127//127 128//128 126//125
f 112//112 114//114 129//129 127//127
f 127//127 129//129 130//130 128//128
f 114//114 116//116 131//131 129//129
f 129//129 131//131 132//132 130//130
f 116//116 118//118 133//133 131//131
f 131//131 133//133 134//134 132//132
f 118//118 120//120 135//135 133//133
f 133//133 135//135 136//136 134//134
f 120//120 122//122 137//137 135//135
f 135//135 137//137 138//138 136//136
f 122//122 108//110 123//124 137//137
f 137//137 123//124 124//126 138//138
