# ufbx:bad_uvs
# This file uses centimeters as units for non-parametric coordinates.

g default
v -10.000005 0.000000 10.000005
v -10.000005 0.000000 10.000005
v -10.000005 0.000000 10.000005
v 10.000005 0.000000 10.000005
v 10.000005 0.000000 10.000005
v 10.000005 0.000000 10.000005
v -10.000005 0.000000 -10.000005
v -10.000005 0.000000 -10.000005
v -10.000005 0.000000 -10.000005
v 10.000005 0.000000 -10.000005
v 10.000005 0.000000 -10.000005
v 10.000005 0.000000 -10.000005
v -10.000005 20.000010 10.000005
v -10.000005 20.000010 10.000005
v -10.000005 20.000010 10.000005
v 10.000005 20.000010 10.000005
v 10.000005 20.000010 10.000005
v 10.000005 20.000010 10.000005
v -10.000005 20.000010 -10.000005
v -10.000005 20.000010 -10.000005
v -10.000005 20.000010 -10.000005
v 10.000005 20.000010 -10.000005
v 10.000005 20.000010 -10.000005
v 10.000005 20.000010 -10.000005
vn 0.000000 -1.000000 0.000000
vn 0.000000 -1.000000 0.000000
vn 0.000000 -1.000000 0.000000
vn 0.000000 -1.000000 0.000000
vn 0.000000 1.000000 0.000000
vn 0.000000 1.000000 0.000000
vn 0.000000 1.000000 0.000000
vn 0.000000 1.000000 0.000000
vn 0.000000 0.000000 1.000000
vn 0.000000 0.000000 1.000000
vn 0.000000 0.000000 1.000000
vn 0.000000 0.000000 1.000000
vn 1.000000 0.000000 0.000000
vn 1.000000 0.000000 0.000000
vn 1.000000 0.000000 0.000000
vn 1.000000 0.000000 0.000000
vn 0.000000 0.000000 -1.000000
vn 0.000000 0.000000 -1.000000
vn 0.000000 0.000000 -1.000000
vn 0.000000 0.000000 -1.000000
vn -1.000000 0.000000 0.000000
vn -1.000000 0.000000 0.000000
vn -1.000000 0.000000 0.000000
vn -1.000000 0.000000 0.000000
s off
g Box01
f 1//1 7//2 10//3 4//4
f 13//5 16//6 22//7 19//8
f 2//9 5//10 17//11 14//12
f 6//13 11//14 23//15 18//16
f 12//17 8//18 20//19 24//20
f 9//21 3//22 15//23 21//24
