# This file uses centimeters as units for non-parametric coordinates.

v 13.465690 20.314008 -29.645440
v 14.446218 20.339751 -30.736568
v 14.357726 21.895297 -28.806515
v 15.338255 21.921040 -29.897643
v 12.955620 23.336675 -30.032495
v 13.936148 23.362418 -31.123622
v 12.063583 21.755386 -30.871419
v 13.044111 21.781129 -31.962547
vt 0.375000 0.000000
vt 0.625000 0.000000
vt 0.375000 0.250000
vt 0.625000 0.250000
vt 0.375000 0.500000
vt 0.625000 0.500000
vt 0.375000 0.750000
vt 0.625000 0.750000
vt 0.375000 1.000000
vt 0.625000 1.000000
vt 0.875000 0.000000
vt 0.875000 0.250000
vt 0.125000 0.000000
vt 0.125000 0.250000
vn 0.595349 -0.612024 0.520563
vn 0.595349 -0.612024 0.520563
vn 0.595349 -0.612024 0.520563
vn 0.595349 -0.612024 0.520563
vn 0.446018 0.790645 0.419462
vn 0.446018 0.790645 0.419462
vn 0.446018 0.790645 0.419462
vn 0.446018 0.790645 0.419462
vn -0.595349 0.612024 -0.520563
vn -0.595349 0.612024 -0.520563
vn -0.595349 0.612024 -0.520563
vn -0.595349 0.612024 -0.520563
vn -0.446018 -0.790645 -0.419462
vn -0.446018 -0.790645 -0.419462
vn -0.446018 -0.790645 -0.419462
vn -0.446018 -0.790645 -0.419462
vn 0.668302 0.017546 -0.743683
vn 0.668302 0.017546 -0.743683
vn 0.668302 0.017546 -0.743683
vn 0.668302 0.017546 -0.743683
vn -0.668302 -0.017546 0.743683
vn -0.668302 -0.017546 0.743683
vn -0.668302 -0.017546 0.743683
vn -0.668302 -0.017546 0.743683
g pCube1
f 1/1/1 2/2/2 4/4/3 3/3/4
f 3/3/5 4/4/6 6/6/7 5/5/8
f 5/5/9 6/6/10 8/8/11 7/7/12
f 7/7/13 8/8/14 2/10/15 1/9/16
f 2/2/17 8/11/18 6/12/19 4/4/20
f 7/13/21 1/1/22 3/3/23 5/14/24
