# This file uses centimeters as units for non-parametric coordinates.

g default
v -0.250367 -0.500000 0.500000
v 0.749633 -0.500000 0.500000
v -0.333053 -0.375000 0.500000
v 0.666947 -0.375000 0.500000
v -0.513535 -0.250000 0.500000
v 0.486465 -0.250000 0.500000
v -0.686088 -0.125000 0.500000
v 0.313912 -0.125000 0.500000
v -0.749633 0.000000 0.500000
v 0.250367 0.000000 0.500000
v -0.666947 0.125000 0.500000
v 0.333053 0.125000 0.500000
v -0.486465 0.250000 0.500000
v 0.513535 0.250000 0.500000
v -0.313912 0.375000 0.500000
v 0.686088 0.375000 0.500000
v -0.250367 0.500000 0.500000
v 0.749633 0.500000 0.500000
v -0.250367 0.500000 -0.500000
v 0.749633 0.500000 -0.500000
v -0.313912 0.375000 -0.500000
v 0.686088 0.375000 -0.500000
v -0.486465 0.250000 -0.500000
v 0.513535 0.250000 -0.500000
v -0.666947 0.125000 -0.500000
v 0.333053 0.125000 -0.500000
v -0.749633 0.000000 -0.500000
v 0.250367 0.000000 -0.500000
v -0.686088 -0.125000 -0.500000
v 0.313912 -0.125000 -0.500000
v -0.513535 -0.250000 -0.500000
v 0.486465 -0.250000 -0.500000
v -0.333053 -0.375000 -0.500000
v 0.666947 -0.375000 -0.500000
v -0.250367 -0.500000 -0.500000
v 0.749633 -0.500000 -0.500000
vt 0.375000 0.000000
vt 0.625000 0.000000
vt 0.375000 0.031250
vt 0.625000 0.031250
vt 0.375000 0.062500
vt 0.625000 0.062500
vt 0.375000 0.093750
vt 0.625000 0.093750
vt 0.375000 0.125000
vt 0.625000 0.125000
vt 0.375000 0.156250
vt 0.625000 0.156250
vt 0.375000 0.187500
vt 0.625000 0.187500
vt 0.375000 0.218750
vt 0.625000 0.218750
vt 0.375000 0.250000
vt 0.625000 0.250000
vt 0.375000 0.500000
vt 0.625000 0.500000
vt 0.375000 0.531250
vt 0.625000 0.531250
vt 0.375000 0.562500
vt 0.625000 0.562500
vt 0.375000 0.593750
vt 0.625000 0.593750
vt 0.375000 0.625000
vt 0.625000 0.625000
vt 0.375000 0.656250
vt 0.625000 0.656250
vt 0.375000 0.687500
vt 0.625000 0.687500
vt 0.375000 0.718750
vt 0.625000 0.718750
vt 0.375000 0.750000
vt 0.625000 0.750000
vt 0.375000 1.000000
vt 0.625000 1.000000
vt 0.875000 0.000000
vt 0.875000 0.031250
vt 0.875000 0.062500
vt 0.875000 0.093750
vt 0.875000 0.125000
vt 0.875000 0.156250
vt 0.875000 0.187500
vt 0.875000 0.218750
vt 0.875000 0.250000
vt 0.125000 0.000000
vt 0.125000 0.031250
vt 0.125000 0.062500
vt 0.125000 0.093750
vt 0.125000 0.125000
vt 0.125000 0.156250
vt 0.125000 0.187500
vt 0.125000 0.218750
vt 0.125000 0.250000
vn 0.000000 0.000000 1.000000
vn 0.000000 0.000000 1.000000
vn 0.000000 0.000000 1.000000
vn 0.000000 0.000000 1.000000
vn 0.000000 0.000000 1.000000
vn 0.000000 0.000000 1.000000
vn 0.000000 0.000000 1.000000
vn 0.000000 0.000000 1.000000
vn 0.000000 0.000000 1.000000
vn 0.000000 0.000000 1.000000
vn 0.000000 0.000000 1.000000
vn 0.000000 0.000000 1.000000
vn 0.000000 0.000000 1.000000
vn 0.000000 0.000000 1.000000
vn 0.000000 0.000000 1.000000
vn 0.000000 0.000000 1.000000
vn 0.000000 0.000000 1.000000
vn 0.000000 0.000000 1.000000
vn 0.000000 1.000000 0.000000
vn 0.000000 1.000000 0.000000
vn 0.000000 1.000000 0.000000
vn 0.000000 1.000000 0.000000
vn 0.000000 0.000000 -1.000000
vn 0.000000 0.000000 -1.000000
vn 0.000000 0.000000 -1.000000
vn 0.000000 0.000000 -1.000000
vn 0.000000 0.000000 -1.000000
vn 0.000000 0.000000 -1.000000
vn 0.000000 0.000000 -1.000000
vn 0.000000 0.000000 -1.000000
vn 0.000000 0.000000 -1.000000
vn 0.000000 0.000000 -1.000000
vn 0.000000 0.000000 -1.000000
vn 0.000000 0.000000 -1.000000
vn 0.000000 0.000000 -1.000000
vn 0.000000 0.000000 -1.000000
vn 0.000000 0.000000 -1.000000
vn 0.000000 0.000000 -1.000000
vn 0.000000 0.000000 -1.000000
vn 0.000000 0.000000 -1.000000
vn 0.000000 -1.000000 0.000000
vn 0.000000 -1.000000 0.000000
vn 0.000000 -1.000000 0.000000
vn 0.000000 -1.000000 0.000000
vn 0.834037 0.551708 0.000000
vn 0.834037 0.551708 0.000000
vn 0.688735 0.725013 0.000000
vn 0.688735 0.725013 0.000000
vn 0.577915 0.816097 0.000000
vn 0.577915 0.816097 0.000000
vn 0.727031 0.686604 0.000000
vn 0.727031 0.686604 0.000000
vn 0.997082 -0.076341 0.000000
vn 0.997082 -0.076341 0.000000
vn 0.688735 -0.725013 0.000000
vn 0.688735 -0.725013 0.000000
vn 0.577915 -0.816097 0.000000
vn 0.577915 -0.816097 0.000000
vn 0.727031 -0.686604 0.000000
vn 0.727031 -0.686604 0.000000
vn 0.891425 -0.453168 0.000000
vn 0.891425 -0.453168 0.000000
vn -0.834037 -0.551708 0.000000
vn -0.834037 -0.551708 0.000000
vn -0.688735 -0.725013 0.000000
vn -0.688735 -0.725013 0.000000
vn -0.577915 -0.816097 0.000000
vn -0.577915 -0.816097 0.000000
vn -0.727031 -0.686604 0.000000
vn -0.727031 -0.686604 0.000000
vn -0.997082 0.076340 0.000000
vn -0.997082 0.076340 0.000000
vn -0.688735 0.725013 0.000000
vn -0.688735 0.725013 0.000000
vn -0.577915 0.816097 0.000000
vn -0.577915 0.816097 0.000000
vn -0.727031 0.686604 0.000000
vn -0.727031 0.686604 0.000000
vn -0.891425 0.453168 0.000000
vn -0.891425 0.453168 0.000000
s 1
g pCube1
f 1/1/1 2/2/2 4/4/3 3/3/4
f 3/3/4 4/4/3 6/6/5 5/5/6
f 5/5/6 6/6/5 8/8/7 7/7/8
f 7/7/8 8/8/7 10/10/9 9/9/10
f 9/9/10 10/10/9 12/12/11 11/11/12
f 11/11/12 12/12/11 14/14/13 13/13/14
f 13/13/14 14/14/13 16/16/15 15/15/16
f 15/15/16 16/16/15 18/18/17 17/17/18
s off
f 17/17/19 18/18/20 20/20/21 19/19/22
s 2
f 19/19/23 20/20/24 22/22/25 21/21/26
f 21/21/26 22/22/25 24/24/27 23/23/28
f 23/23/28 24/24/27 26/26/29 25/25/30
f 25/25/30 26/26/29 28/28/31 27/27/32
f 27/27/32 28/28/31 30/30/33 29/29/34
f 29/29/34 30/30/33 32/32/35 31/31/36
f 31/31/36 32/32/35 34/34/37 33/33/38
f 33/33/38 34/34/37 36/36/39 35/35/40
s off
f 35/35/41 36/36/42 2/38/43 1/37/44
s 3
f 2/2/45 36/39/46 34/40/47 4/4/48
f 4/4/48 34/40/47 32/41/49 6/6/50
f 6/6/50 32/41/49 30/42/51 8/8/52
f 8/8/52 30/42/51 28/43/53 10/10/54
f 10/10/54 28/43/53 26/44/55 12/12/56
f 12/12/56 26/44/55 24/45/57 14/14/58
f 14/14/58 24/45/57 22/46/59 16/16/60
f 16/16/60 22/46/59 20/47/61 18/18/62
s 4
f 35/48/63 1/1/64 3/3/65 33/49/66
f 33/49/66 3/3/65 5/5/67 31/50/68
f 31/50/68 5/5/67 7/7/69 29/51/70
f 29/51/70 7/7/69 9/9/71 27/52/72
f 27/52/72 9/9/71 11/11/73 25/53/74
f 25/53/74 11/11/73 13/13/75 23/54/76
f 23/54/76 13/13/75 15/15/77 21/55/78
f 21/55/78 15/15/77 17/17/79 19/56/80
g default
v -0.500000 1.411241 0.500000
v 0.500000 1.411241 0.500000
v -0.449388 1.558431 0.449388
v 0.449388 1.558431 0.449388
v -0.435746 1.705620 0.435746
v 0.435746 1.705620 0.435746
v -0.429235 1.852810 0.429235
v 0.429235 1.852810 0.429235
v -0.427252 2.000000 0.427252
v 0.427252 2.000000 0.427252
v -0.429235 2.147190 0.429235
v 0.429235 2.147190 0.429235
v -0.435746 2.294380 0.435746
v 0.435746 2.294380 0.435746
v -0.449388 2.441569 0.449388
v 0.449388 2.441569 0.449388
v -0.500000 2.588759 0.500000
v 0.500000 2.588759 0.500000
v -0.500000 2.588759 -0.500000
v 0.500000 2.588759 -0.500000
v -0.449388 2.441569 -0.449388
v 0.449388 2.441569 -0.449388
v -0.435746 2.294380 -0.435746
v 0.435746 2.294380 -0.435746
v -0.429235 2.147190 -0.429235
v 0.429235 2.147190 -0.429235
v -0.427252 2.000000 -0.427252
v 0.427252 2.000000 -0.427252
v -0.429235 1.852810 -0.429235
v 0.429235 1.852810 -0.429235
v -0.435746 1.705620 -0.435746
v 0.435746 1.705620 -0.435746
v -0.449388 1.558431 -0.449388
v 0.449388 1.558431 -0.449388
v -0.500000 1.411241 -0.500000
v 0.500000 1.411241 -0.500000
vt 0.375000 0.000000
vt 0.625000 0.000000
vt 0.375000 0.031250
vt 0.625000 0.031250
vt 0.375000 0.062500
vt 0.625000 0.062500
vt 0.375000 0.093750
vt 0.625000 0.093750
vt 0.375000 0.125000
vt 0.625000 0.125000
vt 0.375000 0.156250
vt 0.625000 0.156250
vt 0.375000 0.187500
vt 0.625000 0.187500
vt 0.375000 0.218750
vt 0.625000 0.218750
vt 0.375000 0.250000
vt 0.625000 0.250000
vt 0.375000 0.500000
vt 0.625000 0.500000
vt 0.375000 0.531250
vt 0.625000 0.531250
vt 0.375000 0.562500
vt 0.625000 0.562500
vt 0.375000 0.593750
vt 0.625000 0.593750
vt 0.375000 0.625000
vt 0.625000 0.625000
vt 0.375000 0.656250
vt 0.625000 0.656250
vt 0.375000 0.687500
vt 0.625000 0.687500
vt 0.375000 0.718750
vt 0.625000 0.718750
vt 0.375000 0.750000
vt 0.625000 0.750000
vt 0.375000 1.000000
vt 0.625000 1.000000
vt 0.875000 0.000000
vt 0.875000 0.031250
vt 0.875000 0.062500
vt 0.875000 0.093750
vt 0.875000 0.125000
vt 0.875000 0.156250
vt 0.875000 0.187500
vt 0.875000 0.218750
vt 0.875000 0.250000
vt 0.125000 0.000000
vt 0.125000 0.031250
vt 0.125000 0.062500
vt 0.125000 0.093750
vt 0.125000 0.125000
vt 0.125000 0.156250
vt 0.125000 0.187500
vt 0.125000 0.218750
vt 0.125000 0.250000
vn 0.000000 0.325167 0.945657
vn 0.000000 0.325167 0.945657
vn 0.000000 0.231311 0.972880
vn 0.000000 0.231311 0.972880
vn 0.000000 0.069605 0.997575
vn 0.000000 0.069605 0.997575
vn 0.000000 0.029196 0.999574
vn 0.000000 0.029196 0.999574
vn 0.000000 0.000000 1.000000
vn 0.000000 0.000000 1.000000
vn 0.000000 -0.029196 0.999574
vn 0.000000 -0.029196 0.999574
vn 0.000000 -0.069605 0.997575
vn 0.000000 -0.069605 0.997575
vn 0.000000 -0.231311 0.972880
vn 0.000000 -0.231311 0.972880
vn 0.000000 -0.325167 0.945657
vn 0.000000 -0.325167 0.945657
vn 0.000000 1.000000 0.000000
vn 0.000000 1.000000 0.000000
vn 0.000000 1.000000 0.000000
vn 0.000000 1.000000 0.000000
vn 0.000000 -0.325167 -0.945657
vn 0.000000 -0.325167 -0.945657
vn 0.000000 -0.231311 -0.972880
vn 0.000000 -0.231311 -0.972880
vn 0.000000 -0.069605 -0.997575
vn 0.000000 -0.069605 -0.997575
vn 0.000000 -0.029196 -0.999574
vn 0.000000 -0.029196 -0.999574
vn 0.000000 -0.000000 -1.000000
vn 0.000000 -0.000000 -1.000000
vn 0.000000 0.029196 -0.999574
vn 0.000000 0.029196 -0.999574
vn 0.000000 0.069605 -0.997575
vn 0.000000 0.069605 -0.997575
vn 0.000000 0.231311 -0.972880
vn 0.000000 0.231311 -0.972880
vn 0.000000 0.325167 -0.945657
vn 0.000000 0.325167 -0.945657
vn 0.000000 -1.000000 0.000000
vn 0.000000 -1.000000 0.000000
vn 0.000000 -1.000000 0.000000
vn 0.000000 -1.000000 0.000000
vn 0.945657 0.325167 0.000000
vn 0.945657 0.325167 0.000000
vn 0.972880 0.231311 0.000000
vn 0.972880 0.231311 0.000000
vn 0.997575 0.069605 0.000000
vn 0.997575 0.069605 0.000000
vn 0.999574 0.029197 0.000000
vn 0.999574 0.029197 0.000000
vn 1.000000 0.000000 0.000000
vn 1.000000 0.000000 0.000000
vn 0.999574 -0.029197 0.000000
vn 0.999574 -0.029197 0.000000
vn 0.997575 -0.069605 0.000000
vn 0.997575 -0.069605 0.000000
vn 0.972880 -0.231311 0.000000
vn 0.972880 -0.231311 0.000000
vn 0.945657 -0.325167 0.000000
vn 0.945657 -0.325167 0.000000
vn -0.945657 0.325167 0.000000
vn -0.945657 0.325167 0.000000
vn -0.972880 0.231311 0.000000
vn -0.972880 0.231311 0.000000
vn -0.997575 0.069605 0.000000
vn -0.997575 0.069605 0.000000
vn -0.999574 0.029197 0.000000
vn -0.999574 0.029197 0.000000
vn -1.000000 0.000000 0.000000
vn -1.000000 0.000000 0.000000
vn -0.999574 -0.029197 0.000000
vn -0.999574 -0.029197 0.000000
vn -0.997575 -0.069605 0.000000
vn -0.997575 -0.069605 0.000000
vn -0.972880 -0.231311 0.000000
vn -0.972880 -0.231311 0.000000
vn -0.945657 -0.325167 0.000000
vn -0.945657 -0.325167 0.000000
s 1
g pCube2
f 37/57/81 38/58/82 40/60/83 39/59/84
f 39/59/84 40/60/83 42/62/85 41/61/86
f 41/61/86 42/62/85 44/64/87 43/63/88
f 43/63/88 44/64/87 46/66/89 45/65/90
f 45/65/90 46/66/89 48/68/91 47/67/92
f 47/67/92 48/68/91 50/70/93 49/69/94
f 49/69/94 50/70/93 52/72/95 51/71/96
f 51/71/96 52/72/95 54/74/97 53/73/98
s off
f 53/73/99 54/74/100 56/76/101 55/75/102
s 2
f 55/75/103 56/76/104 58/78/105 57/77/106
f 57/77/106 58/78/105 60/80/107 59/79/108
f 59/79/108 60/80/107 62/82/109 61/81/110
f 61/81/110 62/82/109 64/84/111 63/83/112
f 63/83/112 64/84/111 66/86/113 65/85/114
f 65/85/114 66/86/113 68/88/115 67/87/116
f 67/87/116 68/88/115 70/90/117 69/89/118
f 69/89/118 70/90/117 72/92/119 71/91/120
s off
f 71/91/121 72/92/122 38/94/123 37/93/124
s 3
f 38/58/125 72/95/126 70/96/127 40/60/128
f 40/60/128 70/96/127 68/97/129 42/62/130
f 42/62/130 68/97/129 66/98/131 44/64/132
f 44/64/132 66/98/131 64/99/133 46/66/134
f 46/66/134 64/99/133 62/100/135 48/68/136
f 48/68/136 62/100/135 60/101/137 50/70/138
f 50/70/138 60/101/137 58/102/139 52/72/140
f 52/72/140 58/102/139 56/103/141 54/74/142
s 4
f 71/104/143 37/57/144 39/59/145 69/105/146
f 69/105/146 39/59/145 41/61/147 67/106/148
f 67/106/148 41/61/147 43/63/149 65/107/150
f 65/107/150 43/63/149 45/65/151 63/108/152
f 63/108/152 45/65/151 47/67/153 61/109/154
f 61/109/154 47/67/153 49/69/155 59/110/156
f 59/110/156 49/69/155 51/71/157 57/111/158
f 57/111/158 51/71/157 53/73/159 55/112/160
