# This file uses centimeters as units for non-parametric coordinates.

v -1.000000 -0.500000 0.500000
v 1.000000 -0.500000 0.500000
v -1.000000 0.500000 0.500000
v 1.000000 0.500000 0.500000
v -1.000000 0.500000 -0.500000
v 1.000000 0.500000 -0.500000
v -1.000000 -0.500000 -0.500000
v 1.000000 -0.500000 -0.500000
vt 0.375000 0.000000
vt 0.625000 0.000000
vt 0.375000 0.250000
vt 0.625000 0.250000
vt 0.375000 0.500000
vt 0.625000 0.500000
vt 0.375000 0.750000
vt 0.625000 0.750000
vt 0.375000 1.000000
vt 0.625000 1.000000
vt 0.875000 0.000000
vt 0.875000 0.250000
vt 0.125000 0.000000
vt 0.125000 0.250000
vn 0.000000 0.000000 1.000000
vn 0.000000 0.000000 1.000000
vn 0.000000 0.000000 1.000000
vn 0.000000 0.000000 1.000000
vn 0.000000 1.000000 0.000000
vn 0.000000 1.000000 0.000000
vn 0.000000 1.000000 0.000000
vn 0.000000 1.000000 0.000000
vn 0.000000 0.000000 -1.000000
vn 0.000000 0.000000 -1.000000
vn 0.000000 0.000000 -1.000000
vn 0.000000 0.000000 -1.000000
vn 0.000000 -1.000000 0.000000
vn 0.000000 -1.000000 0.000000
vn 0.000000 -1.000000 0.000000
vn 0.000000 -1.000000 0.000000
vn 1.000000 0.000000 0.000000
vn 1.000000 0.000000 0.000000
vn 1.000000 0.000000 0.000000
vn 1.000000 0.000000 0.000000
vn -1.000000 0.000000 0.000000
vn -1.000000 0.000000 0.000000
vn -1.000000 0.000000 0.000000
vn -1.000000 0.000000 0.000000
g Parent
f 1/1/1 2/2/2 4/4/3 3/3/4
f 3/3/5 4/4/6 6/6/7 5/5/8
f 5/5/9 6/6/10 8/8/11 7/7/12
f 7/7/13 8/8/14 2/10/15 1/9/16
f 2/2/17 8/11/18 6/12/19 4/4/20
f 7/13/21 1/1/22 3/3/23 5/14/24
v 1.196957 0.694415 1.433013
v 3.646447 -0.530330 0.433013
v 2.611170 1.401522 1.433013
v 5.060660 0.176777 0.433013
v 1.904064 1.755075 0.566987
v 4.353553 0.530330 -0.433013
v 0.489850 1.047968 0.566987
v 2.939340 -0.176777 -0.433013
vt 0.375000 0.000000
vt 0.625000 0.000000
vt 0.375000 0.250000
vt 0.625000 0.250000
vt 0.375000 0.500000
vt 0.625000 0.500000
vt 0.375000 0.750000
vt 0.625000 0.750000
vt 0.375000 1.000000
vt 0.625000 1.000000
vt 0.875000 0.000000
vt 0.875000 0.250000
vt 0.125000 0.000000
vt 0.125000 0.250000
vn 0.185695 -0.371391 0.909718
vn 0.185695 -0.371391 0.909718
vn 0.185695 -0.371391 0.909718
vn 0.185695 -0.371391 0.909718
vn 0.447214 0.894427 0.000000
vn 0.447214 0.894427 0.000000
vn 0.447214 0.894427 0.000000
vn 0.447214 0.894427 0.000000
vn -0.185695 0.371391 -0.909718
vn -0.185695 0.371391 -0.909718
vn -0.185695 0.371391 -0.909718
vn -0.185695 0.371391 -0.909718
vn -0.447214 -0.894427 -0.000000
vn -0.447214 -0.894427 -0.000000
vn -0.447214 -0.894427 -0.000000
vn -0.447214 -0.894427 -0.000000
vn 0.361158 -0.722315 -0.589768
vn 0.361158 -0.722315 -0.589768
vn 0.361158 -0.722315 -0.589768
vn 0.361158 -0.722315 -0.589768
vn -0.361158 0.722315 0.589768
vn -0.361158 0.722315 0.589768
vn -0.361158 0.722315 0.589768
vn -0.361158 0.722315 0.589768
g Parent Middle
f 9/15/25 10/16/26 12/18/27 11/17/28
f 11/17/29 12/18/30 14/20/31 13/19/32
f 13/19/33 14/20/34 16/22/35 15/21/36
f 15/21/37 16/22/38 10/24/39 9/23/40
f 10/16/41 16/25/42 14/26/43 12/18/44
f 15/27/45 9/15/46 11/17/47 13/28/48
v -1.394634 1.283104 0.625000
v -0.169890 0.670731 2.125000
v 0.136297 0.517638 1.000000
v 2.352351 2.238038 1.250000
vt 0.375000 0.033494
vt 0.375000 0.466506
vt 0.750000 0.250000
vt 0.250000 0.500000
vt 0.416667 0.500000
vt 0.583333 0.500000
vt 0.750000 0.500000
vt 0.500000 1.000000
vn -0.447214 -0.894427 0.000000
vn -0.447214 -0.894427 0.000000
vn -0.447214 -0.894427 0.000000
vn -0.291155 0.778765 0.555657
vn -0.291155 0.778765 0.555657
vn -0.291155 0.778765 0.555657
vn 0.573268 -0.776456 0.261686
vn 0.573268 -0.776456 0.261686
vn 0.573268 -0.776456 0.261686
vn 0.188706 -0.101127 -0.976813
vn 0.188706 -0.101127 -0.976813
vn 0.188706 -0.101127 -0.976813
g Parent Middle Cone
f 17/29/49 19/31/50 18/30/51
f 17/32/52 18/33/53 20/36/54
f 18/33/55 19/34/56 20/36/57
f 19/34/58 17/35/59 20/36/60
