# ufbx:bad_normals
# This file uses centimeters as units for non-parametric coordinates.

g default
v -0.390625 -0.500000 -0.390625
v 0.437500 -0.500000 -0.437500
v -0.300926 0.300926 -0.300926
v 0.347222 0.347222 -0.347222
v -0.500000 0.500000 0.500000
v 0.423611 0.423611 0.423611
v -0.500000 -0.500000 0.500000
v 0.468750 -0.500000 0.468750
v 0.007812 -0.500000 -0.492188
v 0.010417 0.352865 -0.352865
v 0.000000 0.363281 0.363281
v 0.000000 -0.500000 0.500000
v -0.348958 -0.014323 -0.348958
v 0.365234 -0.003906 -0.365234
v -0.352865 0.352865 0.010417
v 0.363281 0.363281 -0.000000
v -0.365234 -0.003906 0.365234
v 0.365234 -0.003906 0.365234
v -0.492188 -0.500000 0.007812
v 0.500000 -0.500000 -0.000000
v 0.002713 -0.013455 -0.462131
v 0.001736 0.451389 0.001736
v 0.000000 -0.011719 0.464844
v 0.000977 -0.500000 0.000977
v 0.464844 -0.011719 -0.000000
v -0.462131 -0.013455 0.002713
v -0.218750 -0.500000 -0.468750
v 0.250000 -0.500000 -0.500000
v -0.192708 0.341146 -0.341146
v 0.234375 0.382812 -0.382812
v -0.234375 0.382812 0.382812
v 0.234375 0.382812 0.382812
v -0.250000 -0.500000 0.500000
v 0.250000 -0.500000 0.500000
v -0.367188 -0.250000 -0.367188
v -0.341146 0.192708 -0.341146
v 0.390625 -0.250000 -0.390625
v 0.382812 0.234375 -0.382812
v -0.341146 0.341146 -0.192708
v -0.382812 0.382812 0.234375
v 0.382812 0.382812 -0.234375
v 0.382812 0.382812 0.234375
v -0.382812 0.234375 0.382812
v -0.390625 -0.250000 0.390625
v 0.382812 0.234375 0.382812
v 0.390625 -0.250000 0.390625
v -0.500000 -0.500000 0.250000
v -0.468750 -0.500000 -0.218750
v 0.500000 -0.500000 0.250000
v 0.500000 -0.500000 -0.250000
v 0.003906 -0.250000 -0.480469
v 0.203125 -0.007812 -0.445312
v 0.006944 0.196181 -0.430556
v -0.192274 -0.014757 -0.434462
v 0.006944 0.430556 -0.196181
v 0.203125 0.437500 -0.000000
v 0.000000 0.437500 0.203125
v -0.196181 0.430556 0.006944
v 0.000000 0.203125 0.437500
v 0.203125 -0.007812 0.445312
v 0.000000 -0.250000 0.484375
v -0.203125 -0.007812 0.445312
v 0.000000 -0.500000 0.250000
v 0.250000 -0.500000 -0.000000
v 0.003906 -0.500000 -0.246094
v -0.246094 -0.500000 0.003906
v 0.484375 -0.250000 -0.000000
v 0.445312 -0.007812 0.203125
v 0.437500 0.203125 -0.000000
v 0.445312 -0.007812 -0.203125
v -0.480469 -0.250000 0.003906
v -0.434462 -0.014757 -0.192274
v -0.430556 0.196181 0.006944
v -0.445312 -0.007812 0.203125
v 0.218750 -0.250000 -0.468750
v 0.218750 0.218750 -0.437500
v -0.190972 0.190972 -0.409722
v -0.203125 -0.250000 -0.453125
v 0.218750 0.437500 -0.218750
v 0.218750 0.437500 0.218750
v -0.218750 0.437500 0.218750
v -0.190972 0.409722 -0.190972
v 0.218750 0.218750 0.437500
v 0.218750 -0.250000 0.468750
v -0.218750 -0.250000 0.468750
v -0.218750 0.218750 0.437500
v 0.250000 -0.500000 0.250000
v 0.250000 -0.500000 -0.250000
v -0.234375 -0.500000 -0.234375
v -0.250000 -0.500000 0.250000
v 0.468750 -0.250000 0.218750
v 0.437500 0.218750 0.218750
v 0.437500 0.218750 -0.218750
v 0.468750 -0.250000 -0.218750
v -0.453125 -0.250000 -0.203125
v -0.409722 0.190972 -0.190972
v -0.437500 0.218750 0.218750
v -0.468750 -0.250000 0.218750
vt 0.375000 0.000000
vt 0.625000 0.000000
vt 0.375000 0.250000
vt 0.625000 0.250000
vt 0.375000 0.500000
vt 0.625000 0.500000
vt 0.375000 0.750000
vt 0.625000 0.750000
vt 0.375000 1.000000
vt 0.625000 1.000000
vt 0.875000 0.000000
vt 0.875000 0.250000
vt 0.125000 0.000000
vt 0.125000 0.250000
vt 0.500000 0.125000
vt 0.500000 0.375000
vt 0.500000 0.625000
vt 0.500000 0.875000
vt 0.750000 0.125000
vt 0.250000 0.125000
vt 0.500000 0.000000
vt 0.625000 0.125000
vt 0.500000 0.250000
vt 0.375000 0.125000
vt 0.625000 0.375000
vt 0.500000 0.500000
vt 0.375000 0.375000
vt 0.625000 0.625000
vt 0.500000 0.750000
vt 0.375000 0.625000
vt 0.625000 0.875000
vt 0.500000 1.000000
vt 0.375000 0.875000
vt 0.750000 0.000000
vt 0.875000 0.125000
vt 0.750000 0.250000
vt 0.250000 0.000000
vt 0.250000 0.250000
vt 0.125000 0.125000
vt 0.562500 0.062500
vt 0.562500 0.187500
vt 0.437500 0.187500
vt 0.437500 0.062500
vt 0.562500 0.312500
vt 0.562500 0.437500
vt 0.437500 0.437500
vt 0.437500 0.312500
vt 0.562500 0.562500
vt 0.562500 0.687500
vt 0.437500 0.687500
vt 0.437500 0.562500
vt 0.562500 0.812500
vt 0.562500 0.937500
vt 0.437500 0.937500
vt 0.437500 0.812500
vt 0.812500 0.062500
vt 0.812500 0.187500
vt 0.687500 0.187500
vt 0.687500 0.062500
vt 0.312500 0.062500
vt 0.312500 0.187500
vt 0.187500 0.187500
vt 0.187500 0.062500
vt 0.562500 0.000000
vt 0.625000 0.062500
vt 0.562500 0.125000
vt 0.500000 0.062500
vt 0.625000 0.187500
vt 0.562500 0.250000
vt 0.500000 0.187500
vt 0.437500 0.250000
vt 0.375000 0.187500
vt 0.437500 0.125000
vt 0.375000 0.062500
vt 0.437500 0.000000
vt 0.625000 0.312500
vt 0.562500 0.375000
vt 0.500000 0.312500
vt 0.625000 0.437500
vt 0.562500 0.500000
vt 0.500000 0.437500
vt 0.437500 0.500000
vt 0.375000 0.437500
vt 0.437500 0.375000
vt 0.375000 0.312500
vt 0.625000 0.562500
vt 0.562500 0.625000
vt 0.500000 0.562500
vt 0.625000 0.687500
vt 0.562500 0.750000
vt 0.500000 0.687500
vt 0.437500 0.750000
vt 0.375000 0.687500
vt 0.437500 0.625000
vt 0.375000 0.562500
vt 0.625000 0.812500
vt 0.562500 0.875000
vt 0.500000 0.812500
vt 0.625000 0.937500
vt 0.562500 1.000000
vt 0.500000 0.937500
vt 0.437500 1.000000
vt 0.375000 0.937500
vt 0.437500 0.875000
vt 0.375000 0.812500
vt 0.812500 0.000000
vt 0.875000 0.062500
vt 0.812500 0.125000
vt 0.750000 0.062500
vt 0.875000 0.187500
vt 0.812500 0.250000
vt 0.750000 0.187500
vt 0.687500 0.250000
vt 0.687500 0.125000
vt 0.687500 0.000000
vt 0.312500 0.000000
vt 0.312500 0.125000
vt 0.250000 0.062500
vt 0.312500 0.250000
vt 0.250000 0.187500
vt 0.187500 0.250000
vt 0.125000 0.187500
vt 0.187500 0.125000
vt 0.125000 0.062500
vt 0.187500 0.000000
vn 0.145052 -0.627707 -0.764816
vn 0.610180 -0.505332 -0.610180
vn 0.695881 0.177483 -0.695881
vn 0.201359 0.124165 -0.971616
vn 0.706351 0.046237 -0.706351
vn 0.213889 0.071020 -0.974273
vn -0.040877 0.097540 -0.994392
vn -0.043180 0.078092 -0.996011
vn -0.037572 -0.688585 -0.724181
vn 0.704400 0.087419 -0.704400
vn 0.577350 0.577350 -0.577350
vn 0.043494 0.706438 -0.706438
vn 0.132056 0.167064 -0.977063
vn -0.116575 0.702286 -0.702286
vn -0.074572 0.243471 -0.967037
vn -0.212204 0.691003 -0.691003
vn -0.577350 0.577350 -0.577350
vn -0.692623 0.201361 -0.692623
vn -0.249784 0.240199 -0.938036
vn -0.703960 0.094241 -0.703960
vn -0.285690 0.099725 -0.953119
vn -0.703109 0.106187 -0.703109
vn -0.608431 -0.509533 -0.608431
vn -0.212051 -0.631352 -0.745942
vn -0.280767 0.084262 -0.956070
vn 0.705071 0.705071 -0.075825
vn 0.125406 0.980265 -0.152822
vn 0.707107 0.707107 -0.000000
vn 0.184506 0.982821 -0.004616
vn -0.026147 0.999316 -0.026147
vn -0.072186 0.970924 -0.228246
vn 0.706932 0.706932 -0.022244
vn 0.577350 0.577350 0.577350
vn -0.022244 0.706932 0.706932
vn 0.103834 0.989160 0.103834
vn 0.000000 0.707107 0.707107
vn -0.004616 0.982821 0.184506
vn 0.123758 0.701671 0.701671
vn -0.577350 0.577350 0.577350
vn -0.698664 0.698664 -0.154070
vn -0.074458 0.995968 0.050049
vn -0.702286 0.702286 -0.116575
vn -0.228246 0.970924 -0.072186
vn -0.691003 0.691003 -0.212203
vn -0.237608 0.941852 -0.237608
vn 0.707074 -0.009615 0.707074
vn 0.112462 0.120072 0.986375
vn 0.706351 0.046237 0.706351
vn 0.221788 0.068797 0.972665
vn 0.000000 0.085245 0.996360
vn 0.000000 0.208898 0.977938
vn 0.689307 0.222963 0.689307
vn 0.617974 -0.486021 0.617974
vn 0.115627 -0.652801 0.748653
vn 0.188354 0.143027 0.971631
vn 0.000000 -0.696566 0.717493
vn -0.000000 0.093700 0.995601
vn -0.082002 -0.670691 0.737190
vn -0.623237 -0.472388 0.623237
vn -0.681260 0.267897 0.681260
vn -0.167224 0.158538 0.973089
vn -0.706351 0.046237 0.706351
vn -0.221788 0.068797 0.972665
vn -0.702800 -0.110204 0.702800
vn -0.077278 0.084491 0.993423
vn 0.748653 -0.652801 0.115627
vn 0.000000 -1.000000 -0.000000
vn 0.717493 -0.696566 -0.000000
vn 0.000000 -1.000000 -0.000000
vn 0.000000 -1.000000 -0.000000
vn 0.000000 -1.000000 -0.000000
vn 0.759058 -0.633037 -0.151974
vn 0.000000 -1.000000 -0.000000
vn 0.000000 -1.000000 -0.000000
vn -0.745942 -0.631352 -0.212051
vn 0.000000 -1.000000 -0.000000
vn -0.724181 -0.688585 -0.037572
vn 0.000000 -1.000000 -0.000000
vn -0.741688 -0.666599 0.074467
vn 0.000000 -1.000000 -0.000000
vn 0.971631 0.143027 0.188354
vn 0.972665 0.068797 0.221788
vn 0.996360 0.085245 -0.000000
vn 0.995601 0.093700 -0.000000
vn 0.986375 0.120072 0.112462
vn 0.977938 0.208898 -0.000000
vn 0.975563 0.159328 -0.151298
vn 0.972665 0.068797 -0.221788
vn 0.969418 0.126880 -0.210074
vn -0.956070 0.084262 -0.280766
vn -0.953119 0.099725 -0.285690
vn -0.994392 0.097540 -0.040877
vn -0.996011 0.078092 -0.043180
vn -0.938036 0.240199 -0.249784
vn -0.967037 0.243471 -0.074572
vn -0.994327 0.089221 0.057909
vn -0.974273 0.071020 0.213889
vn -0.974965 0.156327 0.158130
s 1
g pCube1
f 28/64/1 75/40/4 37/65/3 2/2/2
f 37/65/3 75/40/4 52/66/6 14/22/5
f 52/66/6 75/40/4 51/67/8 21/15/7
f 51/67/8 75/40/4 28/64/1 9/21/9
f 38/68/10 76/41/13 30/69/12 4/4/11
f 30/69/12 76/41/13 53/70/15 10/23/14
f 53/70/15 76/41/13 52/66/6 21/15/7
f 52/66/6 76/41/13 38/68/10 14/22/5
f 29/71/16 77/42/19 36/72/18 3/3/17
f 36/72/18 77/42/19 54/73/21 13/24/20
f 54/73/21 77/42/19 53/70/15 21/15/7
f 53/70/15 77/42/19 29/71/16 10/23/14
f 35/74/22 78/43/25 27/75/24 1/1/23
f 27/75/24 78/43/25 51/67/8 9/21/9
f 51/67/8 78/43/25 54/73/21 21/15/7
f 54/73/21 78/43/25 35/74/22 13/24/20
f 30/69/12 79/44/27 41/76/26 4/4/11
f 41/76/26 79/44/27 56/77/29 16/25/28
f 56/77/29 79/44/27 55/78/31 22/16/30
f 55/78/31 79/44/27 30/69/12 10/23/14
f 42/79/32 80/45/35 32/80/34 6/6/33
f 32/80/34 80/45/35 57/81/37 11/26/36
f 57/81/37 80/45/35 56/77/29 22/16/30
f 56/77/29 80/45/35 42/79/32 16/25/28
f 31/82/38 81/46/41 40/83/40 5/5/39
f 40/83/40 81/46/41 58/84/43 15/27/42
f 58/84/43 81/46/41 57/81/37 22/16/30
f 57/81/37 81/46/41 31/82/38 11/26/36
f 39/85/44 82/47/45 29/71/16 3/3/17
f 29/71/16 82/47/45 55/78/31 10/23/14
f 55/78/31 82/47/45 58/84/43 22/16/30
f 58/84/43 82/47/45 39/85/44 15/27/42
f 32/80/34 83/48/47 45/86/46 6/6/33
f 45/86/46 83/48/47 60/87/49 18/28/48
f 60/87/49 83/48/47 59/88/51 23/17/50
f 59/88/51 83/48/47 32/80/34 11/26/36
f 46/89/52 84/49/55 34/90/54 8/8/53
f 34/90/54 84/49/55 61/91/57 12/29/56
f 61/91/57 84/49/55 60/87/49 23/17/50
f 60/87/49 84/49/55 46/89/52 18/28/48
f 33/92/58 85/50/61 44/93/60 7/7/59
f 44/93/60 85/50/61 62/94/63 17/30/62
f 62/94/63 85/50/61 61/91/57 23/17/50
f 61/91/57 85/50/61 33/92/58 12/29/56
f 43/95/64 86/51/65 31/82/38 5/5/39
f 31/82/38 86/51/65 59/88/51 11/26/36
f 59/88/51 86/51/65 62/94/63 23/17/50
f 62/94/63 86/51/65 43/95/64 17/30/62
f 34/90/54 87/52/67 49/96/66 8/8/53
f 49/96/66 87/52/67 64/97/69 20/31/68
f 64/97/69 87/52/67 63/98/71 24/18/70
f 63/98/71 87/52/67 34/90/54 12/29/56
f 50/99/72 88/53/73 28/100/1 2/10/2
f 28/100/1 88/53/73 65/101/74 9/32/9
f 65/101/74 88/53/73 64/97/69 24/18/70
f 64/97/69 88/53/73 50/99/72 20/31/68
f 27/102/24 89/54/76 48/103/75 1/9/23
f 48/103/75 89/54/76 66/104/78 19/33/77
f 66/104/78 89/54/76 65/101/74 24/18/70
f 65/101/74 89/54/76 27/102/24 9/32/9
f 47/105/79 90/55/80 33/92/58 7/7/59
f 33/92/58 90/55/80 63/98/71 12/29/56
f 63/98/71 90/55/80 66/104/78 24/18/70
f 66/104/78 90/55/80 47/105/79 19/33/77
f 49/106/66 91/56/81 46/107/52 8/11/53
f 46/107/52 91/56/81 68/108/82 18/35/48
f 68/108/82 91/56/81 67/109/84 25/19/83
f 67/109/84 91/56/81 49/106/66 20/34/68
f 45/110/46 92/57/85 42/111/32 6/12/33
f 42/111/32 92/57/85 69/112/86 16/36/28
f 69/112/86 92/57/85 68/108/82 25/19/83
f 68/108/82 92/57/85 45/110/46 18/35/48
f 41/113/26 93/58/87 38/68/10 4/4/11
f 38/68/10 93/58/87 70/114/88 14/22/5
f 70/114/88 93/58/87 69/112/86 25/19/83
f 69/112/86 93/58/87 41/113/26 16/36/28
f 37/65/3 94/59/89 50/115/72 2/2/2
f 50/115/72 94/59/89 67/109/84 20/34/68
f 67/109/84 94/59/89 70/114/88 25/19/83
f 70/114/88 94/59/89 37/65/3 14/22/5
f 48/116/75 95/60/90 35/74/22 1/1/23
f 35/74/22 95/60/90 72/117/91 13/24/20
f 72/117/91 95/60/90 71/118/93 26/20/92
f 71/118/93 95/60/90 48/116/75 19/37/77
f 36/72/18 96/61/94 39/119/44 3/3/17
f 39/119/44 96/61/94 73/120/95 15/38/42
f 73/120/95 96/61/94 72/117/91 26/20/92
f 72/117/91 96/61/94 36/72/18 13/24/20
f 40/121/40 97/62/96 43/122/64 5/14/39
f 43/122/64 97/62/96 74/123/97 17/39/62
f 74/123/97 97/62/96 73/120/95 26/20/92
f 73/120/95 97/62/96 40/121/40 15/38/42
f 44/124/60 98/63/98 47/125/79 7/13/59
f 47/125/79 98/63/98 71/118/93 19/37/77
f 71/118/93 98/63/98 74/123/97 26/20/92
f 74/123/97 98/63/98 44/124/60 17/39/62
