# ufbx:transform_skin
# This file uses centimeters as units for non-parametric coordinates.

v 3.746986 0.002832 3.645998
v 4.667565 0.011455 3.264682
v 3.810025 0.993798 3.619886
v 4.706239 1.066092 3.248662
v 3.797466 1.822139 3.625088
v 4.585217 2.177861 3.298791
v 3.258509 2.412321 3.848332
v 3.936390 3.055146 3.567544
v 2.565324 3.066423 4.135458
v 3.220265 3.769192 3.864173
v 2.182640 3.066423 3.211579
v 2.837582 3.769192 2.940293
v 2.875825 2.412321 2.924452
v 3.553707 3.055146 2.643665
v 3.414783 1.822139 2.701209
v 4.202534 2.177861 2.374912
v 3.427342 0.993798 2.696007
v 4.323556 1.066092 2.324783
v 3.364302 0.002832 2.722119
v 4.284882 0.011455 2.340802
vt 0.375000 0.000000
vt 0.625000 0.000000
vt 0.375000 0.062500
vt 0.625000 0.062500
vt 0.375000 0.125000
vt 0.625000 0.125000
vt 0.375000 0.187500
vt 0.625000 0.187500
vt 0.375000 0.250000
vt 0.625000 0.250000
vt 0.375000 0.500000
vt 0.625000 0.500000
vt 0.375000 0.562500
vt 0.625000 0.562500
vt 0.375000 0.625000
vt 0.625000 0.625000
vt 0.375000 0.687500
vt 0.625000 0.687500
vt 0.375000 0.750000
vt 0.625000 0.750000
vt 0.375000 1.000000
vt 0.625000 1.000000
vt 0.875000 0.000000
vt 0.875000 0.062500
vt 0.875000 0.125000
vt 0.875000 0.187500
vt 0.875000 0.250000
vt 0.125000 0.000000
vt 0.125000 0.062500
vt 0.125000 0.125000
vt 0.125000 0.187500
vt 0.125000 0.250000
vn 0.382683 0.000000 0.923880
vn 0.382683 0.000000 0.923880
vn 0.382683 0.000000 0.923880
vn 0.382683 0.000000 0.923880
vn 0.382683 0.000000 0.923880
vn 0.382683 0.000000 0.923880
vn 0.382683 0.000000 0.923880
vn 0.382683 0.000000 0.923880
vn 0.382683 0.000000 0.923880
vn 0.382683 0.000000 0.923880
vn -0.650436 0.710173 0.269420
vn -0.650436 0.710173 0.269420
vn -0.650436 0.710173 0.269420
vn -0.650436 0.710173 0.269420
vn -0.382683 0.000000 -0.923880
vn -0.382683 0.000000 -0.923880
vn -0.382683 0.000000 -0.923880
vn -0.382683 0.000000 -0.923880
vn -0.382683 0.000000 -0.923880
vn -0.382683 0.000000 -0.923880
vn -0.382683 0.000000 -0.923880
vn -0.382683 0.000000 -0.923880
vn -0.382683 0.000000 -0.923880
vn -0.382683 0.000000 -0.923880
vn 0.007995 -0.999963 -0.003312
vn 0.007995 -0.999963 -0.003312
vn 0.007995 -0.999963 -0.003312
vn 0.007995 -0.999963 -0.003312
vn 0.923153 -0.039661 -0.382382
vn 0.923153 -0.039661 -0.382382
vn 0.923099 0.041109 -0.382360
vn 0.923099 0.041109 -0.382360
vn 0.852125 0.386395 -0.352962
vn 0.852125 0.386395 -0.352962
vn 0.677066 0.680389 -0.280450
vn 0.677066 0.680389 -0.280450
vn 0.625959 0.735492 -0.259281
vn 0.625959 0.735492 -0.259281
vn -0.921697 0.068693 0.381779
vn -0.921697 0.068693 0.381779
vn -0.923463 0.030020 0.382511
vn -0.923463 0.030020 0.382511
vn -0.851548 -0.387883 0.352723
vn -0.851548 -0.387883 0.352723
vn -0.630253 -0.731183 0.261060
vn -0.630253 -0.731183 0.261060
vn -0.607111 -0.753775 0.251474
vn -0.607111 -0.753775 0.251474
g pCube1
f 1/1/1 2/2/2 4/4/3 3/3/4
f 3/3/4 4/4/3 6/6/5 5/5/6
f 5/5/6 6/6/5 8/8/7 7/7/8
f 7/7/8 8/8/7 10/10/9 9/9/10
f 9/9/11 10/10/12 12/12/13 11/11/14
f 11/11/15 12/12/16 14/14/17 13/13/18
f 13/13/18 14/14/17 16/16/19 15/15/20
f 15/15/20 16/16/19 18/18/21 17/17/22
f 17/17/22 18/18/21 20/20/23 19/19/24
f 19/19/25 20/20/26 2/22/27 1/21/28
f 2/2/29 20/23/30 18/24/31 4/4/32
f 4/4/32 18/24/31 16/25/33 6/6/34
f 6/6/34 16/25/33 14/26/35 8/8/36
f 8/8/36 14/26/35 12/27/37 10/10/38
f 19/28/39 1/1/40 3/3/41 17/29/42
f 17/29/42 3/3/41 5/5/43 15/30/44
f 15/30/44 5/5/43 7/7/45 13/31/46
f 13/31/46 7/7/45 9/9/47 11/32/48
v 1.722119 0.002124 -2.635698
v 1.340802 0.008592 -1.715118
v 1.696007 0.745349 -2.572658
v 1.324783 0.799569 -1.676444
v 1.701209 1.366604 -2.585217
v 1.374912 1.633396 -1.797466
v 1.924452 1.809241 -3.124175
v 1.643665 2.291359 -2.446293
v 2.211579 2.299817 -3.817360
v 1.940293 2.826894 -3.162418
v 3.135458 2.299817 -3.434676
v 2.864173 2.826894 -2.779735
v 2.848332 1.809241 -2.741491
v 2.567544 2.291359 -2.063610
v 2.625088 1.366604 -2.202534
v 2.298791 1.633396 -1.414783
v 2.619886 0.745349 -2.189975
v 2.248662 0.799569 -1.293761
v 2.645998 0.002124 -2.253014
v 2.264682 0.008592 -1.332435
vt 0.375000 0.000000
vt 0.625000 0.000000
vt 0.375000 0.062500
vt 0.625000 0.062500
vt 0.375000 0.125000
vt 0.625000 0.125000
vt 0.375000 0.187500
vt 0.625000 0.187500
vt 0.375000 0.250000
vt 0.625000 0.250000
vt 0.375000 0.500000
vt 0.625000 0.500000
vt 0.375000 0.562500
vt 0.625000 0.562500
vt 0.375000 0.625000
vt 0.625000 0.625000
vt 0.375000 0.687500
vt 0.625000 0.687500
vt 0.375000 0.750000
vt 0.625000 0.750000
vt 0.375000 1.000000
vt 0.625000 1.000000
vt 0.875000 0.000000
vt 0.875000 0.062500
vt 0.875000 0.125000
vt 0.875000 0.187500
vt 0.875000 0.250000
vt 0.125000 0.000000
vt 0.125000 0.062500
vt 0.125000 0.125000
vt 0.125000 0.187500
vt 0.125000 0.250000
vn -0.923880 0.000000 -0.382683
vn -0.923880 0.000000 -0.382683
vn -0.923880 0.000000 -0.382683
vn -0.923880 0.000000 -0.382683
vn -0.923880 0.000000 -0.382683
vn -0.923880 0.000000 -0.382683
vn -0.923880 0.000000 -0.382683
vn -0.923880 0.000000 -0.382683
vn -0.923880 0.000000 -0.382683
vn -0.923880 0.000000 -0.382683
vn 0.228332 0.802493 -0.551243
vn 0.228332 0.802493 -0.551243
vn 0.228332 0.802493 -0.551243
vn 0.228332 0.802493 -0.551243
vn 0.923880 0.000000 0.382683
vn 0.923880 0.000000 0.382683
vn 0.923880 0.000000 0.382683
vn 0.923880 0.000000 0.382683
vn 0.923880 0.000000 0.382683
vn 0.923880 0.000000 0.382683
vn 0.923880 0.000000 0.382683
vn 0.923880 0.000000 0.382683
vn 0.923880 0.000000 0.382683
vn 0.923880 0.000000 0.382683
vn -0.002484 -0.999979 0.005996
vn -0.002484 -0.999979 0.005996
vn -0.002484 -0.999979 0.005996
vn -0.002484 -0.999979 0.005996
vn -0.382149 -0.052848 0.922589
vn -0.382149 -0.052848 0.922589
vn -0.382109 0.054775 0.922493
vn -0.382109 0.054775 0.922493
vn -0.334096 0.487657 0.806580
vn -0.334096 0.487657 0.806580
vn -0.240479 0.777889 0.580567
vn -0.240479 0.777889 0.580567
vn -0.217527 0.822735 0.525157
vn -0.217527 0.822735 0.525157
vn 0.381081 0.091423 -0.920011
vn 0.381081 0.091423 -0.920011
vn 0.382377 0.040013 -0.923140
vn 0.382377 0.040013 -0.923140
vn 0.333736 -0.489338 -0.805710
vn 0.333736 -0.489338 -0.805710
vn 0.219399 -0.819333 -0.529677
vn 0.219399 -0.819333 -0.529677
vn 0.209422 -0.836971 -0.505590
vn 0.209422 -0.836971 -0.505590
g pCube2
f 21/33/49 22/34/50 24/36/51 23/35/52
f 23/35/52 24/36/51 26/38/53 25/37/54
f 25/37/54 26/38/53 28/40/55 27/39/56
f 27/39/56 28/40/55 30/42/57 29/41/58
f 29/41/59 30/42/60 32/44/61 31/43/62
f 31/43/63 32/44/64 34/46/65 33/45/66
f 33/45/66 34/46/65 36/48/67 35/47/68
f 35/47/68 36/48/67 38/50/69 37/49/70
f 37/49/70 38/50/69 40/52/71 39/51/72
f 39/51/73 40/52/74 22/54/75 21/53/76
f 22/34/77 40/55/78 38/56/79 24/36/80
f 24/36/80 38/56/79 36/57/81 26/38/82
f 26/38/82 36/57/81 34/58/83 28/40/84
f 28/40/84 34/58/83 32/59/85 30/42/86
f 39/60/87 21/33/88 23/35/89 37/61/90
f 37/61/90 23/35/89 25/37/91 35/62/92
f 35/62/92 25/37/91 27/39/93 33/63/94
f 33/63/94 27/39/93 29/41/95 31/64/96
