# This file uses centimeters as units for non-parametric coordinates.

mtllib maya_anim_layers_over_acc_orders_18.mtl
g default
v 3.462311 9.603509 5.517389
v 3.511605 9.613827 4.507791
v 0.061068 13.058423 5.386632
v 0.110362 13.068741 4.377033
v -3.393458 9.649859 5.183127
v -3.344164 9.660178 4.173528
v 0.007785 6.194946 5.313884
v 0.057079 6.205264 4.304285
vt 0.375000 0.000000
vt 0.625000 0.000000
vt 0.375000 0.250000
vt 0.625000 0.250000
vt 0.375000 0.500000
vt 0.625000 0.500000
vt 0.375000 0.750000
vt 0.625000 0.750000
vt 0.375000 1.000000
vt 0.625000 1.000000
vt 0.875000 0.000000
vt 0.875000 0.250000
vt 0.125000 0.000000
vt 0.125000 0.250000
vn 0.711201 0.701739 0.041897
vn 0.711201 0.701739 0.041897
vn 0.711201 0.701739 0.041897
vn 0.711201 0.701739 0.041897
vn -0.701295 0.712361 -0.026961
vn -0.701295 0.712361 -0.026961
vn -0.701295 0.712361 -0.026961
vn -0.701295 0.712361 -0.026961
vn -0.711201 -0.701739 -0.041897
vn -0.711201 -0.701739 -0.041897
vn -0.711201 -0.701739 -0.041897
vn -0.711201 -0.701739 -0.041897
vn 0.701295 -0.712361 0.026961
vn 0.701295 -0.712361 0.026961
vn 0.701295 -0.712361 0.026961
vn 0.701295 -0.712361 0.026961
vn 0.048765 0.010208 -0.998758
vn 0.048765 0.010208 -0.998758
vn 0.048765 0.010208 -0.998758
vn 0.048765 0.010208 -0.998758
vn -0.048765 -0.010208 0.998758
vn -0.048765 -0.010208 0.998758
vn -0.048765 -0.010208 0.998758
vn -0.048765 -0.010208 0.998758
s off
g XYZ
usemtl pCube1SG
f 1/1/1 2/2/2 4/4/3 3/3/4
f 3/3/5 4/4/6 6/6/7 5/5/8
f 5/5/9 6/6/10 8/8/11 7/7/12
f 7/7/13 8/8/14 2/10/15 1/9/16
f 2/2/17 8/11/18 6/12/19 4/4/20
f 7/13/21 1/1/22 3/3/23 5/14/24
g default
v 2.905441 8.388087 6.389991
v 2.954735 7.850429 5.535404
v 1.911780 12.380044 3.821159
v 1.961074 11.842386 2.966572
v -2.836588 11.413258 4.155513
v -2.787294 10.875599 3.300926
v -1.842927 7.421301 6.724345
v -1.793633 6.883643 5.869758
vt 0.375000 0.000000
vt 0.625000 0.000000
vt 0.375000 0.250000
vt 0.625000 0.250000
vt 0.375000 0.500000
vt 0.625000 0.500000
vt 0.375000 0.750000
vt 0.625000 0.750000
vt 0.375000 1.000000
vt 0.625000 1.000000
vt 0.875000 0.000000
vt 0.875000 0.250000
vt 0.125000 0.000000
vt 0.125000 0.250000
vn 0.977571 0.199037 -0.068835
vn 0.977571 0.199037 -0.068835
vn 0.977571 0.199037 -0.068835
vn 0.977571 0.199037 -0.068835
vn -0.204881 0.823093 -0.529662
vn -0.204881 0.823093 -0.529662
vn -0.204881 0.823093 -0.529662
vn -0.204881 0.823093 -0.529662
vn -0.977571 -0.199037 0.068835
vn -0.977571 -0.199037 0.068835
vn -0.977571 -0.199037 0.068835
vn -0.977571 -0.199037 0.068835
vn 0.204881 -0.823093 0.529662
vn 0.204881 -0.823093 0.529662
vn 0.204881 -0.823093 0.529662
vn 0.204881 -0.823093 0.529662
vn 0.048765 -0.531885 -0.845411
vn 0.048765 -0.531885 -0.845411
vn 0.048765 -0.531885 -0.845411
vn 0.048765 -0.531885 -0.845411
vn -0.048765 0.531885 0.845411
vn -0.048765 0.531885 0.845411
vn -0.048765 0.531885 0.845411
vn -0.048765 0.531885 0.845411
s off
g YZX
usemtl pCube1SG
f 9/15/25 10/16/26 12/18/27 11/17/28
f 11/17/29 12/18/30 14/20/31 13/19/32
f 13/19/33 14/20/34 16/22/35 15/21/36
f 15/21/37 16/22/38 10/24/39 9/23/40
f 10/16/41 16/25/42 14/26/43 12/18/44
f 15/27/45 9/15/46 11/17/47 13/28/48
g default
v 3.437764 8.863030 5.011872
v 3.375125 9.037191 4.018107
v 0.822616 12.854987 5.876315
v 0.759977 13.029148 4.882550
v -3.256977 10.226496 5.672810
v -3.319617 10.400656 4.679045
v -0.641830 6.234539 4.808367
v -0.704469 6.408700 3.814602
vt 0.375000 0.000000
vt 0.625000 0.000000
vt 0.375000 0.250000
vt 0.625000 0.250000
vt 0.375000 0.500000
vt 0.625000 0.500000
vt 0.375000 0.750000
vt 0.625000 0.750000
vt 0.375000 1.000000
vt 0.625000 1.000000
vt 0.875000 0.000000
vt 0.875000 0.250000
vt 0.125000 0.000000
vt 0.125000 0.250000
vn 0.839887 0.541141 0.041897
vn 0.839887 0.541141 0.041897
vn 0.839887 0.541141 0.041897
vn 0.839887 0.541141 0.041897
vn -0.539212 0.823093 0.178238
vn -0.539212 0.823093 0.178238
vn -0.539212 0.823093 0.178238
vn -0.539212 0.823093 0.178238
vn -0.839887 -0.541141 -0.041897
vn -0.839887 -0.541141 -0.041897
vn -0.839887 -0.541141 -0.041897
vn -0.839887 -0.541141 -0.041897
vn 0.539212 -0.823093 -0.178238
vn 0.539212 -0.823093 -0.178238
vn 0.539212 -0.823093 -0.178238
vn 0.539212 -0.823093 -0.178238
vn -0.061967 0.172291 -0.983095
vn -0.061967 0.172291 -0.983095
vn -0.061967 0.172291 -0.983095
vn -0.061967 0.172291 -0.983095
vn 0.061967 -0.172291 0.983095
vn 0.061967 -0.172291 0.983095
vn 0.061967 -0.172291 0.983095
vn 0.061967 -0.172291 0.983095
s off
g ZXY
usemtl pCube1SG
f 17/29/49 18/30/50 20/32/51 19/31/52
f 19/31/53 20/32/54 22/34/55 21/33/56
f 21/33/57 22/34/58 24/36/59 23/35/60
f 23/35/61 24/36/62 18/38/63 17/37/64
f 18/30/65 24/39/66 22/40/67 20/32/68
f 23/41/69 17/29/70 19/31/71 21/42/72
g default
v 3.392247 8.818679 5.358328
v 3.441541 9.025784 4.370147
v 0.729370 12.810636 6.062134
v 0.778664 13.017740 5.073952
v -3.323394 10.237903 5.320770
v -3.274100 10.445007 4.332589
v -0.660516 6.245947 4.616965
v -0.611222 6.453051 3.628783
vt 0.375000 0.000000
vt 0.625000 0.000000
vt 0.375000 0.250000
vt 0.625000 0.250000
vt 0.375000 0.500000
vt 0.625000 0.500000
vt 0.375000 0.750000
vt 0.625000 0.750000
vt 0.375000 1.000000
vt 0.625000 1.000000
vt 0.875000 0.000000
vt 0.875000 0.250000
vt 0.125000 0.000000
vt 0.125000 0.250000
vn 0.834364 0.529662 0.152628
vn 0.834364 0.529662 0.152628
vn 0.834364 0.529662 0.152628
vn 0.834364 0.529662 0.152628
vn -0.549053 0.823093 0.145116
vn -0.549053 0.823093 0.145116
vn -0.549053 0.823093 0.145116
vn -0.549053 0.823093 0.145116
vn -0.834364 -0.529662 -0.152628
vn -0.834364 -0.529662 -0.152628
vn -0.834364 -0.529662 -0.152628
vn -0.834364 -0.529662 -0.152628
vn 0.549053 -0.823093 -0.145116
vn 0.549053 -0.823093 -0.145116
vn 0.549053 -0.823093 -0.145116
vn 0.549053 -0.823093 -0.145116
vn 0.048765 0.204881 -0.977571
vn 0.048765 0.204881 -0.977571
vn 0.048765 0.204881 -0.977571
vn 0.048765 0.204881 -0.977571
vn -0.048765 -0.204881 0.977571
vn -0.048765 -0.204881 0.977571
vn -0.048765 -0.204881 0.977571
vn -0.048765 -0.204881 0.977571
s off
g XZY
usemtl pCube1SG
f 25/43/73 26/44/74 28/46/75 27/45/76
f 27/45/77 28/46/78 30/48/79 29/47/80
f 29/47/81 30/48/82 32/50/83 31/49/84
f 31/49/85 32/50/86 26/52/87 25/51/88
f 26/44/89 32/53/90 30/54/91 28/46/92
f 31/55/93 25/43/94 27/45/95 29/56/96
g default
v 2.757029 8.459135 6.683966
v 2.918257 7.934707 5.834962
v 1.921428 12.451091 4.059460
v 2.082656 11.926664 3.210456
v -2.800109 11.328980 3.855955
v -2.638882 10.804552 3.006951
v -1.964509 7.337023 6.480461
v -1.803281 6.812596 5.631457
vt 0.375000 0.000000
vt 0.625000 0.000000
vt 0.375000 0.250000
vt 0.625000 0.250000
vt 0.375000 0.500000
vt 0.625000 0.500000
vt 0.375000 0.750000
vt 0.625000 0.750000
vt 0.375000 1.000000
vt 0.625000 1.000000
vt 0.875000 0.000000
vt 0.875000 0.250000
vt 0.125000 0.000000
vt 0.125000 0.250000
vn 0.972048 0.231015 0.041897
vn 0.972048 0.231015 0.041897
vn 0.972048 0.231015 0.041897
vn 0.972048 0.231015 0.041897
vn -0.172291 0.823093 -0.541141
vn -0.172291 0.823093 -0.541141
vn -0.172291 0.823093 -0.541141
vn -0.172291 0.823093 -0.541141
vn -0.972048 -0.231015 -0.041897
vn -0.972048 -0.231015 -0.041897
vn -0.972048 -0.231015 -0.041897
vn -0.972048 -0.231015 -0.041897
vn 0.172291 -0.823093 0.541141
vn 0.172291 -0.823093 0.541141
vn 0.172291 -0.823093 0.541141
vn 0.172291 -0.823093 0.541141
vn 0.159497 -0.518797 -0.839887
vn 0.159497 -0.518797 -0.839887
vn 0.159497 -0.518797 -0.839887
vn 0.159497 -0.518797 -0.839887
vn -0.159497 0.518797 0.839887
vn -0.159497 0.518797 0.839887
vn -0.159497 0.518797 0.839887
vn -0.159497 0.518797 0.839887
s off
g YXZ
usemtl pCube1SG
f 33/57/97 34/58/98 36/60/99 35/59/100
f 35/59/101 36/60/102 38/62/103 37/61/104
f 37/61/105 38/62/106 40/64/107 39/63/108
f 39/63/109 40/64/110 34/66/111 33/65/112
f 34/58/113 40/67/114 38/68/115 36/60/116
f 39/69/117 33/57/118 35/59/119 37/70/120
g default
v 2.484819 7.613114 6.285879
v 2.534113 7.252529 5.342813
v 2.435313 12.142114 4.551610
v 2.484607 11.781528 3.608543
v -2.415966 12.011158 4.348105
v -2.366671 11.650573 3.405038
v -2.366460 7.482158 6.082374
v -2.317166 7.121573 5.139307
vt 0.375000 0.000000
vt 0.625000 0.000000
vt 0.375000 0.250000
vt 0.625000 0.250000
vt 0.375000 0.500000
vt 0.625000 0.500000
vt 0.375000 0.750000
vt 0.625000 0.750000
vt 0.375000 1.000000
vt 0.625000 1.000000
vt 0.875000 0.000000
vt 0.875000 0.250000
vt 0.125000 0.000000
vt 0.125000 0.250000
vn 0.998758 0.026961 0.041897
vn 0.998758 0.026961 0.041897
vn 0.998758 0.026961 0.041897
vn 0.998758 0.026961 0.041897
vn -0.010208 0.933825 -0.357585
vn -0.010208 0.933825 -0.357585
vn -0.010208 0.933825 -0.357585
vn -0.010208 0.933825 -0.357585
vn -0.998758 -0.026961 -0.041897
vn -0.998758 -0.026961 -0.041897
vn -0.998758 -0.026961 -0.041897
vn -0.998758 -0.026961 -0.041897
vn 0.010208 -0.933825 0.357585
vn 0.010208 -0.933825 0.357585
vn 0.010208 -0.933825 0.357585
vn 0.010208 -0.933825 0.357585
vn 0.048765 -0.356714 -0.932940
vn 0.048765 -0.356714 -0.932940
vn 0.048765 -0.356714 -0.932940
vn 0.048765 -0.356714 -0.932940
vn -0.048765 0.356714 0.932940
vn -0.048765 0.356714 0.932940
vn -0.048765 0.356714 0.932940
vn -0.048765 0.356714 0.932940
s off
g ZYX
usemtl pCube1SG
f 41/71/121 42/72/122 44/74/123 43/73/124
f 43/73/125 44/74/126 46/76/127 45/75/128
f 45/75/129 46/76/130 48/78/131 47/77/132
f 47/77/133 48/78/134 42/80/135 41/79/136
f 42/72/137 48/81/138 46/82/139 44/74/140
f 47/83/141 41/71/142 43/73/143 45/84/144
