# This file uses centimeters as units for non-parametric coordinates.

g default
v 0.000000 -0.827832 -1.399960
v -1.000000 -0.827832 -0.024166
v -0.000000 -0.827832 1.154425
v 1.000000 -0.827832 -0.449156
v 0.000000 1.000000 0.237301
v 1.205820 -2.017120 -0.449156
v 0.000000 -2.017120 -1.605780
v -0.000000 -2.017120 1.360245
v -1.205820 -2.017120 -0.024166
v 0.778096 -3.019291 -0.449156
v 0.000000 -3.019291 -1.178056
v -0.000000 -3.019291 0.932521
v -0.778096 -3.019291 -0.024166
vt 0.500000 0.000000
vt 0.250000 0.250000
vt 0.500000 0.500000
vt 0.750000 0.250000
vt 0.250000 0.500000
vt 0.375000 0.500000
vt 0.500000 0.500000
vt 0.625000 0.500000
vt 0.750000 0.500000
vt 0.500000 1.000000
vt 0.500000 0.000000
vt 0.750000 0.250000
vt 0.500000 0.500000
vt 0.250000 0.250000
vt 0.500000 0.000000
vt 0.750000 0.250000
vt 0.500000 0.500000
vt 0.250000 0.250000
vn 0.000000 -1.000000 0.000000
vn 0.000000 -1.000000 0.000000
vn 0.000000 -1.000000 0.000000
vn 0.000000 -1.000000 0.000000
vn -0.715710 0.465978 -0.520216
vn -0.715710 0.465978 -0.520216
vn -0.715710 0.465978 -0.520216
vn -0.725258 0.308760 0.615360
vn -0.725258 0.308760 0.615360
vn -0.725258 0.308760 0.615360
vn 0.820117 0.256612 0.511428
vn 0.820117 0.256612 0.511428
vn 0.820117 0.256612 0.511428
vn 0.577959 0.544487 -0.607863
vn 0.577959 0.544487 -0.607863
vn 0.577959 0.544487 -0.607863
vn 0.685684 0.121436 -0.717698
vn 0.685684 0.121436 -0.717698
vn 0.685684 0.121436 -0.717698
vn 0.685684 0.121436 -0.717698
vn 0.833912 0.118796 0.538960
vn 0.833912 0.118796 0.538960
vn 0.833912 0.118796 0.538960
vn 0.833912 0.118796 0.538960
vn -0.752364 0.121133 0.647514
vn -0.752364 0.121133 0.647514
vn -0.752364 0.121133 0.647514
vn -0.752364 0.121133 0.647514
vn -0.795775 0.120218 -0.593539
vn -0.795775 0.120218 -0.593539
vn -0.795775 0.120218 -0.593539
vn -0.795775 0.120218 -0.593539
vn 0.659542 -0.288835 -0.693959
vn 0.659542 -0.288835 -0.693959
vn 0.659542 -0.288835 -0.693959
vn 0.659542 -0.288835 -0.693959
vn 0.814792 -0.281975 0.506562
vn 0.814792 -0.281975 0.506562
vn 0.814792 -0.281975 0.506562
vn 0.814792 -0.281975 0.506562
vn -0.730577 -0.288022 0.619112
vn -0.730577 -0.288022 0.619113
vn -0.730577 -0.288022 0.619113
vn -0.730577 -0.288022 0.619112
vn -0.775793 -0.285620 -0.562642
vn -0.775793 -0.285620 -0.562642
vn -0.775793 -0.285620 -0.562642
vn -0.775793 -0.285620 -0.562642
s off
g pCone1
f 11/15/1 10/16/2 12/17/3 13/18/4
f 1/5/5 2/6/6 5/10/7
f 2/6/8 3/7/9 5/10/10
f 3/7/11 4/8/12 5/10/13
f 4/8/14 1/9/15 5/10/16
f 1/1/17 4/4/18 6/12/19 7/11/20
f 4/4/21 3/3/22 8/13/23 6/12/24
f 3/3/25 2/2/26 9/14/27 8/13/28
f 2/2/29 1/1/30 7/11/31 9/14/32
f 7/11/33 6/12/34 10/16/35 11/15/36
f 6/12/37 8/13/38 12/17/39 10/16/40
f 8/13/41 9/14/42 13/18/43 12/17/44
f 9/14/45 7/11/46 11/15/47 13/18/48
