# ufbx:transform_skin
# This file uses centimeters as units for non-parametric coordinates.

v 4.013458 0.002832 2.693649
v 4.718039 0.011455 1.989068
v 4.061706 0.993798 2.645401
v 4.747639 1.066092 1.959468
v 4.052094 1.822139 2.655012
v 4.655012 2.177861 2.052094
v 3.639594 2.412321 3.067513
v 4.158422 3.055146 2.548685
v 3.109053 3.066423 3.598054
v 3.610324 3.769192 3.096783
v 2.401946 3.066423 2.890947
v 2.903217 3.769192 2.389676
v 2.932487 2.412321 2.360406
v 3.451315 3.055146 1.841578
v 3.344988 1.822139 1.947906
v 3.947906 2.177861 1.344988
v 3.354599 0.993798 1.938294
v 4.040532 1.066092 1.252361
v 3.306351 0.002832 1.986542
v 4.010932 0.011455 1.281961
vt 0.375000 0.000000
vt 0.625000 0.000000
vt 0.375000 0.062500
vt 0.625000 0.062500
vt 0.375000 0.125000
vt 0.625000 0.125000
vt 0.375000 0.187500
vt 0.625000 0.187500
vt 0.375000 0.250000
vt 0.625000 0.250000
vt 0.375000 0.500000
vt 0.625000 0.500000
vt 0.375000 0.562500
vt 0.625000 0.562500
vt 0.375000 0.625000
vt 0.625000 0.625000
vt 0.375000 0.687500
vt 0.625000 0.687500
vt 0.375000 0.750000
vt 0.625000 0.750000
vt 0.375000 1.000000
vt 0.625000 1.000000
vt 0.875000 0.000000
vt 0.875000 0.062500
vt 0.875000 0.125000
vt 0.875000 0.187500
vt 0.875000 0.250000
vt 0.125000 0.000000
vt 0.125000 0.062500
vt 0.125000 0.125000
vt 0.125000 0.187500
vt 0.125000 0.250000
vn 0.707107 0.000000 0.707107
vn 0.707107 0.000000 0.707107
vn 0.707107 0.000000 0.707107
vn 0.707107 0.000000 0.707107
vn 0.707107 0.000000 0.707107
vn 0.707107 0.000000 0.707107
vn 0.707107 0.000000 0.707107
vn 0.707107 0.000000 0.707107
vn 0.707107 0.000000 0.707107
vn 0.707107 0.000000 0.707107
vn -0.497822 0.710173 0.497822
vn -0.497822 0.710173 0.497822
vn -0.497822 0.710173 0.497822
vn -0.497822 0.710173 0.497822
vn -0.707107 0.000000 -0.707107
vn -0.707107 0.000000 -0.707107
vn -0.707107 0.000000 -0.707107
vn -0.707107 0.000000 -0.707107
vn -0.707107 0.000000 -0.707107
vn -0.707107 0.000000 -0.707107
vn -0.707107 0.000000 -0.707107
vn -0.707107 0.000000 -0.707107
vn -0.707107 0.000000 -0.707107
vn -0.707107 0.000000 -0.707107
vn 0.006119 -0.999963 -0.006119
vn 0.006119 -0.999963 -0.006119
vn 0.006119 -0.999963 -0.006119
vn 0.006119 -0.999963 -0.006119
vn 0.706550 -0.039661 -0.706550
vn 0.706550 -0.039661 -0.706550
vn 0.706509 0.041109 -0.706509
vn 0.706509 0.041109 -0.706509
vn 0.652188 0.386395 -0.652188
vn 0.652188 0.386395 -0.652188
vn 0.518204 0.680389 -0.518204
vn 0.518204 0.680389 -0.518204
vn 0.479089 0.735492 -0.479089
vn 0.479089 0.735492 -0.479089
vn -0.705437 0.068693 0.705437
vn -0.705437 0.068693 0.705437
vn -0.706788 0.030020 0.706788
vn -0.706788 0.030020 0.706788
vn -0.651747 -0.387883 0.651747
vn -0.651747 -0.387883 0.651747
vn -0.482375 -0.731183 0.482375
vn -0.482375 -0.731183 0.482375
vn -0.464663 -0.753775 0.464663
vn -0.464663 -0.753775 0.464663
g pCube1
f 1/1/1 2/2/2 4/4/3 3/3/4
f 3/3/4 4/4/3 6/6/5 5/5/6
f 5/5/6 6/6/5 8/8/7 7/7/8
f 7/7/8 8/8/7 10/10/9 9/9/10
f 9/9/11 10/10/12 12/12/13 11/11/14
f 11/11/15 12/12/16 14/14/17 13/13/18
f 13/13/18 14/14/17 16/16/19 15/15/20
f 15/15/20 16/16/19 18/18/21 17/17/22
f 17/17/22 18/18/21 20/20/23 19/19/24
f 19/19/25 20/20/26 2/22/27 1/21/28
f 2/2/29 20/23/30 18/24/31 4/4/32
f 4/4/32 18/24/31 16/25/33 6/6/34
f 6/6/34 16/25/33 14/26/35 8/8/36
f 8/8/36 14/26/35 12/27/37 10/10/38
f 19/28/39 1/1/40 3/3/41 17/29/42
f 17/29/42 3/3/41 5/5/43 15/30/44
f 15/30/44 5/5/43 7/7/45 13/31/46
f 13/31/46 7/7/45 9/9/47 11/32/48
v 3.306351 0.001416 -1.986542
v 4.010932 0.005728 -1.281961
v 3.354599 0.496899 -1.938294
v 4.040532 0.533046 -1.252361
v 3.344988 0.911069 -1.947906
v 3.947906 1.088931 -1.344988
v 2.932487 1.206161 -2.360406
v 3.451315 1.527573 -1.841578
v 2.401946 1.533211 -2.890947
v 2.903217 1.884596 -2.389676
v 3.109053 1.533211 -3.598054
v 3.610324 1.884596 -3.096783
v 3.639594 1.206161 -3.067513
v 4.158422 1.527573 -2.548685
v 4.052094 0.911069 -2.655012
v 4.655012 1.088931 -2.052094
v 4.061706 0.496899 -2.645401
v 4.747639 0.533046 -1.959468
v 4.013458 0.001416 -2.693649
v 4.718039 0.005728 -1.989068
vt 0.375000 0.000000
vt 0.625000 0.000000
vt 0.375000 0.062500
vt 0.625000 0.062500
vt 0.375000 0.125000
vt 0.625000 0.125000
vt 0.375000 0.187500
vt 0.625000 0.187500
vt 0.375000 0.250000
vt 0.625000 0.250000
vt 0.375000 0.500000
vt 0.625000 0.500000
vt 0.375000 0.562500
vt 0.625000 0.562500
vt 0.375000 0.625000
vt 0.625000 0.625000
vt 0.375000 0.687500
vt 0.625000 0.687500
vt 0.375000 0.750000
vt 0.625000 0.750000
vt 0.375000 1.000000
vt 0.625000 1.000000
vt 0.875000 0.000000
vt 0.875000 0.062500
vt 0.875000 0.125000
vt 0.875000 0.187500
vt 0.875000 0.250000
vt 0.125000 0.000000
vt 0.125000 0.062500
vt 0.125000 0.125000
vt 0.125000 0.187500
vt 0.125000 0.250000
vn -0.707107 0.000000 0.707107
vn -0.707107 0.000000 0.707107
vn -0.707107 0.000000 0.707107
vn -0.707107 0.000000 0.707107
vn -0.707107 0.000000 0.707107
vn -0.707107 0.000000 0.707107
vn -0.707107 0.000000 0.707107
vn -0.707107 0.000000 0.707107
vn -0.707107 0.000000 0.707107
vn -0.707107 0.000000 0.707107
vn -0.314033 0.895973 -0.314033
vn -0.314033 0.895973 -0.314033
vn -0.314033 0.895973 -0.314033
vn -0.314033 0.895973 -0.314033
vn 0.707107 0.000000 -0.707107
vn 0.707107 0.000000 -0.707107
vn 0.707107 0.000000 -0.707107
vn 0.707107 0.000000 -0.707107
vn 0.707107 0.000000 -0.707107
vn 0.707107 0.000000 -0.707107
vn 0.707107 0.000000 -0.707107
vn 0.707107 0.000000 -0.707107
vn 0.707107 0.000000 -0.707107
vn 0.707107 0.000000 -0.707107
vn 0.003060 -0.999991 0.003060
vn 0.003060 -0.999991 0.003060
vn 0.003060 -0.999991 0.003060
vn 0.003060 -0.999991 0.003060
vn 0.704889 -0.079135 0.704889
vn 0.704889 -0.079135 0.704889
vn 0.704725 0.082009 0.704725
vn 0.704725 0.082009 0.704725
vn 0.542005 0.642232 0.542005
vn 0.542005 0.642232 0.542005
vn 0.335283 0.880437 0.335283
vn 0.335283 0.880437 0.335283
vn 0.295821 0.908284 0.295821
vn 0.295821 0.908284 0.295821
vn -0.700496 0.136423 -0.700496
vn -0.700496 0.136423 -0.700496
vn -0.705835 0.059959 -0.705835
vn -0.705835 0.059959 -0.705835
vn -0.540993 -0.643936 -0.540993
vn -0.540993 -0.643936 -0.540993
vn -0.298933 -0.906244 -0.298933
vn -0.298933 -0.906244 -0.298933
vn -0.282548 -0.916697 -0.282548
vn -0.282548 -0.916697 -0.282548
g pCube2
f 21/33/49 22/34/50 24/36/51 23/35/52
f 23/35/52 24/36/51 26/38/53 25/37/54
f 25/37/54 26/38/53 28/40/55 27/39/56
f 27/39/56 28/40/55 30/42/57 29/41/58
f 29/41/59 30/42/60 32/44/61 31/43/62
f 31/43/63 32/44/64 34/46/65 33/45/66
f 33/45/66 34/46/65 36/48/67 35/47/68
f 35/47/68 36/48/67 38/50/69 37/49/70
f 37/49/70 38/50/69 40/52/71 39/51/72
f 39/51/73 40/52/74 22/54/75 21/53/76
f 22/34/77 40/55/78 38/56/79 24/36/80
f 24/36/80 38/56/79 36/57/81 26/38/82
f 26/38/82 36/57/81 34/58/83 28/40/84
f 28/40/84 34/58/83 32/59/85 30/42/86
f 39/60/87 21/33/88 23/35/89 37/61/90
f 37/61/90 23/35/89 25/37/91 35/62/92
f 35/62/92 25/37/91 27/39/93 33/63/94
f 33/63/94 27/39/93 29/41/95 31/64/96
