# This file uses centimeters as units for non-parametric coordinates.

v 17.301620 38.637543 -39.865973
v 18.276602 39.016194 -40.046004
v 17.407826 37.448013 -41.792687
v 18.382808 37.826663 -41.972718
v 18.792838 34.719100 -40.031543
v 19.767821 35.097750 -40.211574
v 18.686632 35.908630 -38.104829
v 19.661615 36.287281 -38.284860
vt 0.375000 0.000000
vt 0.625000 0.000000
vt 0.375000 0.250000
vt 0.625000 0.250000
vt 0.375000 0.500000
vt 0.625000 0.500000
vt 0.375000 0.750000
vt 0.625000 0.750000
vt 0.375000 1.000000
vt 0.625000 1.000000
vt 0.875000 0.000000
vt 0.875000 0.250000
vt 0.125000 0.000000
vt 0.125000 0.250000
vn -0.392261 0.772879 -0.498789
vn -0.392261 0.772879 -0.498789
vn -0.392261 0.772879 -0.498789
vn -0.392261 0.772879 -0.498789
vn 0.046852 -0.524756 -0.849962
vn 0.046852 -0.524756 -0.849962
vn 0.046852 -0.524756 -0.849962
vn 0.046852 -0.524756 -0.849962
vn 0.392261 -0.772879 0.498789
vn 0.392261 -0.772879 0.498789
vn 0.392261 -0.772879 0.498789
vn 0.392261 -0.772879 0.498789
vn -0.046852 0.524756 0.849962
vn -0.046852 0.524756 0.849962
vn -0.046852 0.524756 0.849962
vn -0.046852 0.524756 0.849962
vn 0.918660 0.356776 -0.169630
vn 0.918660 0.356776 -0.169630
vn 0.918660 0.356776 -0.169630
vn 0.918660 0.356776 -0.169630
vn -0.918660 -0.356776 0.169630
vn -0.918660 -0.356776 0.169630
vn -0.918660 -0.356776 0.169630
vn -0.918660 -0.356776 0.169630
g pCube1
f 1/1/1 2/2/2 4/4/3 3/3/4
f 3/3/5 4/4/6 6/6/7 5/5/8
f 5/5/9 6/6/10 8/8/11 7/7/12
f 7/7/13 8/8/14 2/10/15 1/9/16
f 2/2/17 8/11/18 6/12/19 4/4/20
f 7/13/21 1/1/22 3/3/23 5/14/24
