# This file uses centimeters as units for non-parametric coordinates.

g default
v 0.861158 1.592324 -0.384592
v 1.060182 1.759325 -0.534592
v 0.671950 1.924232 -0.266113
v 0.870974 2.091233 -0.416113
v 0.382065 1.904227 -0.673012
v 0.581089 2.071228 -0.823012
v 0.571273 1.572320 -0.791491
v 0.770298 1.739321 -0.941491
vt 0.375000 0.000000
vt 0.625000 0.000000
vt 0.375000 0.250000
vt 0.625000 0.250000
vt 0.375000 0.500000
vt 0.625000 0.500000
vt 0.375000 0.750000
vt 0.625000 0.750000
vt 0.375000 1.000000
vt 0.625000 1.000000
vt 0.875000 0.000000
vt 0.875000 0.250000
vt 0.125000 0.000000
vt 0.125000 0.250000
vn 0.579769 0.040009 0.813798
vn 0.579769 0.040009 0.813798
vn 0.579769 0.040009 0.813798
vn 0.579769 0.040009 0.813798
vn -0.473021 0.829769 0.296198
vn -0.473021 0.829769 0.296198
vn -0.473021 0.829769 0.296198
vn -0.473021 0.829769 0.296198
vn -0.579769 -0.040009 -0.813798
vn -0.579769 -0.040009 -0.813798
vn -0.579769 -0.040009 -0.813798
vn -0.579769 -0.040009 -0.813798
vn 0.473021 -0.829769 -0.296198
vn 0.473021 -0.829769 -0.296198
vn 0.473021 -0.829769 -0.296198
vn 0.473021 -0.829769 -0.296198
vn 0.663414 0.556670 -0.500000
vn 0.663414 0.556670 -0.500000
vn 0.663414 0.556670 -0.500000
vn 0.663414 0.556670 -0.500000
vn -0.663414 -0.556670 0.500000
vn -0.663414 -0.556670 0.500000
vn -0.663414 -0.556670 0.500000
vn -0.663414 -0.556670 0.500000
s off
g pCube1
f 1/1/1 2/2/2 4/4/3 3/3/4
f 3/3/5 4/4/6 6/6/7 5/5/8
f 5/5/9 6/6/10 8/8/11 7/7/12
f 7/7/13 8/8/14 2/10/15 1/9/16
f 2/2/17 8/11/18 6/12/19 4/4/20
f 7/13/21 1/1/22 3/3/23 5/14/24
