# This file uses centimeters as units for non-parametric coordinates.

v 3.476428 14.794166 -13.902482
v 4.207670 15.118601 -14.922913
v 3.940363 13.490192 -13.984610
v 4.671605 13.814628 -15.005041
v 4.764483 13.741181 -13.314246
v 5.495725 14.065616 -14.334677
v 4.300548 15.045155 -13.232117
v 5.031789 15.369590 -14.252548
vt 0.375000 0.000000
vt 0.625000 0.000000
vt 0.375000 0.250000
vt 0.625000 0.250000
vt 0.375000 0.500000
vt 0.625000 0.500000
vt 0.375000 0.750000
vt 0.625000 0.750000
vt 0.375000 1.000000
vt 0.625000 1.000000
vt 0.875000 0.000000
vt 0.875000 0.250000
vt 0.125000 0.000000
vt 0.125000 0.250000
vn -0.754976 -0.229930 -0.614120
vn -0.754976 -0.229930 -0.614120
vn -0.754976 -0.229930 -0.614120
vn -0.754976 -0.229930 -0.614120
vn 0.334614 -0.940492 -0.059235
vn 0.334614 -0.940492 -0.059235
vn 0.334614 -0.940492 -0.059235
vn 0.334614 -0.940492 -0.059235
vn 0.754976 0.229930 0.614120
vn 0.754976 0.229930 0.614120
vn 0.754976 0.229930 0.614120
vn 0.754976 0.229930 0.614120
vn -0.334614 0.940492 0.059235
vn -0.334614 0.940492 0.059235
vn -0.334614 0.940492 0.059235
vn -0.334614 0.940492 0.059235
vn 0.563955 0.250214 -0.786986
vn 0.563955 0.250214 -0.786986
vn 0.563955 0.250214 -0.786986
vn 0.563955 0.250214 -0.786986
vn -0.563955 -0.250214 0.786986
vn -0.563955 -0.250214 0.786986
vn -0.563955 -0.250214 0.786986
vn -0.563955 -0.250214 0.786986
g pCube1
f 1/1/1 2/2/2 4/4/3 3/3/4
f 3/3/5 4/4/6 6/6/7 5/5/8
f 5/5/9 6/6/10 8/8/11 7/7/12
f 7/7/13 8/8/14 2/10/15 1/9/16
f 2/2/17 8/11/18 6/12/19 4/4/20
f 7/13/21 1/1/22 3/3/23 5/14/24
