# This file uses centimeters as units for non-parametric coordinates.

g skinCluster1Set tweakSet1
v -0.416621 0.277053 -0.500000
v 0.435668 -0.246019 -0.500000
v -1.146144 2.161227 -0.500000
v -0.607101 3.003506 -0.500000
v -1.146144 2.161227 0.500000
v -0.607101 3.003506 0.500000
v -0.416621 0.277053 0.500000
v 0.435667 -0.246019 0.500000
v -0.068061 0.844993 0.500000
v -0.068061 0.844993 -0.500000
v 0.784227 0.321922 -0.500000
v 0.784227 0.321922 0.500000
v -0.066474 1.012289 0.500000
v -0.066474 1.012289 -0.500000
v 0.873928 1.352354 -0.500000
v 0.873928 1.352353 0.500000
v -0.293083 1.638946 0.500000
v -0.293083 1.638946 -0.500000
v 0.647319 1.979010 -0.500000
v 0.647319 1.979010 0.500000
v -0.584873 1.802025 0.500000
v -0.584873 1.802025 -0.500000
v -0.045831 2.644303 -0.500000
v -0.045831 2.644303 0.500000
vt 0.375000 0.000000
vt 0.625000 0.000000
vt 0.375000 0.250000
vt 0.625000 0.250000
vt 0.375000 0.500000
vt 0.625000 0.500000
vt 0.375000 0.750000
vt 0.625000 0.750000
vt 0.375000 1.000000
vt 0.625000 1.000000
vt 0.875000 0.000000
vt 0.875000 0.250000
vt 0.125000 0.000000
vt 0.125000 0.250000
vt 0.125000 0.050000
vt 0.375000 0.700000
vt 0.375000 0.050000
vt 0.625000 0.050000
vt 0.625000 0.700000
vt 0.875000 0.050000
vt 0.125000 0.100000
vt 0.375000 0.650000
vt 0.375000 0.100000
vt 0.625000 0.100000
vt 0.625000 0.650000
vt 0.875000 0.100000
vt 0.125000 0.150000
vt 0.375000 0.600000
vt 0.375000 0.150000
vt 0.625000 0.150000
vt 0.625000 0.600000
vt 0.875000 0.150000
vt 0.125000 0.200000
vt 0.375000 0.550000
vt 0.375000 0.200000
vt 0.625000 0.200000
vt 0.625000 0.550000
vt 0.875000 0.200000
vn 0.000000 0.000000 -1.000000
vn 0.000000 0.000000 -1.000000
vn 0.000000 0.000000 -1.000000
vn 0.000000 0.000000 -1.000000
vn -0.842279 0.539042 -0.000000
vn -0.842279 0.539042 -0.000000
vn -0.842279 0.539042 -0.000000
vn -0.842279 0.539042 -0.000000
vn 0.000000 0.000000 1.000000
vn 0.000000 0.000000 1.000000
vn 0.000000 0.000000 1.000000
vn 0.000000 0.000000 1.000000
vn -0.523072 -0.852289 -0.000000
vn -0.523072 -0.852289 -0.000000
vn -0.523072 -0.852289 -0.000000
vn -0.523072 -0.852289 -0.000000
vn 0.632554 0.774516 -0.000000
vn 0.632554 0.774516 -0.000000
vn 0.539042 0.842279 -0.000000
vn 0.539042 0.842279 -0.000000
vn -0.522153 -0.852852 -0.000000
vn -0.522153 -0.852852 -0.000000
vn -0.539042 -0.842279 -0.000000
vn -0.539042 -0.842279 -0.000000
vn -0.852289 0.523072 0.000000
vn -0.852289 0.523072 0.000000
vn -0.902844 0.429968 0.000000
vn -0.902844 0.429968 0.000000
vn 0.000000 0.000000 -1.000000
vn 0.000000 0.000000 -1.000000
vn -0.000000 0.000000 -1.000000
vn -0.000000 0.000000 -1.000000
vn 0.852289 -0.523072 -0.000000
vn 0.852289 -0.523072 -0.000000
vn 0.964404 -0.264432 -0.000000
vn 0.964404 -0.264432 -0.000000
vn 0.000000 0.000000 1.000000
vn 0.000000 0.000000 1.000000
vn 0.000000 0.000000 1.000000
vn 0.000000 0.000000 1.000000
vn -0.962105 -0.272680 -0.000000
vn -0.962105 -0.272680 -0.000000
vn -0.000000 0.000000 -1.000000
vn -0.000000 0.000000 -1.000000
vn 0.996604 0.082339 -0.000000
vn 0.996604 0.082339 -0.000000
vn 0.000000 0.000000 1.000000
vn 0.000000 0.000000 1.000000
vn -0.835982 -0.548756 -0.000000
vn -0.835982 -0.548756 -0.000000
vn 0.000000 0.000000 -1.000000
vn 0.000000 0.000000 -1.000000
vn 0.814646 0.579959 -0.000000
vn 0.814646 0.579959 -0.000000
vn 0.000000 0.000000 1.000000
vn 0.000000 0.000000 1.000000
s 1
g pCube1
f 22/35/1 3/3/4 4/4/3 23/36/2
s off
f 3/3/5 5/5/8 6/6/7 4/4/6
s 2
f 5/5/9 21/34/12 24/37/11 6/6/10
s off
f 7/7/13 1/9/16 2/10/15 8/8/14
s 3
f 23/36/17 4/4/20 6/12/19 24/38/18
s 4
f 21/33/21 5/14/24 3/3/23 22/35/22
f 7/13/25 9/15/28 10/17/27 1/1/26
s 1
f 1/1/29 10/17/32 11/18/31 2/2/30
s 3
f 2/2/33 11/18/36 12/20/35 8/11/34
s 2
f 9/16/37 7/7/40 8/8/39 12/19/38
s 4
f 9/15/28 13/21/42 14/23/41 10/17/27
s 1
f 10/17/32 14/23/44 15/24/43 11/18/31
s 3
f 11/18/36 15/24/46 16/26/45 12/20/35
s 2
f 13/22/47 9/16/37 12/19/38 16/25/48
s 4
f 13/21/42 17/27/50 18/29/49 14/23/41
s 1
f 14/23/44 18/29/52 19/30/51 15/24/43
s 3
f 15/24/46 19/30/54 20/32/53 16/26/45
s 2
f 17/28/55 13/22/47 16/25/48 20/31/56
s 4
f 17/27/50 21/33/21 22/35/22 18/29/49
s 1
f 18/29/52 22/35/1 23/36/2 19/30/51
s 3
f 19/30/54 23/36/17 24/38/18 20/32/53
s 2
f 21/34/12 17/28/55 20/31/56 24/37/11
