# ufbx:position_scale=0.1
# This file uses centimeters as units for non-parametric coordinates.

v -0.500000 -0.497895 0.494919
v 0.500000 -0.497895 0.494919
v -0.500000 3.926819 -4.176794
v 0.500000 3.926819 -4.176794
v -0.500000 4.073176 -3.823204
v 0.500000 4.073176 -3.823204
v -0.500000 0.501824 0.493366
v 0.500000 0.501824 0.493366
v -0.500000 10.009416 -4.353898
v 0.500000 10.009416 -4.353898
v 0.500000 9.302326 -3.646929
v -0.500000 9.302326 -3.646929
v -0.500000 12.838601 -1.525310
v 0.500000 12.838601 -1.525310
v 0.500000 12.131479 -0.818258
v -0.500000 12.131479 -0.818258
vt 0.375000 0.000000
vt 0.625000 0.000000
vt 0.375000 0.250000
vt 0.625000 0.250000
vt 0.375000 0.500000
vt 0.625000 0.500000
vt 0.375000 0.750000
vt 0.625000 0.750000
vt 0.375000 1.000000
vt 0.625000 1.000000
vt 0.875000 0.000000
vt 0.875000 0.250000
vt 0.125000 0.000000
vt 0.125000 0.250000
vt 0.375000 0.250000
vt 0.625000 0.250000
vt 0.625000 0.500000
vt 0.375000 0.500000
vt 0.375000 0.250000
vt 0.625000 0.250000
vt 0.625000 0.500000
vt 0.375000 0.500000
vn 0.000000 -0.726040 -0.687653
vn 0.000000 -0.726040 -0.687653
vn 0.000000 -0.726040 -0.687653
vn 0.000000 -0.726040 -0.687653
vn 0.000000 0.707072 0.707142
vn 0.000000 0.707072 0.707142
vn 0.000000 0.707072 0.707142
vn 0.000000 0.707072 0.707142
vn 0.000000 0.770480 0.637464
vn 0.000000 0.770480 0.637464
vn 0.000000 0.770480 0.637464
vn 0.000000 0.770480 0.637464
vn 0.000000 0.001554 0.999999
vn 0.000000 0.001554 0.999999
vn 0.000000 0.001554 0.999999
vn 0.000000 0.001554 0.999999
vn 1.000000 -0.000000 -0.000000
vn 1.000000 -0.000000 -0.000000
vn 1.000000 -0.000000 -0.000000
vn 1.000000 -0.000000 -0.000000
vn -1.000000 -0.000000 -0.000000
vn -1.000000 -0.000000 -0.000000
vn -1.000000 -0.000000 -0.000000
vn -1.000000 -0.000000 -0.000000
vn 0.000000 -0.029104 -0.999576
vn 0.000000 -0.029104 -0.999576
vn 0.000000 -0.029104 -0.999576
vn 0.000000 -0.029104 -0.999576
vn 1.000000 0.000000 -0.000000
vn 1.000000 0.000000 -0.000000
vn 1.000000 0.000000 -0.000000
vn 1.000000 0.000000 -0.000000
vn 0.000000 -0.033691 0.999432
vn 0.000000 -0.033691 0.999432
vn 0.000000 -0.033691 0.999432
vn 0.000000 -0.033691 0.999432
vn -1.000000 0.000000 -0.000000
vn -1.000000 0.000000 -0.000000
vn -1.000000 0.000000 -0.000000
vn -1.000000 0.000000 -0.000000
vn 0.000000 0.707032 -0.707181
vn 0.000000 0.707032 -0.707181
vn 0.000000 0.707032 -0.707181
vn 0.000000 0.707032 -0.707181
vn 1.000000 0.000000 -0.000000
vn 1.000000 0.000000 -0.000000
vn 1.000000 0.000000 -0.000000
vn 1.000000 0.000000 -0.000000
vn 0.000000 -0.707046 0.707167
vn 0.000000 -0.707046 0.707167
vn 0.000000 -0.707046 0.707167
vn 0.000000 -0.707046 0.707167
vn -1.000000 0.000000 -0.000000
vn -1.000000 0.000000 -0.000000
vn -1.000000 0.000000 -0.000000
vn -1.000000 0.000000 -0.000000
g pCube1
f 1/1/1 3/3/4 4/4/3 2/2/2
f 13/19/5 16/22/8 15/21/7 14/20/6
f 5/5/9 7/7/12 8/8/11 6/6/10
f 7/7/13 1/9/16 2/10/15 8/8/14
f 2/2/17 4/4/20 6/12/19 8/11/18
f 7/13/21 5/14/24 3/3/23 1/1/22
f 3/3/25 9/15/28 10/16/27 4/4/26
f 4/4/29 10/16/32 11/17/31 6/6/30
f 6/6/33 11/17/36 12/18/35 5/5/34
f 5/5/37 12/18/40 9/15/39 3/3/38
f 9/15/41 13/19/44 14/20/43 10/16/42
f 10/16/45 14/20/48 15/21/47 11/17/46
f 11/17/49 15/21/52 16/22/51 12/18/50
f 12/18/53 16/22/56 13/19/55 9/15/54
v -0.500000 -0.500000 -0.500000
v 0.500000 -0.500000 -0.500000
v -0.500000 0.500000 -0.500000
v 0.500000 0.500000 -0.500000
v -0.500000 0.500000 0.500000
v 0.500000 0.500000 0.500000
v -0.500000 -0.500000 0.500000
v 0.500000 -0.500000 0.500000
v -0.500000 4.000000 -4.500000
v 0.500000 4.000000 -4.500000
v 0.500000 4.000000 -3.500000
v -0.500000 4.000000 -3.500000
v -0.500000 10.000000 -4.500000
v 0.500000 10.000000 -4.500000
v 0.500000 10.000000 -3.500000
v -0.500000 10.000000 -3.500000
v -0.500000 13.000000 -0.500000
v 0.500000 13.000000 -0.500000
v 0.500000 13.000000 0.500000
v -0.500000 13.000000 0.500000
vt 0.375000 0.000000
vt 0.625000 0.000000
vt 0.375000 0.250000
vt 0.625000 0.250000
vt 0.375000 0.500000
vt 0.625000 0.500000
vt 0.375000 0.750000
vt 0.625000 0.750000
vt 0.375000 1.000000
vt 0.625000 1.000000
vt 0.875000 0.000000
vt 0.875000 0.250000
vt 0.125000 0.000000
vt 0.125000 0.250000
vt 0.375000 0.250000
vt 0.625000 0.250000
vt 0.625000 0.500000
vt 0.375000 0.500000
vt 0.375000 0.250000
vt 0.625000 0.250000
vt 0.625000 0.500000
vt 0.375000 0.500000
vt 0.375000 0.250000
vt 0.625000 0.250000
vt 0.625000 0.500000
vt 0.375000 0.500000
vn 0.000000 0.000000 -1.000000
vn 0.000000 0.000000 -1.000000
vn 0.000000 0.000000 -1.000000
vn 0.000000 0.000000 -1.000000
vn 0.000000 1.000000 -0.000000
vn 0.000000 1.000000 -0.000000
vn 0.000000 1.000000 -0.000000
vn 0.000000 1.000000 -0.000000
vn -0.000000 0.000000 1.000000
vn -0.000000 0.000000 1.000000
vn -0.000000 0.000000 1.000000
vn -0.000000 0.000000 1.000000
vn 0.000000 -1.000000 -0.000000
vn 0.000000 -1.000000 -0.000000
vn 0.000000 -1.000000 -0.000000
vn 0.000000 -1.000000 -0.000000
vn 1.000000 0.000000 0.000000
vn 1.000000 0.000000 0.000000
vn 1.000000 0.000000 0.000000
vn 1.000000 0.000000 0.000000
vn -1.000000 0.000000 -0.000000
vn -1.000000 0.000000 -0.000000
vn -1.000000 0.000000 -0.000000
vn -1.000000 0.000000 -0.000000
vn 0.000000 -0.752577 -0.658505
vn 0.000000 -0.752577 -0.658505
vn 0.000000 -0.752577 -0.658505
vn 0.000000 -0.752577 -0.658505
vn 1.000000 0.000000 0.000000
vn 1.000000 0.000000 0.000000
vn 1.000000 0.000000 0.000000
vn 1.000000 0.000000 0.000000
vn 0.000000 0.752577 0.658505
vn 0.000000 0.752577 0.658505
vn 0.000000 0.752577 0.658505
vn 0.000000 0.752577 0.658505
vn -1.000000 0.000000 -0.000000
vn -1.000000 0.000000 -0.000000
vn -1.000000 0.000000 -0.000000
vn -1.000000 0.000000 -0.000000
vn 0.000000 0.000000 -1.000000
vn 0.000000 0.000000 -1.000000
vn 0.000000 0.000000 -1.000000
vn 0.000000 0.000000 -1.000000
vn 1.000000 0.000000 -0.000000
vn 1.000000 0.000000 -0.000000
vn 1.000000 0.000000 -0.000000
vn 1.000000 0.000000 -0.000000
vn 0.000000 0.000000 1.000000
vn 0.000000 0.000000 1.000000
vn 0.000000 0.000000 1.000000
vn 0.000000 0.000000 1.000000
vn -1.000000 0.000000 -0.000000
vn -1.000000 0.000000 -0.000000
vn -1.000000 0.000000 -0.000000
vn -1.000000 0.000000 -0.000000
vn 0.000000 0.800000 -0.600000
vn 0.000000 0.800000 -0.600000
vn 0.000000 0.800000 -0.600000
vn 0.000000 0.800000 -0.600000
vn 1.000000 0.000000 -0.000000
vn 1.000000 0.000000 -0.000000
vn 1.000000 0.000000 -0.000000
vn 1.000000 0.000000 -0.000000
vn 0.000000 -0.800000 0.600000
vn 0.000000 -0.800000 0.600000
vn 0.000000 -0.800000 0.600000
vn 0.000000 -0.800000 0.600000
vn -1.000000 0.000000 -0.000000
vn -1.000000 0.000000 -0.000000
vn -1.000000 0.000000 -0.000000
vn -1.000000 0.000000 -0.000000
g pCube2
f 17/23/57 19/25/60 20/26/59 18/24/58
f 33/45/61 36/48/64 35/47/63 34/46/62
f 21/27/65 23/29/68 24/30/67 22/28/66
f 23/29/69 17/31/72 18/32/71 24/30/70
f 18/24/73 20/26/76 22/34/75 24/33/74
f 23/35/77 21/36/80 19/25/79 17/23/78
f 19/25/81 25/37/84 26/38/83 20/26/82
f 20/26/85 26/38/88 27/39/87 22/28/86
f 22/28/89 27/39/92 28/40/91 21/27/90
f 21/27/93 28/40/96 25/37/95 19/25/94
f 25/37/97 29/41/100 30/42/99 26/38/98
f 26/38/101 30/42/104 31/43/103 27/39/102
f 27/39/105 31/43/108 32/44/107 28/40/106
f 28/40/109 32/44/112 29/41/111 25/37/110
f 29/41/113 33/45/116 34/46/115 30/42/114
f 30/42/117 34/46/120 35/47/119 31/43/118
f 31/43/121 35/47/124 36/48/123 32/44/122
f 32/44/125 36/48/128 33/45/127 29/41/126
