# This file uses centimeters as units for non-parametric coordinates.

mtllib maya_blend_between_120.mtl
g blendShape1Set tweakSet1
v -0.500000 -0.500000 0.500000
v 0.000000 -0.500000 0.500000
v 0.500000 -0.500000 0.500000
v -0.500000 0.000000 0.500000
v 0.000000 0.000000 0.500000
v 0.500000 -0.000000 0.500000
v -2.027958 1.269195 0.656076
v -1.527958 1.269195 0.656076
v -1.027958 0.500000 0.656076
v -2.027958 1.269195 0.156076
v -1.527958 1.269195 0.156076
v -1.027958 0.500000 0.156076
v -2.027958 0.500000 -0.343924
v -1.527958 0.500000 -0.343924
v -1.027958 0.500000 -0.343924
v -0.500000 0.000000 -0.500000
v 0.000000 0.000000 -0.500000
v 0.500000 0.000000 -0.500000
v -0.500000 -0.500000 -0.500000
v 0.000000 -0.025316 -0.500000
v 0.500000 -0.025316 -0.500000
v -0.500000 -0.500000 0.000000
v 0.000000 -0.025316 0.000000
v 0.500000 -0.025316 0.000000
v 0.500000 0.000000 0.000000
v -0.500000 0.000000 0.000000
vt 0.375000 0.000000
vt 0.500000 0.000000
vt 0.625000 0.000000
vt 0.375000 0.125000
vt 0.500000 0.125000
vt 0.625000 0.125000
vt 0.375000 0.250000
vt 0.500000 0.250000
vt 0.625000 0.250000
vt 0.375000 0.375000
vt 0.500000 0.375000
vt 0.625000 0.375000
vt 0.375000 0.500000
vt 0.500000 0.500000
vt 0.625000 0.500000
vt 0.375000 0.625000
vt 0.500000 0.625000
vt 0.625000 0.625000
vt 0.375000 0.750000
vt 0.500000 0.750000
vt 0.625000 0.750000
vt 0.375000 0.875000
vt 0.500000 0.875000
vt 0.625000 0.875000
vt 0.375000 1.000000
vt 0.500000 1.000000
vt 0.625000 1.000000
vt 0.875000 0.000000
vt 0.750000 0.000000
vt 0.875000 0.125000
vt 0.750000 0.125000
vt 0.875000 0.250000
vt 0.750000 0.250000
vt 0.125000 0.000000
vt 0.250000 0.000000
vt 0.125000 0.125000
vt 0.250000 0.125000
vt 0.125000 0.250000
vt 0.250000 0.250000
vn 0.000000 0.000000 1.000000
vn 0.000000 0.000000 1.000000
vn -0.159880 -0.267100 0.950314
vn 0.000000 -0.097664 0.995219
vn 0.000000 0.000000 1.000000
vn -0.057257 -0.074437 0.995581
vn -0.012268 -0.141331 0.989886
vn 0.000000 -0.122053 0.992524
vn -0.341923 -0.444520 -0.827943
vn 0.000000 1.000000 0.000000
vn 0.609693 0.792638 0.000000
vn 0.433967 0.789522 -0.433967
vn 0.000000 0.792638 -0.609693
vn 0.838432 0.545006 0.000000
vn 0.732784 0.635109 -0.244261
vn 0.244261 0.635109 -0.732784
vn 0.000000 0.545006 -0.838432
vn 0.520568 0.676770 -0.520568
vn 0.000000 0.297973 -0.954574
vn 0.000000 0.297973 -0.954574
vn 0.000000 0.235540 -0.971865
vn 0.000000 0.234587 -0.972095
vn 0.000000 0.297973 -0.954574
vn 0.000000 0.243967 -0.969784
vn 0.000000 0.000000 -1.000000
vn 0.000000 0.000000 -1.000000
vn 0.000000 0.000000 -1.000000
vn 0.688508 -0.725228 0.000000
vn 0.428824 -0.903388 0.000000
vn 0.310708 -0.898288 -0.310708
vn 0.569473 -0.799792 -0.189824
vn 0.000000 -1.000000 0.000000
vn 0.000000 -0.903388 -0.428824
vn 0.189824 -0.799792 -0.569473
vn 0.394115 -0.830269 -0.394115
vn 0.000000 -0.725228 -0.688508
vn 1.000000 0.000000 0.000000
vn 1.000000 0.000000 0.000000
vn 0.326044 0.945355 0.000000
vn 0.388383 0.921498 0.000000
vn 1.000000 0.000000 0.000000
vn 0.439406 0.898289 0.000000
vn 0.311006 0.950408 0.000000
vn 0.311006 0.950408 0.000000
vn 0.311006 0.950408 0.000000
vn -1.000000 0.000000 0.000000
vn -1.000000 0.000000 0.000000
vn -0.674205 -0.684821 0.276528
vn -0.558344 -0.657580 0.505807
vn -1.000000 0.000000 0.000000
vn -0.752424 -0.658679 0.000000
vn -0.563873 -0.794805 0.224346
vn -0.368674 -0.736803 0.566745
vn -0.638964 -0.769236 0.000000
s 1
g pCube1
usemtl initialShadingGroup
f 1/1/1 2/2/2 5/5/3 4/4/4
f 2/2/2 3/3/5 6/6/6 5/5/3
f 4/4/4 5/5/3 8/8/7 7/7/8
f 5/5/3 6/6/6 9/9/9 8/8/7
s 2
f 7/7/10 8/8/11 11/11/12 10/10/13
f 8/8/11 9/9/14 12/12/15 11/11/12
f 10/10/13 11/11/12 14/14/16 13/13/17
f 11/11/12 12/12/15 15/15/18 14/14/16
s 3
f 13/13/19 14/14/20 17/17/21 16/16/22
f 14/14/20 15/15/23 18/18/24 17/17/21
f 16/16/22 17/17/21 20/20/25 19/19/26
f 17/17/21 18/18/24 21/21/27 20/20/25
s 4
f 19/19/28 20/20/29 23/23/30 22/22/31
f 20/20/29 21/21/32 24/24/33 23/23/30
f 22/22/31 23/23/30 2/26/34 1/25/35
f 23/23/30 24/24/33 3/27/36 2/26/34
s 5
f 24/29/37 21/28/38 18/30/39 25/31/40
f 3/3/41 24/29/37 25/31/40 6/6/42
f 25/31/40 18/30/39 15/32/43 12/33/44
f 6/6/42 25/31/40 12/33/44 9/9/45
s 6
f 19/34/46 22/35/47 26/37/48 16/36/49
f 22/35/47 1/1/50 4/4/51 26/37/48
f 16/36/49 26/37/48 10/39/52 13/38/53
f 26/37/48 4/4/51 7/7/54 10/39/52
