# This file uses centimeters as units for non-parametric coordinates.

v -0.555556 0.111111 1.111111
v 0.555556 0.111111 1.111111
v -1.080000 3.250948 1.680000
v 1.080000 3.250948 1.680000
v -1.080000 3.250948 -1.680000
v 1.080000 3.250948 -1.680000
v -0.555556 0.111111 -1.111111
v 0.555556 0.111111 -1.111111
v -1.125000 6.364023 1.500000
v 1.125000 6.364023 1.500000
v 1.125000 6.364023 -1.500000
v -1.125000 6.364023 -1.500000
v 3.773017 3.567989 1.500000
v 3.773017 3.567989 -1.500000
v 3.601684 7.114526 -1.680000
v 3.601684 7.114526 1.680000
v 5.694444 4.027778 1.111111
v 5.694444 4.027778 -1.111111
v 6.079186 7.146491 -1.500000
v 6.079186 7.146491 1.500000
v 4.302806 12.360561 1.111111
v 4.302806 12.360561 -1.111111
v 5.697194 12.360561 1.111111
v 5.697194 12.360561 -1.111111
v -3.773017 3.567989 1.500000
v -3.773017 3.567989 -1.500000
v -3.601684 7.114526 1.680000
v -3.601684 7.114526 -1.680000
v -5.694444 4.027778 1.111111
v -5.694444 4.027778 -1.111111
v -6.079186 7.146491 1.500000
v -6.079186 7.146491 -1.500000
v -4.302806 12.306107 1.111111
v -4.302806 12.306107 -1.111111
v -5.697194 12.306107 -1.111111
v -5.697194 12.306107 1.111111
v 0.000000 -0.375000 1.500000
v 0.000000 3.478031 2.000000
v 0.000000 3.478031 -2.000000
v 0.000000 -0.375000 -1.500000
v -0.750000 1.473222 1.500000
v 0.750000 1.473222 1.500000
v -1.375000 2.824293 -0.000000
v 1.375000 2.824293 -0.000000
v -0.750000 1.473222 -1.500000
v 0.750000 1.473222 -1.500000
v -0.750000 -0.375000 0.000000
v 0.750000 -0.375000 0.000000
v -1.125000 5.000000 2.000000
v 1.125000 5.000000 2.000000
v 0.000000 6.125000 1.500000
v 1.125000 5.000000 -2.000000
v 1.125000 6.836949 0.000000
v -1.125000 5.000000 -2.000000
v 0.000000 6.125000 -1.500000
v -1.125000 6.836949 0.000000
v 2.500000 3.519910 1.500000
v 2.500000 3.519910 -1.500000
v 3.783284 3.081525 -0.000000
v 2.466817 6.490045 -1.500000
v 3.783284 5.000000 -2.000000
v 2.466817 6.490045 1.500000
v 3.170491 7.712853 0.000000
v 3.783284 5.000000 2.000000
v 5.000000 3.687500 1.500000
v 5.000000 3.687500 -1.500000
v 5.937500 3.687500 -0.000000
v 5.000000 7.135984 -2.000000
v 5.937500 5.000000 -1.500000
v 5.000000 7.135984 2.000000
v 6.446557 7.135984 0.000000
v 5.937500 5.000000 1.500000
v 3.912500 10.325000 1.500000
v 3.912500 10.325000 -1.500000
v 4.062500 12.968750 0.000000
v 6.087500 10.325000 1.500000
v 5.000000 12.968750 1.500000
v 6.087500 10.325000 -1.500000
v 5.937500 12.968750 0.000000
v 5.000000 12.968750 -1.500000
v -2.500000 3.519910 1.500000
v -2.500000 3.519910 -1.500000
v -3.783284 3.081525 -0.000000
v -2.466817 6.490045 1.500000
v -3.783284 5.000000 2.000000
v -2.466817 6.490045 -1.500000
v -3.170491 7.712853 0.000000
v -3.783284 5.000000 -2.000000
v -5.000000 3.687500 1.500000
v -5.000000 3.687500 -1.500000
v -5.937500 3.687500 -0.000000
v -5.000000 7.135984 2.000000
v -5.937500 5.000000 1.500000
v -5.000000 7.135984 -2.000000
v -6.446557 7.135984 0.000000
v -5.937500 5.000000 -1.500000
v -3.912500 10.175000 1.500000
v -3.912500 10.175000 -1.500000
v -4.062500 13.156250 0.000000
v -6.087500 10.175000 -1.500000
v -5.000000 13.156250 -1.500000
v -6.087500 10.175000 1.500000
v -5.937500 13.156250 0.000000
v -5.000000 13.156250 1.500000
v 0.000000 1.480177 2.000000
v 0.000000 6.500000 0.000000
v 0.000000 1.480177 -2.000000
v 0.000000 -1.000000 0.000000
v 1.000000 1.476831 -0.000000
v -1.000000 1.476831 -0.000000
v 0.000000 5.000000 2.000000
v 6.250000 5.000000 0.000000
v 0.000000 5.000000 -2.000000
v -6.250000 5.000000 0.000000
v 2.500000 3.024961 -0.000000
v 2.500000 5.000000 -2.000000
v 2.468799 6.987519 0.000000
v 2.500000 5.000000 2.000000
v 5.000000 3.250000 -0.000000
v 5.000000 5.000000 -2.000000
v 5.000000 13.750000 0.000000
v 5.000000 5.000000 2.000000
v 3.543243 10.314865 0.000000
v 5.000000 10.314865 2.000000
v 6.456757 10.314865 0.000000
v 5.000000 10.314865 -2.000000
v -2.500000 3.024961 -0.000000
v -2.500000 5.000000 2.000000
v -2.468799 6.987519 0.000000
v -2.500000 5.000000 -2.000000
v -5.000000 3.250000 -0.000000
v -5.000000 5.000000 2.000000
v -5.000000 14.250000 0.000000
v -5.000000 5.000000 -2.000000
v -3.543243 10.185135 0.000000
v -5.000000 10.185135 -2.000000
v -6.456757 10.185135 0.000000
v -5.000000 10.185135 2.000000
vt 0.375000 0.000000
vt 0.625000 0.000000
vt 0.375000 0.250000
vt 0.625000 0.250000
vt 0.375000 0.500000
vt 0.625000 0.500000
vt 0.375000 0.750000
vt 0.625000 0.750000
vt 0.375000 1.000000
vt 0.625000 1.000000
vt 0.875000 0.000000
vt 0.875000 0.250000
vt 0.125000 0.000000
vt 0.125000 0.250000
vt 0.406250 0.281250
vt 0.593750 0.281250
vt 0.593750 0.468750
vt 0.406250 0.468750
vt 0.625000 0.281250
vt 0.625000 0.468750
vt 0.625000 0.480000
vt 0.625000 0.270000
vt 0.625000 0.305556
vt 0.625000 0.444444
vt 0.625000 0.468750
vt 0.625000 0.281250
vt 0.625000 0.444444
vt 0.625000 0.305556
vt 0.625000 0.305556
vt 0.625000 0.444444
vt 0.375000 0.468750
vt 0.375000 0.281250
vt 0.375000 0.270000
vt 0.375000 0.480000
vt 0.375000 0.444444
vt 0.375000 0.305556
vt 0.375000 0.281250
vt 0.375000 0.468750
vt 0.375000 0.305556
vt 0.375000 0.444444
vt 0.375000 0.444444
vt 0.375000 0.305556
vt 0.500000 0.125000
vt 0.500000 0.375000
vt 0.500000 0.625000
vt 0.500000 0.875000
vt 0.750000 0.125000
vt 0.250000 0.125000
vt 0.500000 0.250000
vt 0.625000 0.375000
vt 0.500000 0.500000
vt 0.375000 0.375000
vt 0.625000 0.375000
vt 0.625000 0.500000
vt 0.625000 0.375000
vt 0.625000 0.250000
vt 0.625000 0.375000
vt 0.625000 0.500000
vt 0.625000 0.375000
vt 0.625000 0.250000
vt 0.625000 0.375000
vt 0.625000 0.250000
vt 0.625000 0.375000
vt 0.625000 0.500000
vt 0.375000 0.375000
vt 0.375000 0.250000
vt 0.375000 0.375000
vt 0.375000 0.500000
vt 0.375000 0.375000
vt 0.375000 0.250000
vt 0.375000 0.375000
vt 0.375000 0.500000
vt 0.375000 0.375000
vt 0.375000 0.500000
vt 0.375000 0.375000
vt 0.375000 0.250000
vt 0.500000 0.000000
vt 0.625000 0.125000
vt 0.500000 0.218750
vt 0.375000 0.125000
vt 0.500000 0.281250
vt 0.593750 0.375000
vt 0.500000 0.468750
vt 0.406250 0.375000
vt 0.500000 0.531250
vt 0.625000 0.625000
vt 0.500000 0.750000
vt 0.375000 0.625000
vt 0.625000 0.875000
vt 0.500000 1.000000
vt 0.375000 0.875000
vt 0.750000 0.000000
vt 0.875000 0.125000
vt 0.750000 0.250000
vt 0.250000 0.000000
vt 0.250000 0.250000
vt 0.125000 0.125000
vt 0.593750 0.250000
vt 0.406250 0.250000
vt 0.625000 0.375000
vt 0.625000 0.468750
vt 0.625000 0.375000
vt 0.625000 0.281250
vt 0.406250 0.500000
vt 0.593750 0.500000
vt 0.375000 0.375000
vt 0.375000 0.281250
vt 0.375000 0.375000
vt 0.375000 0.468750
vt 0.625000 0.375000
vt 0.625000 0.468750
vt 0.625000 0.375000
vt 0.625000 0.281250
vt 0.625000 0.468750
vt 0.625000 0.500000
vt 0.625000 0.281250
vt 0.625000 0.375000
vt 0.625000 0.250000
vt 0.625000 0.468750
vt 0.625000 0.281250
vt 0.625000 0.500000
vt 0.625000 0.375000
vt 0.625000 0.281250
vt 0.625000 0.375000
vt 0.625000 0.468750
vt 0.625000 0.250000
vt 0.625000 0.281250
vt 0.625000 0.468750
vt 0.625000 0.281250
vt 0.625000 0.468750
vt 0.375000 0.375000
vt 0.375000 0.281250
vt 0.375000 0.375000
vt 0.375000 0.468750
vt 0.375000 0.281250
vt 0.375000 0.250000
vt 0.375000 0.468750
vt 0.375000 0.375000
vt 0.375000 0.500000
vt 0.375000 0.281250
vt 0.375000 0.468750
vt 0.375000 0.250000
vt 0.375000 0.375000
vt 0.375000 0.468750
vt 0.375000 0.375000
vt 0.375000 0.281250
vt 0.375000 0.500000
vt 0.375000 0.468750
vt 0.375000 0.281250
vt 0.375000 0.468750
vt 0.375000 0.281250
vn 0.000000 -0.660873 0.750498
vn 0.848425 -0.324924 0.417851
vn 0.828724 -0.193875 0.525003
vn -0.000000 -0.166068 0.986114
vn 0.450985 -0.384354 0.805534
vn -0.000000 -0.093359 0.995633
vn -0.450985 -0.384354 0.805534
vn -0.828724 -0.193875 0.525003
vn -0.848425 -0.324924 0.417851
vn 0.000000 0.744241 0.667912
vn -0.110814 0.741634 0.661588
vn -0.167405 0.985888 0.000000
vn 0.000000 1.000000 0.000000
vn -0.110814 0.741634 -0.661588
vn 0.000000 0.744241 -0.667912
vn 0.110814 0.741634 -0.661588
vn 0.167405 0.985888 -0.000000
vn 0.110814 0.741634 0.661588
vn 0.000000 -0.093359 -0.995633
vn 0.450985 -0.384354 -0.805534
vn 0.828724 -0.193875 -0.525003
vn -0.000000 -0.166068 -0.986114
vn 0.848425 -0.324924 -0.417851
vn 0.000000 -0.660873 -0.750498
vn -0.848425 -0.324924 -0.417851
vn -0.828724 -0.193875 -0.525003
vn -0.450985 -0.384354 -0.805534
vn 0.904916 -0.425590 0.000000
vn 0.000000 -1.000000 0.000000
vn -0.904916 -0.425590 -0.000000
vn 0.979791 -0.200027 0.000000
vn 0.751016 -0.660284 0.000000
vn -0.979791 -0.200027 -0.000000
vn -0.751016 -0.660284 -0.000000
vn 0.047378 0.064651 0.996783
vn 0.000000 0.118475 0.992957
vn -0.047378 0.064651 0.996783
vn 0.799363 -0.600849 0.000000
vn 0.732980 -0.515826 -0.443467
vn 0.816080 -0.139390 -0.560878
vn 0.990113 -0.140271 -0.000000
vn 0.819297 -0.023484 -0.572889
vn 0.999442 -0.033406 0.000000
vn 0.819297 -0.023484 0.572889
vn 0.816080 -0.139390 0.560878
vn 0.732980 -0.515826 0.443467
vn -0.047378 0.064651 -0.996783
vn 0.000000 0.118475 -0.992957
vn 0.047378 0.064651 -0.996783
vn -0.799363 -0.600849 0.000000
vn -0.732980 -0.515826 0.443467
vn -0.816080 -0.139390 0.560878
vn -0.990113 -0.140271 0.000000
vn -0.819568 -0.024129 0.572474
vn -0.999411 -0.034309 0.000000
vn -0.819568 -0.024129 -0.572474
vn -0.816080 -0.139390 -0.560878
vn -0.732980 -0.515826 -0.443467
vn 0.096214 -0.685608 -0.721585
vn 0.126379 -0.991982 0.000000
vn 0.049255 -0.729086 -0.682648
vn 0.077760 -0.996972 0.000000
vn 0.049255 -0.729086 0.682648
vn 0.096214 -0.685608 0.721584
vn -0.220102 0.608248 -0.762620
vn -0.013631 -0.006216 -0.999888
vn -0.539118 0.208601 -0.815988
vn -0.068929 -0.068008 -0.995301
vn -0.220102 0.608248 0.762620
vn -0.380484 0.924787 0.000000
vn -0.539118 0.208601 0.815988
vn -0.953464 0.301507 0.000000
vn -0.013630 -0.006216 0.999888
vn -0.068929 -0.068008 0.995301
vn 0.236323 -0.708749 -0.664701
vn 0.258630 -0.965976 -0.000000
vn 0.236323 -0.708749 0.664701
vn 0.080298 0.026804 -0.996410
vn 0.168742 -0.108624 -0.979657
vn -0.898126 0.439737 0.000000
vn -0.783608 0.308252 0.539388
vn -0.000000 0.560117 0.828414
vn 0.000000 1.000000 0.000000
vn 0.783608 0.308252 0.539388
vn 0.898127 0.439737 -0.000000
vn 0.783608 0.308252 -0.539388
vn 0.000000 0.560117 -0.828414
vn -0.783608 0.308252 -0.539388
vn 0.168742 -0.108624 0.979657
vn 0.080298 0.026804 0.996410
vn -0.765893 0.141488 0.627207
vn -0.987296 0.158889 0.000000
vn -0.765893 0.141488 -0.627207
vn 0.810594 0.082771 0.579729
vn 0.024705 0.095846 0.995090
vn 0.810594 0.082771 -0.579729
vn 0.996792 0.080031 -0.000000
vn 0.024705 0.095846 -0.995090
vn -0.096214 -0.685608 0.721585
vn -0.126379 -0.991982 -0.000000
vn -0.049255 -0.729086 0.682648
vn -0.077760 -0.996972 0.000000
vn -0.049255 -0.729086 -0.682648
vn -0.096214 -0.685608 -0.721584
vn 0.220102 0.608248 0.762620
vn 0.013631 -0.006216 0.999888
vn 0.533010 0.214024 0.818593
vn 0.068929 -0.068008 0.995301
vn 0.220102 0.608248 -0.762620
vn 0.380484 0.924787 -0.000000
vn 0.533010 0.214024 -0.818593
vn 0.949685 0.313206 0.000000
vn 0.013630 -0.006216 -0.999888
vn 0.068929 -0.068008 -0.995301
vn -0.236323 -0.708749 0.664701
vn -0.258630 -0.965976 0.000000
vn -0.236323 -0.708749 -0.664701
vn -0.081436 0.027531 0.996298
vn -0.168742 -0.108624 0.979657
vn 0.914369 0.404883 0.000000
vn 0.794483 0.260866 -0.548403
vn -0.000000 0.542510 -0.840049
vn 0.000000 1.000000 0.000000
vn -0.794483 0.260866 -0.548403
vn -0.914369 0.404883 0.000000
vn -0.794483 0.260866 0.548403
vn 0.000000 0.542510 0.840049
vn 0.794483 0.260866 0.548403
vn -0.168742 -0.108624 -0.979657
vn -0.081436 0.027531 -0.996298
vn 0.767032 0.140173 -0.626110
vn 0.987271 0.159049 0.000000
vn 0.767032 0.140173 0.626110
vn -0.810693 0.081297 -0.579800
vn -0.023330 0.097323 -0.994979
vn -0.810693 0.081297 0.579800
vn -0.996735 0.080746 0.000000
vn -0.023330 0.097323 0.994979
g pCube1
f 37/77/1 2/2/2 42/78/3 105/43/4
f 42/78/3 4/4/5 38/79/6 105/43/4
f 38/79/6 3/3/7 41/80/8 105/43/4
f 41/80/8 1/1/9 37/77/1 105/43/4
f 51/81/10 10/16/11 53/82/12 106/44/13
f 53/82/12 11/17/14 55/83/15 106/44/13
f 55/83/15 12/18/16 56/84/17 106/44/13
f 56/84/17 9/15/18 51/81/10 106/44/13
f 39/85/19 6/6/20 46/86/21 107/45/22
f 46/86/21 8/8/23 40/87/24 107/45/22
f 40/87/24 7/7/25 45/88/26 107/45/22
f 45/88/26 5/5/27 39/85/19 107/45/22
f 40/87/24 8/8/23 48/89/28 108/46/29
f 48/89/28 2/10/2 37/90/1 108/46/29
f 37/90/1 1/9/9 47/91/30 108/46/29
f 47/91/30 7/7/25 40/87/24 108/46/29
f 48/92/28 8/11/23 46/93/21 109/47/31
f 46/93/21 6/12/20 44/94/32 109/47/31
f 44/94/32 4/4/5 42/78/3 109/47/31
f 42/78/3 2/2/2 48/92/28 109/47/31
f 47/95/30 1/1/9 41/80/8 110/48/33
f 41/80/8 3/3/7 43/96/34 110/48/33
f 43/96/34 5/14/27 45/97/26 110/48/33
f 45/97/26 7/13/25 47/95/30 110/48/33
f 38/79/6 4/4/5 50/98/35 111/49/36
f 50/98/35 10/16/11 51/81/10 111/49/36
f 51/81/10 9/15/18 49/99/37 111/49/36
f 49/99/37 3/3/7 38/79/6 111/49/36
f 67/100/38 18/24/39 69/101/40 112/50/41
f 69/101/40 19/25/42 71/102/43 112/50/41
f 71/102/43 20/26/44 72/103/45 112/50/41
f 72/103/45 17/23/46 67/100/38 112/50/41
f 39/85/19 5/5/27 54/104/47 113/51/48
f 54/104/47 12/18/16 55/83/15 113/51/48
f 55/83/15 11/17/14 52/105/49 113/51/48
f 52/105/49 6/6/20 39/85/19 113/51/48
f 91/106/50 29/36/51 93/107/52 114/52/53
f 93/107/52 31/37/54 95/108/55 114/52/53
f 95/108/55 32/38/56 96/109/57 114/52/53
f 96/109/57 30/35/58 91/106/50 114/52/53
f 44/110/32 6/6/20 58/111/59 115/53/60
f 58/111/59 14/20/61 59/112/62 115/53/60
f 59/112/62 13/19/63 57/113/64 115/53/60
f 57/113/64 4/4/5 44/110/32 115/53/60
f 52/105/49 11/17/14 60/114/65 116/54/66
f 60/114/65 15/21/67 61/115/68 116/54/66
f 61/115/68 14/20/61 58/111/59 116/54/66
f 58/111/59 6/6/20 52/105/49 116/54/66
f 53/82/12 10/16/11 62/116/69 117/55/70
f 62/116/69 16/22/71 63/117/72 117/55/70
f 63/117/72 15/21/67 60/114/65 117/55/70
f 60/114/65 11/17/14 53/82/12 117/55/70
f 50/98/35 4/4/5 57/113/64 118/56/73
f 57/113/64 13/19/63 64/118/74 118/56/73
f 64/118/74 16/22/71 62/116/69 118/56/73
f 62/116/69 10/16/11 50/98/35 118/56/73
f 59/112/62 14/20/61 66/119/75 119/57/76
f 66/119/75 18/24/39 67/100/38 119/57/76
f 67/100/38 17/23/46 65/120/77 119/57/76
f 65/120/77 13/19/63 59/112/62 119/57/76
f 61/115/68 15/21/67 68/121/78 120/58/79
f 68/121/78 19/25/42 69/101/40 120/58/79
f 69/101/40 18/24/39 66/119/75 120/58/79
f 66/119/75 14/20/61 61/115/68 120/58/79
f 75/122/80 21/28/81 77/123/82 121/59/83
f 77/123/82 23/29/84 79/124/85 121/59/83
f 79/124/85 24/30/86 80/125/87 121/59/83
f 80/125/87 22/27/88 75/122/80 121/59/83
f 64/118/74 13/19/63 65/120/77 122/60/89
f 65/120/77 17/23/46 72/103/45 122/60/89
f 72/103/45 20/26/44 70/126/90 122/60/89
f 70/126/90 16/22/71 64/118/74 122/60/89
f 63/117/72 16/22/71 73/127/91 123/61/92
f 73/127/91 21/28/81 75/122/80 123/61/92
f 75/122/80 22/27/88 74/128/93 123/61/92
f 74/128/93 15/21/67 63/117/72 123/61/92
f 70/126/90 20/26/44 76/129/94 124/62/95
f 76/129/94 23/29/84 77/123/82 124/62/95
f 77/123/82 21/28/81 73/127/91 124/62/95
f 73/127/91 16/22/71 70/126/90 124/62/95
f 71/102/43 19/25/42 78/130/96 125/63/97
f 78/130/96 24/30/86 79/124/85 125/63/97
f 79/124/85 23/29/84 76/129/94 125/63/97
f 76/129/94 20/26/44 71/102/43 125/63/97
f 68/121/78 15/21/67 74/128/93 126/64/98
f 74/128/93 22/27/88 80/125/87 126/64/98
f 80/125/87 24/30/86 78/130/96 126/64/98
f 78/130/96 19/25/42 68/121/78 126/64/98
f 43/131/34 3/3/7 81/132/99 127/65/100
f 81/132/99 25/32/101 83/133/102 127/65/100
f 83/133/102 26/31/103 82/134/104 127/65/100
f 82/134/104 5/5/27 43/131/34 127/65/100
f 49/99/37 9/15/18 84/135/105 128/66/106
f 84/135/105 27/33/107 85/136/108 128/66/106
f 85/136/108 25/32/101 81/132/99 128/66/106
f 81/132/99 3/3/7 49/99/37 128/66/106
f 56/84/17 12/18/16 86/137/109 129/67/110
f 86/137/109 28/34/111 87/138/112 129/67/110
f 87/138/112 27/33/107 84/135/105 129/67/110
f 84/135/105 9/15/18 56/84/17 129/67/110
f 54/104/47 5/5/27 82/134/104 130/68/113
f 82/134/104 26/31/103 88/139/114 130/68/113
f 88/139/114 28/34/111 86/137/109 130/68/113
f 86/137/109 12/18/16 54/104/47 130/68/113
f 83/133/102 25/32/101 89/140/115 131/69/116
f 89/140/115 29/36/51 91/106/50 131/69/116
f 91/106/50 30/35/58 90/141/117 131/69/116
f 90/141/117 26/31/103 83/133/102 131/69/116
f 85/136/108 27/33/107 92/142/118 132/70/119
f 92/142/118 31/37/54 93/107/52 132/70/119
f 93/107/52 29/36/51 89/140/115 132/70/119
f 89/140/115 25/32/101 85/136/108 132/70/119
f 99/143/120 34/40/121 101/144/122 133/71/123
f 101/144/122 35/41/124 103/145/125 133/71/123
f 103/145/125 36/42/126 104/146/127 133/71/123
f 104/146/127 33/39/128 99/143/120 133/71/123
f 88/139/114 26/31/103 90/141/117 134/72/129
f 90/141/117 30/35/58 96/109/57 134/72/129
f 96/109/57 32/38/56 94/147/130 134/72/129
f 94/147/130 28/34/111 88/139/114 134/72/129
f 87/138/112 28/34/111 98/148/131 135/73/132
f 98/148/131 34/40/121 99/143/120 135/73/132
f 99/143/120 33/39/128 97/149/133 135/73/132
f 97/149/133 27/33/107 87/138/112 135/73/132
f 94/147/130 32/38/56 100/150/134 136/74/135
f 100/150/134 35/41/124 101/144/122 136/74/135
f 101/144/122 34/40/121 98/148/131 136/74/135
f 98/148/131 28/34/111 94/147/130 136/74/135
f 95/108/55 31/37/54 102/151/136 137/75/137
f 102/151/136 36/42/126 103/145/125 137/75/137
f 103/145/125 35/41/124 100/150/134 137/75/137
f 100/150/134 32/38/56 95/108/55 137/75/137
f 92/142/118 27/33/107 97/149/133 138/76/138
f 97/149/133 33/39/128 104/146/127 138/76/138
f 104/146/127 36/42/126 102/151/136 138/76/138
f 102/151/136 31/37/54 92/142/118 138/76/138
