# ufbx:position_scale=0.1
# This file uses centimeters as units for non-parametric coordinates.

v -0.500000 -0.500000 0.500000
v 0.500000 -0.500000 0.500000
v -0.500000 4.000000 -3.500000
v 0.500000 4.000000 -3.500000
v -0.500000 4.000000 -4.500000
v 0.500000 4.000000 -4.500000
v -0.500000 -0.500000 -0.500000
v 0.500000 -0.500000 -0.500000
v -0.500000 8.000000 0.500000
v 0.500000 8.000000 0.500000
v 0.500000 8.000000 -0.500000
v -0.500000 8.000000 -0.500000
v -0.500000 12.000000 0.500000
v 0.500000 12.000000 0.500000
v 0.500000 12.000000 -0.500000
v -0.500000 12.000000 -0.500000
vt 0.375000 0.000000
vt 0.625000 0.000000
vt 0.375000 0.250000
vt 0.625000 0.250000
vt 0.375000 0.500000
vt 0.625000 0.500000
vt 0.375000 0.750000
vt 0.625000 0.750000
vt 0.375000 1.000000
vt 0.625000 1.000000
vt 0.875000 0.000000
vt 0.875000 0.250000
vt 0.125000 0.000000
vt 0.125000 0.250000
vt 0.375000 0.250000
vt 0.625000 0.250000
vt 0.625000 0.500000
vt 0.375000 0.500000
vt 0.375000 0.250000
vt 0.625000 0.250000
vt 0.625000 0.500000
vt 0.375000 0.500000
vn 0.000000 0.664364 0.747409
vn 0.000000 0.664364 0.747409
vn 0.000000 0.664364 0.747409
vn 0.000000 0.664364 0.747409
vn 0.000000 1.000000 0.000000
vn 0.000000 1.000000 0.000000
vn 0.000000 1.000000 0.000000
vn 0.000000 1.000000 0.000000
vn 0.000000 -0.664364 -0.747409
vn 0.000000 -0.664364 -0.747409
vn 0.000000 -0.664364 -0.747409
vn 0.000000 -0.664364 -0.747409
vn 0.000000 -1.000000 0.000000
vn 0.000000 -1.000000 0.000000
vn 0.000000 -1.000000 0.000000
vn 0.000000 -1.000000 0.000000
vn 1.000000 0.000000 0.000000
vn 1.000000 0.000000 0.000000
vn 1.000000 0.000000 0.000000
vn 1.000000 0.000000 0.000000
vn -1.000000 0.000000 0.000000
vn -1.000000 0.000000 0.000000
vn -1.000000 0.000000 0.000000
vn -1.000000 0.000000 0.000000
vn 0.000000 -0.707107 0.707107
vn 0.000000 -0.707107 0.707107
vn 0.000000 -0.707107 0.707107
vn 0.000000 -0.707107 0.707107
vn 1.000000 0.000000 0.000000
vn 1.000000 0.000000 0.000000
vn 1.000000 0.000000 0.000000
vn 1.000000 0.000000 0.000000
vn 0.000000 0.707107 -0.707107
vn 0.000000 0.707107 -0.707107
vn 0.000000 0.707107 -0.707107
vn 0.000000 0.707107 -0.707107
vn -1.000000 0.000000 0.000000
vn -1.000000 0.000000 0.000000
vn -1.000000 0.000000 0.000000
vn -1.000000 0.000000 0.000000
vn 0.000000 0.000000 1.000000
vn 0.000000 0.000000 1.000000
vn 0.000000 0.000000 1.000000
vn 0.000000 0.000000 1.000000
vn 1.000000 0.000000 0.000000
vn 1.000000 0.000000 0.000000
vn 1.000000 0.000000 0.000000
vn 1.000000 0.000000 0.000000
vn 0.000000 0.000000 -1.000000
vn 0.000000 0.000000 -1.000000
vn 0.000000 0.000000 -1.000000
vn 0.000000 0.000000 -1.000000
vn -1.000000 0.000000 0.000000
vn -1.000000 0.000000 0.000000
vn -1.000000 0.000000 0.000000
vn -1.000000 0.000000 0.000000
g pCube1
f 1/1/1 2/2/2 4/4/3 3/3/4
f 13/19/5 14/20/6 15/21/7 16/22/8
f 5/5/9 6/6/10 8/8/11 7/7/12
f 7/7/13 8/8/14 2/10/15 1/9/16
f 2/2/17 8/11/18 6/12/19 4/4/20
f 7/13/21 1/1/22 3/3/23 5/14/24
f 3/3/25 4/4/26 10/16/27 9/15/28
f 4/4/29 6/6/30 11/17/31 10/16/32
f 6/6/33 5/5/34 12/18/35 11/17/36
f 5/5/37 3/3/38 9/15/39 12/18/40
f 9/15/41 10/16/42 14/20/43 13/19/44
f 10/16/45 11/17/46 15/21/47 14/20/48
f 11/17/49 12/18/50 16/22/51 15/21/52
f 12/18/53 9/15/54 13/19/55 16/22/56
v -0.500000 0.501636 0.494050
v 0.500000 0.501636 0.494050
v -0.500000 0.500391 -0.500944
v 0.500000 0.500391 -0.500944
v -0.500000 -0.496866 -0.505511
v 0.500000 -0.496866 -0.505511
v -0.500000 -0.498225 0.495715
v 0.500000 -0.498225 0.495715
v -0.500000 4.073165 -3.823199
v 0.500000 4.073165 -3.823199
v 0.500000 3.807334 -4.127302
v -0.500000 3.807334 -4.127302
v -0.500000 7.888602 0.594678
v 0.500000 7.888602 0.594678
v 0.500000 8.595971 -0.111345
v -0.500000 8.595971 -0.111345
v -0.500000 12.838177 -0.111600
v 0.500000 12.838177 -0.111600
v 0.500000 13.538522 -0.824455
v -0.500000 13.538522 -0.824455
vt 0.375000 0.000000
vt 0.625000 0.000000
vt 0.375000 0.250000
vt 0.625000 0.250000
vt 0.375000 0.500000
vt 0.625000 0.500000
vt 0.375000 0.750000
vt 0.625000 0.750000
vt 0.375000 1.000000
vt 0.625000 1.000000
vt 0.875000 0.000000
vt 0.875000 0.250000
vt 0.125000 0.000000
vt 0.125000 0.250000
vt 0.375000 0.250000
vt 0.625000 0.250000
vt 0.625000 0.500000
vt 0.375000 0.500000
vt 0.375000 0.250000
vt 0.625000 0.250000
vt 0.625000 0.500000
vt 0.375000 0.500000
vt 0.375000 0.250000
vt 0.625000 0.250000
vt 0.625000 0.500000
vt 0.375000 0.500000
vn 0.000000 0.999999 -0.001251
vn 0.000000 0.999999 -0.001251
vn 0.000000 0.999999 -0.001251
vn 0.000000 0.999999 -0.001251
vn 0.000000 0.713338 0.700820
vn 0.000000 0.713338 0.700820
vn 0.000000 0.713338 0.700820
vn 0.000000 0.713338 0.700820
vn -0.000000 -0.999999 -0.001357
vn -0.000000 -0.999999 -0.001357
vn -0.000000 -0.999999 -0.001357
vn -0.000000 -0.999999 -0.001357
vn 0.000000 0.001664 0.999999
vn 0.000000 0.001664 0.999999
vn 0.000000 0.001664 0.999999
vn 0.000000 0.001664 0.999999
vn 1.000000 0.000000 -0.000000
vn 1.000000 0.000000 -0.000000
vn 1.000000 0.000000 -0.000000
vn 1.000000 0.000000 -0.000000
vn -1.000000 0.000000 -0.000000
vn -1.000000 0.000000 -0.000000
vn -1.000000 0.000000 -0.000000
vn -1.000000 0.000000 -0.000000
vn 0.000000 0.680966 0.732315
vn 0.000000 0.680966 0.732315
vn 0.000000 0.680966 0.732315
vn 0.000000 0.680966 0.732315
vn 1.000000 0.000000 -0.000000
vn 1.000000 0.000000 -0.000000
vn 1.000000 0.000000 -0.000000
vn 1.000000 0.000000 -0.000000
vn 0.000000 -0.643845 -0.765156
vn 0.000000 -0.643845 -0.765156
vn 0.000000 -0.643845 -0.765156
vn 0.000000 -0.643845 -0.765156
vn -1.000000 0.000000 0.000000
vn -1.000000 0.000000 0.000000
vn -1.000000 0.000000 0.000000
vn -1.000000 0.000000 0.000000
vn 0.000000 -0.756823 0.653620
vn 0.000000 -0.756823 0.653620
vn 0.000000 -0.756823 0.653620
vn 0.000000 -0.756823 0.653620
vn 1.000000 0.000000 0.000000
vn 1.000000 0.000000 0.000000
vn 1.000000 0.000000 0.000000
vn 1.000000 0.000000 0.000000
vn 0.000000 0.642582 -0.766217
vn 0.000000 0.642582 -0.766217
vn 0.000000 0.642582 -0.766217
vn 0.000000 0.642582 -0.766217
vn -1.000000 0.000000 0.000000
vn -1.000000 0.000000 0.000000
vn -1.000000 0.000000 0.000000
vn -1.000000 0.000000 0.000000
vn 0.000000 0.141264 0.989972
vn 0.000000 0.141264 0.989972
vn 0.000000 0.141264 0.989972
vn 0.000000 0.141264 0.989972
vn 1.000000 0.000000 0.000000
vn 1.000000 0.000000 0.000000
vn 1.000000 0.000000 0.000000
vn 1.000000 0.000000 0.000000
vn 0.000000 -0.142801 -0.989752
vn 0.000000 -0.142801 -0.989752
vn 0.000000 -0.142801 -0.989752
vn 0.000000 -0.142801 -0.989752
vn -1.000000 0.000000 0.000000
vn -1.000000 0.000000 0.000000
vn -1.000000 0.000000 0.000000
vn -1.000000 0.000000 0.000000
g pCube2
f 17/23/57 18/24/58 20/26/59 19/25/60
f 33/45/61 34/46/62 35/47/63 36/48/64
f 21/27/65 22/28/66 24/30/67 23/29/68
f 23/29/69 24/30/70 18/32/71 17/31/72
f 18/24/73 24/33/74 22/34/75 20/26/76
f 23/35/77 17/23/78 19/25/79 21/36/80
f 19/25/81 20/26/82 26/38/83 25/37/84
f 20/26/85 22/28/86 27/39/87 26/38/88
f 22/28/89 21/27/90 28/40/91 27/39/92
f 21/27/93 19/25/94 25/37/95 28/40/96
f 25/37/97 26/38/98 30/42/99 29/41/100
f 26/38/101 27/39/102 31/43/103 30/42/104
f 27/39/105 28/40/106 32/44/107 31/43/108
f 28/40/109 25/37/110 29/41/111 32/44/112
f 29/41/113 30/42/114 34/46/115 33/45/116
f 30/42/117 31/43/118 35/47/119 34/46/120
f 31/43/121 32/44/122 36/48/123 35/47/124
f 32/44/125 29/41/126 33/45/127 36/48/128
