# ufbx:transform_skin
# This file uses centimeters as units for non-parametric coordinates.

v 3.746986 0.002832 3.645998
v 4.667565 0.011455 3.264682
v 3.810025 0.993798 3.619886
v 4.706239 1.066092 3.248662
v 3.797466 1.822139 3.625088
v 4.585217 2.177861 3.298791
v 3.258509 2.412321 3.848332
v 3.936390 3.055146 3.567544
v 2.565324 3.066423 4.135458
v 3.220265 3.769192 3.864173
v 2.182640 3.066423 3.211579
v 2.837582 3.769192 2.940293
v 2.875825 2.412321 2.924452
v 3.553707 3.055146 2.643665
v 3.414783 1.822139 2.701209
v 4.202534 2.177861 2.374912
v 3.427342 0.993798 2.696007
v 4.323556 1.066092 2.324783
v 3.364302 0.002832 2.722119
v 4.284882 0.011455 2.340802
vt 0.375000 0.000000
vt 0.625000 0.000000
vt 0.375000 0.062500
vt 0.625000 0.062500
vt 0.375000 0.125000
vt 0.625000 0.125000
vt 0.375000 0.187500
vt 0.625000 0.187500
vt 0.375000 0.250000
vt 0.625000 0.250000
vt 0.375000 0.500000
vt 0.625000 0.500000
vt 0.375000 0.562500
vt 0.625000 0.562500
vt 0.375000 0.625000
vt 0.625000 0.625000
vt 0.375000 0.687500
vt 0.625000 0.687500
vt 0.375000 0.750000
vt 0.625000 0.750000
vt 0.375000 1.000000
vt 0.625000 1.000000
vt 0.875000 0.000000
vt 0.875000 0.062500
vt 0.875000 0.125000
vt 0.875000 0.187500
vt 0.875000 0.250000
vt 0.125000 0.000000
vt 0.125000 0.062500
vt 0.125000 0.125000
vt 0.125000 0.187500
vt 0.125000 0.250000
vn 0.382683 0.000000 0.923880
vn 0.382683 0.000000 0.923880
vn 0.382683 0.000000 0.923880
vn 0.382683 0.000000 0.923880
vn 0.382683 0.000000 0.923880
vn 0.382683 0.000000 0.923880
vn 0.382683 0.000000 0.923880
vn 0.382683 0.000000 0.923880
vn 0.382683 0.000000 0.923880
vn 0.382683 0.000000 0.923880
vn -0.650436 0.710173 0.269420
vn -0.650436 0.710173 0.269420
vn -0.650436 0.710173 0.269420
vn -0.650436 0.710173 0.269420
vn -0.382683 0.000000 -0.923880
vn -0.382683 0.000000 -0.923880
vn -0.382683 0.000000 -0.923880
vn -0.382683 0.000000 -0.923880
vn -0.382683 0.000000 -0.923880
vn -0.382683 0.000000 -0.923880
vn -0.382683 0.000000 -0.923880
vn -0.382683 0.000000 -0.923880
vn -0.382683 0.000000 -0.923880
vn -0.382683 0.000000 -0.923880
vn 0.007995 -0.999963 -0.003312
vn 0.007995 -0.999963 -0.003312
vn 0.007995 -0.999963 -0.003312
vn 0.007995 -0.999963 -0.003312
vn 0.923153 -0.039661 -0.382382
vn 0.923153 -0.039661 -0.382382
vn 0.923099 0.041109 -0.382360
vn 0.923099 0.041109 -0.382360
vn 0.852125 0.386395 -0.352962
vn 0.852125 0.386395 -0.352962
vn 0.677066 0.680389 -0.280450
vn 0.677066 0.680389 -0.280450
vn 0.625959 0.735492 -0.259281
vn 0.625959 0.735492 -0.259281
vn -0.921697 0.068693 0.381779
vn -0.921697 0.068693 0.381779
vn -0.923463 0.030020 0.382511
vn -0.923463 0.030020 0.382511
vn -0.851548 -0.387883 0.352723
vn -0.851548 -0.387883 0.352723
vn -0.630253 -0.731183 0.261060
vn -0.630253 -0.731183 0.261060
vn -0.607111 -0.753775 0.251474
vn -0.607111 -0.753775 0.251474
g pCube1
f 1/1/1 2/2/2 4/4/3 3/3/4
f 3/3/4 4/4/3 6/6/5 5/5/6
f 5/5/6 6/6/5 8/8/7 7/7/8
f 7/7/8 8/8/7 10/10/9 9/9/10
f 9/9/11 10/10/12 12/12/13 11/11/14
f 11/11/15 12/12/16 14/14/17 13/13/18
f 13/13/18 14/14/17 16/16/19 15/15/20
f 15/15/20 16/16/19 18/18/21 17/17/22
f 17/17/22 18/18/21 20/20/23 19/19/24
f 19/19/25 20/20/26 2/22/27 1/21/28
f 2/2/29 20/23/30 18/24/31 4/4/32
f 4/4/32 18/24/31 16/25/33 6/6/34
f 6/6/34 16/25/33 14/26/35 8/8/36
f 8/8/36 14/26/35 12/27/37 10/10/38
f 19/28/39 1/1/40 3/3/41 17/29/42
f 17/29/42 3/3/41 5/5/43 15/30/44
f 15/30/44 5/5/43 7/7/45 13/31/46
f 13/31/46 7/7/45 9/9/47 11/32/48
