# This file uses centimeters as units for non-parametric coordinates.

v 26.232306 45.326840 -49.623837
v 26.647953 45.562301 -51.039810
v 24.891672 47.734412 -49.617015
v 25.307319 47.969873 -51.032989
v 20.626121 45.363845 -51.263330
v 21.041768 45.599306 -52.679304
v 21.966755 42.956273 -51.270152
v 22.382402 43.191734 -52.686126
vt 0.375000 0.000000
vt 0.625000 0.000000
vt 0.375000 0.250000
vt 0.625000 0.250000
vt 0.375000 0.500000
vt 0.625000 0.500000
vt 0.375000 0.750000
vt 0.625000 0.750000
vt 0.375000 1.000000
vt 0.625000 1.000000
vt 0.875000 0.000000
vt 0.875000 0.250000
vt 0.125000 0.000000
vt 0.125000 0.250000
vn 0.828225 0.460284 0.319659
vn 0.828225 0.460284 0.319659
vn 0.828225 0.460284 0.319659
vn 0.828225 0.460284 0.319659
vn -0.486499 0.873677 0.002475
vn -0.486499 0.873677 0.002475
vn -0.486499 0.873677 0.002475
vn -0.486499 0.873677 0.002475
vn -0.828225 -0.460284 -0.319659
vn -0.828225 -0.460284 -0.319659
vn -0.828225 -0.460284 -0.319659
vn -0.828225 -0.460284 -0.319659
vn 0.486499 -0.873677 -0.002475
vn 0.486499 -0.873677 -0.002475
vn 0.486499 -0.873677 -0.002475
vn 0.486499 -0.873677 -0.002475
vn 0.278139 0.157564 -0.947530
vn 0.278139 0.157564 -0.947530
vn 0.278139 0.157564 -0.947530
vn 0.278139 0.157564 -0.947530
vn -0.278139 -0.157564 0.947530
vn -0.278139 -0.157564 0.947530
vn -0.278139 -0.157564 0.947530
vn -0.278139 -0.157564 0.947530
g pCube1
f 1/1/1 2/2/2 4/4/3 3/3/4
f 3/3/5 4/4/6 6/6/7 5/5/8
f 5/5/9 6/6/10 8/8/11 7/7/12
f 7/7/13 8/8/14 2/10/15 1/9/16
f 2/2/17 8/11/18 6/12/19 4/4/20
f 7/13/21 1/1/22 3/3/23 5/14/24
