# This file uses centimeters as units for non-parametric coordinates.

v -2.000000 0.000000 2.000000
v 0.000000 2.000000 2.000000
v 2.000000 0.000000 2.000000
v -2.000000 0.000000 -2.000000
v 0.000000 2.000000 -2.000000
v 2.000000 0.000000 -2.000000
vt 0.000000 0.000000
vt 0.500000 0.000000
vt 1.000000 0.000000
vt 0.000000 1.000000
vt 0.500000 1.000000
vt 1.000000 1.000000
vn -0.707107 0.707107 0.000000
vn -0.707107 0.707107 0.000000
vn -0.707107 0.707107 0.000000
vn -0.707107 0.707107 0.000000
vn 0.707107 0.707107 0.000000
vn 0.707107 0.707107 0.000000
vn 0.707107 0.707107 0.000000
vn 0.707107 0.707107 0.000000
g pPlane1
f 1/1/1 2/2/2 5/5/3 4/4/4
f 2/2/5 3/3/6 6/6/7 5/5/8
