# This file uses centimeters as units for non-parametric coordinates.

g default
v 0.270598 -0.009239 -0.270598
v 0.000000 -0.009239 -0.382683
v -0.270598 -0.009239 -0.270598
v -0.382683 -0.009239 0.000000
v -0.270598 -0.009239 0.270598
v 0.000000 -0.009239 0.382683
v 0.270598 -0.009239 0.270598
v 0.382683 -0.009239 0.000000
v 0.500000 -0.007071 -0.500000
v 0.000000 -0.007071 -0.707107
v -0.500000 -0.007071 -0.500000
v -0.707107 -0.007071 0.000000
v -0.500000 -0.007071 0.500000
v 0.000000 -0.007071 0.707107
v 0.500000 -0.007071 0.500000
v 0.707107 -0.007071 0.000000
v 0.653281 -0.003827 -0.653281
v 0.000000 -0.003827 -0.923879
v -0.653281 -0.003827 -0.653281
v -0.923879 -0.003827 0.000000
v -0.653281 -0.003827 0.653281
v 0.000000 -0.003827 0.923879
v 0.653281 -0.003827 0.653281
v 0.923880 -0.003827 0.000000
v 0.707107 0.000000 -0.707107
v 0.000000 0.000000 -1.000000
v -0.707107 0.000000 -0.707107
v -1.000000 0.000000 0.000000
v -0.707107 0.000000 0.707107
v 0.000000 0.000000 1.000000
v 0.707107 0.000000 0.707107
v 1.000000 0.000000 0.000000
v 0.653281 0.003827 -0.653281
v 0.000000 0.003827 -0.923879
v -0.653281 0.003827 -0.653281
v -0.923879 0.003827 0.000000
v -0.653281 0.003827 0.653281
v 0.000000 0.003827 0.923879
v 0.653281 0.003827 0.653281
v 0.923880 0.003827 0.000000
v 0.500000 0.007071 -0.500000
v 0.000000 0.007071 -0.707107
v -0.500000 0.007071 -0.500000
v -0.707107 0.007071 0.000000
v -0.500000 0.007071 0.500000
v 0.000000 0.007071 0.707107
v 0.500000 0.007071 0.500000
v 0.707107 0.007071 0.000000
v 0.270598 0.009239 -0.270598
v 0.000000 0.009239 -0.382683
v -0.270598 0.009239 -0.270598
v -0.382683 0.009239 0.000000
v -0.270598 0.009239 0.270598
v 0.000000 0.009239 0.382683
v 0.270598 0.009239 0.270598
v 0.382683 0.009239 0.000000
v 0.000000 -0.010000 0.000000
v 0.000000 0.010000 0.000000
vt 0.000000 0.125000
vt 0.125000 0.125000
vt 0.250000 0.125000
vt 0.375000 0.125000
vt 0.500000 0.125000
vt 0.625000 0.125000
vt 0.750000 0.125000
vt 0.875000 0.125000
vt 1.000000 0.125000
vt 0.000000 0.250000
vt 0.125000 0.250000
vt 0.250000 0.250000
vt 0.375000 0.250000
vt 0.500000 0.250000
vt 0.625000 0.250000
vt 0.750000 0.250000
vt 0.875000 0.250000
vt 1.000000 0.250000
vt 0.000000 0.375000
vt 0.125000 0.375000
vt 0.250000 0.375000
vt 0.375000 0.375000
vt 0.500000 0.375000
vt 0.625000 0.375000
vt 0.750000 0.375000
vt 0.875000 0.375000
vt 1.000000 0.375000
vt 0.000000 0.500000
vt 0.125000 0.500000
vt 0.250000 0.500000
vt 0.375000 0.500000
vt 0.500000 0.500000
vt 0.625000 0.500000
vt 0.750000 0.500000
vt 0.875000 0.500000
vt 1.000000 0.500000
vt 0.000000 0.625000
vt 0.125000 0.625000
vt 0.250000 0.625000
vt 0.375000 0.625000
vt 0.500000 0.625000
vt 0.625000 0.625000
vt 0.750000 0.625000
vt 0.875000 0.625000
vt 1.000000 0.625000
vt 0.000000 0.750000
vt 0.125000 0.750000
vt 0.250000 0.750000
vt 0.375000 0.750000
vt 0.500000 0.750000
vt 0.625000 0.750000
vt 0.750000 0.750000
vt 0.875000 0.750000
vt 1.000000 0.750000
vt 0.000000 0.875000
vt 0.125000 0.875000
vt 0.250000 0.875000
vt 0.375000 0.875000
vt 0.500000 0.875000
vt 0.625000 0.875000
vt 0.750000 0.875000
vt 0.875000 0.875000
vt 1.000000 0.875000
vt 0.062500 0.000000
vt 0.187500 0.000000
vt 0.312500 0.000000
vt 0.437500 0.000000
vt 0.562500 0.000000
vt 0.687500 0.000000
vt 0.812500 0.000000
vt 0.937500 0.000000
vt 0.062500 1.000000
vt 0.187500 1.000000
vt 0.312500 1.000000
vt 0.437500 1.000000
vt 0.562500 1.000000
vt 0.687500 1.000000
vt 0.812500 1.000000
vt 0.937500 1.000000
vn 0.350881 -0.868197 -0.350881
vn 0.000000 -0.868197 -0.496220
vn 0.000000 -0.654266 -0.756265
vn 0.534760 -0.654266 -0.534760
vn -0.350881 -0.868197 -0.350881
vn -0.534760 -0.654266 -0.534760
vn -0.496220 -0.868197 0.000000
vn -0.756265 -0.654266 0.000000
vn -0.350881 -0.868197 0.350881
vn -0.534760 -0.654266 0.534760
vn -0.000000 -0.868197 0.496220
vn -0.000000 -0.654266 0.756265
vn 0.350881 -0.868197 0.350881
vn 0.534760 -0.654266 0.534760
vn 0.496220 -0.868197 0.000000
vn 0.756265 -0.654266 0.000000
vn 0.000000 -0.349894 -0.936789
vn 0.662410 -0.349894 -0.662410
vn -0.662410 -0.349894 -0.662410
vn -0.936789 -0.349894 0.000000
vn -0.662410 -0.349894 0.662410
vn -0.000000 -0.349894 0.936789
vn 0.662410 -0.349894 0.662410
vn 0.936789 -0.349894 -0.000000
vn 0.000000 0.000000 -1.000000
vn 0.707107 0.000000 -0.707107
vn -0.707107 0.000000 -0.707107
vn -1.000000 0.000000 0.000000
vn -0.707107 -0.000000 0.707107
vn -0.000000 0.000000 1.000000
vn 0.707107 -0.000000 0.707107
vn 1.000000 0.000000 -0.000000
vn 0.000000 0.349894 -0.936789
vn 0.662410 0.349894 -0.662410
vn -0.662410 0.349894 -0.662410
vn -0.936789 0.349894 0.000000
vn -0.662410 0.349894 0.662410
vn -0.000000 0.349894 0.936789
vn 0.662410 0.349894 0.662410
vn 0.936789 0.349894 -0.000000
vn 0.000000 0.654266 -0.756265
vn 0.534760 0.654266 -0.534760
vn -0.534760 0.654266 -0.534760
vn -0.756265 0.654266 0.000000
vn -0.534760 0.654266 0.534760
vn -0.000000 0.654266 0.756265
vn 0.534760 0.654266 0.534760
vn 0.756265 0.654266 0.000000
vn 0.000000 0.868197 -0.496220
vn 0.350881 0.868197 -0.350881
vn -0.350881 0.868197 -0.350881
vn -0.496220 0.868197 0.000000
vn -0.350881 0.868197 0.350881
vn -0.000000 0.868197 0.496220
vn 0.350881 0.868197 0.350881
vn 0.496220 0.868197 0.000000
vn 0.000000 -1.000000 -0.000000
vn 0.000000 1.000000 -0.000000
s 1
g pSphere1
f 1/1/1 2/2/2 10/11/3 9/10/4
f 2/2/2 3/3/5 11/12/6 10/11/3
f 3/3/5 4/4/7 12/13/8 11/12/6
f 4/4/7 5/5/9 13/14/10 12/13/8
f 5/5/9 6/6/11 14/15/12 13/14/10
f 6/6/11 7/7/13 15/16/14 14/15/12
f 7/7/13 8/8/15 16/17/16 15/16/14
f 8/8/15 1/9/1 9/18/4 16/17/16
f 9/10/4 10/11/3 18/20/17 17/19/18
f 10/11/3 11/12/6 19/21/19 18/20/17
f 11/12/6 12/13/8 20/22/20 19/21/19
f 12/13/8 13/14/10 21/23/21 20/22/20
f 13/14/10 14/15/12 22/24/22 21/23/21
f 14/15/12 15/16/14 23/25/23 22/24/22
f 15/16/14 16/17/16 24/26/24 23/25/23
f 16/17/16 9/18/4 17/27/18 24/26/24
f 17/19/18 18/20/17 26/29/25 25/28/26
f 18/20/17 19/21/19 27/30/27 26/29/25
f 19/21/19 20/22/20 28/31/28 27/30/27
f 20/22/20 21/23/21 29/32/29 28/31/28
f 21/23/21 22/24/22 30/33/30 29/32/29
f 22/24/22 23/25/23 31/34/31 30/33/30
f 23/25/23 24/26/24 32/35/32 31/34/31
f 24/26/24 17/27/18 25/36/26 32/35/32
f 25/28/26 26/29/25 34/38/33 33/37/34
f 26/29/25 27/30/27 35/39/35 34/38/33
f 27/30/27 28/31/28 36/40/36 35/39/35
f 28/31/28 29/32/29 37/41/37 36/40/36
f 29/32/29 30/33/30 38/42/38 37/41/37
f 30/33/30 31/34/31 39/43/39 38/42/38
f 31/34/31 32/35/32 40/44/40 39/43/39
f 32/35/32 25/36/26 33/45/34 40/44/40
f 33/37/34 34/38/33 42/47/41 41/46/42
f 34/38/33 35/39/35 43/48/43 42/47/41
f 35/39/35 36/40/36 44/49/44 43/48/43
f 36/40/36 37/41/37 45/50/45 44/49/44
f 37/41/37 38/42/38 46/51/46 45/50/45
f 38/42/38 39/43/39 47/52/47 46/51/46
f 39/43/39 40/44/40 48/53/48 47/52/47
f 40/44/40 33/45/34 41/54/42 48/53/48
f 41/46/42 42/47/41 50/56/49 49/55/50
f 42/47/41 43/48/43 51/57/51 50/56/49
f 43/48/43 44/49/44 52/58/52 51/57/51
f 44/49/44 45/50/45 53/59/53 52/58/52
f 45/50/45 46/51/46 54/60/54 53/59/53
f 46/51/46 47/52/47 55/61/55 54/60/54
f 47/52/47 48/53/48 56/62/56 55/61/55
f 48/53/48 41/54/42 49/63/50 56/62/56
f 2/2/2 1/1/1 57/64/57
f 3/3/5 2/2/2 57/65/57
f 4/4/7 3/3/5 57/66/57
f 5/5/9 4/4/7 57/67/57
f 6/6/11 5/5/9 57/68/57
f 7/7/13 6/6/11 57/69/57
f 8/8/15 7/7/13 57/70/57
f 1/9/1 8/8/15 57/71/57
f 49/55/50 50/56/49 58/72/58
f 50/56/49 51/57/51 58/73/58
f 51/57/51 52/58/52 58/74/58
f 52/58/52 53/59/53 58/75/58
f 53/59/53 54/60/54 58/76/58
f 54/60/54 55/61/55 58/77/58
f 55/61/55 56/62/56 58/78/58
f 56/62/56 49/63/50 58/79/58
