# This file uses centimeters as units for non-parametric coordinates.

mtllib synthetic_geometric_transform.mtl
g default
v 1.637900 -1.751601 -0.818349
v 1.011202 1.265903 -1.029614
v -0.956283 -1.100195 0.588131
v -0.782355 1.621308 0.441113
v -1.968758 -1.952266 -0.746140
v -3.410567 -0.590524 -3.022427
v -0.119069 -3.158759 -3.989986
v -1.706136 -0.658894 -4.663503
vt 0.375000 0.000000
vt 0.625000 0.000000
vt 0.375000 0.250000
vt 0.625000 0.250000
vt 0.375000 0.500000
vt 0.625000 0.500000
vt 0.375000 0.750000
vt 0.625000 0.750000
vt 0.375000 1.000000
vt 0.625000 1.000000
vt 0.875000 0.000000
vt 0.875000 0.250000
vt 0.125000 0.000000
vt 0.125000 0.250000
vn 0.574942 0.322936 0.751767
vn 0.574942 0.322936 0.751767
vn 0.574942 0.322936 0.751767
vn 0.574942 0.322936 0.751767
vn -0.818680 0.083016 0.568218
vn -0.818680 0.083016 0.568218
vn -0.818680 0.083016 0.568218
vn -0.818680 0.083016 0.568218
vn -0.666859 -0.630422 -0.397325
vn -0.666859 -0.630422 -0.397325
vn -0.666859 -0.630422 -0.397325
vn -0.666859 -0.630422 -0.397325
vn 0.814160 0.145069 -0.562226
vn 0.814160 0.145069 -0.562226
vn 0.814160 0.145069 -0.562226
vn 0.814160 0.145069 -0.562226
vn -0.222582 0.920506 -0.321132
vn -0.222582 0.920506 -0.321132
vn -0.222582 0.920506 -0.321132
vn -0.222582 0.920506 -0.321132
vn -0.023091 -0.924012 0.381665
vn -0.023091 -0.924012 0.381665
vn -0.023091 -0.924012 0.381665
vn -0.023091 -0.924012 0.381665
s off
g Parent
usemtl ParentSG
f 1/1/1 2/2/2 4/4/3 3/3/4
f 3/3/5 4/4/6 6/6/7 5/5/8
f 5/5/9 6/6/10 8/8/11 7/7/12
f 7/7/13 8/8/14 2/10/15 1/9/16
f 2/2/17 8/11/18 6/12/19 4/4/20
f 7/13/21 1/1/22 3/3/23 5/14/24
g default
v 0.720448 -1.686887 0.440369
v 1.615625 -1.088665 0.215008
v 0.156632 -0.699079 0.822924
v 1.051810 -0.100857 0.597563
v -0.287994 -0.486950 -0.380117
v 0.607183 0.111272 -0.605479
v 0.275822 -1.474758 -0.762672
v 1.170999 -0.876536 -0.988034
vt 0.375000 0.000000
vt 0.625000 0.000000
vt 0.375000 0.250000
vt 0.625000 0.250000
vt 0.375000 0.500000
vt 0.625000 0.500000
vt 0.375000 0.750000
vt 0.625000 0.750000
vt 0.375000 1.000000
vt 0.625000 1.000000
vt 0.875000 0.000000
vt 0.875000 0.250000
vt 0.125000 0.000000
vt 0.125000 0.250000
vn 0.342020 -0.163176 0.925417
vn 0.342020 -0.163176 0.925417
vn 0.342020 -0.163176 0.925417
vn 0.342020 -0.163176 0.925417
vn -0.469846 0.823173 0.318796
vn -0.469846 0.823173 0.318796
vn -0.469846 0.823173 0.318796
vn -0.469846 0.823173 0.318796
vn -0.342020 0.163176 -0.925417
vn -0.342020 0.163176 -0.925417
vn -0.342020 0.163176 -0.925417
vn -0.342020 0.163176 -0.925417
vn 0.469846 -0.823173 -0.318796
vn 0.469846 -0.823173 -0.318796
vn 0.469846 -0.823173 -0.318796
vn 0.469846 -0.823173 -0.318796
vn 0.813798 0.543838 -0.204874
vn 0.813798 0.543838 -0.204874
vn 0.813798 0.543838 -0.204874
vn 0.813798 0.543838 -0.204874
vn -0.813798 -0.543838 0.204874
vn -0.813798 -0.543838 0.204874
vn -0.813798 -0.543838 0.204874
vn -0.813798 -0.543838 0.204874
s off
g Child
usemtl ParentSG
f 9/15/25 10/16/26 12/18/27 11/17/28
f 11/17/29 12/18/30 14/20/31 13/19/32
f 13/19/33 14/20/34 16/22/35 15/21/36
f 15/21/37 16/22/38 10/24/39 9/23/40
f 10/16/41 16/25/42 14/26/43 12/18/44
f 15/27/45 9/15/46 11/17/47 13/28/48
